<svg width="80" height="80" viewBox="0 0 80 80" fill="none" xmlns="http://www.w3.org/2000/svg">
<rect width="80" height="80" rx="40" fill="#F2F7FF"/>
<path d="M27.7194 20.2037L27.7194 20.2036C26.104 20.5119 24.6371 21.9551 24.2949 23.5921L24.2948 23.5926C24.285 23.6382 24.2738 23.7859 24.2631 24.0374C24.2526 24.2838 24.2428 24.6199 24.2338 25.0331C24.2157 25.8593 24.2007 26.9922 24.1886 28.3297C24.1645 31.0046 24.1525 34.4968 24.1525 37.9891C24.1525 41.4815 24.1645 44.9737 24.1886 47.6486C24.2007 48.9861 24.2157 50.119 24.2338 50.9452C24.2428 51.3584 24.2526 51.6945 24.2631 51.9409C24.2738 52.1924 24.285 52.3401 24.2948 52.3857L24.2949 52.3862C24.6456 54.0571 26.1115 55.4746 27.7975 55.7833L27.7987 55.7835C27.8346 55.7905 27.9353 55.7985 28.113 55.806C28.2871 55.8134 28.5275 55.8202 28.836 55.8264C29.453 55.8387 30.3407 55.8486 31.5126 55.8562C33.8564 55.8716 37.3357 55.8782 42.0569 55.8782C47.8643 55.8782 51.328 55.8716 53.4023 55.8519C54.4395 55.842 55.1284 55.8288 55.5889 55.8116C56.0519 55.7943 56.2773 55.773 56.3924 55.7487C58.0178 55.4059 59.4066 54.0147 59.7488 52.3861L59.7489 52.3857C59.7587 52.3401 59.7699 52.1924 59.7806 51.9409C59.7911 51.6945 59.8009 51.3584 59.8099 50.9452C59.828 50.119 59.843 48.9861 59.8551 47.6486C59.8791 44.9737 59.8912 41.4815 59.8912 37.9891C59.8912 34.4968 59.8791 31.0046 59.8551 28.3297C59.843 26.9922 59.828 25.8593 59.8099 25.0331C59.8009 24.6199 59.7911 24.2838 59.7806 24.0374C59.7699 23.7859 59.7587 23.6382 59.7489 23.5926L59.7488 23.5922C59.4066 21.9636 58.0178 20.5724 56.3925 20.2296C56.2748 20.2052 56.0491 20.184 55.5864 20.1668C55.1257 20.1497 54.4363 20.1369 53.3958 20.1275C51.315 20.1089 47.8337 20.1045 41.9781 20.1089L27.7194 20.2037ZM27.7194 20.2037L27.7203 20.2035M27.7194 20.2037L27.7203 20.2035M27.7203 20.2035C27.7205 20.2034 27.7203 20.2035 27.7205 20.2034L27.7209 20.2034L27.7227 20.2031L27.7289 20.2022C27.7342 20.2016 27.7411 20.2009 27.7497 20.2002C27.767 20.1987 27.7899 20.1972 27.8185 20.1956C27.8756 20.1925 27.9536 20.1895 28.0521 20.1865C28.2488 20.1805 28.5253 20.1748 28.8762 20.1693C29.5779 20.1585 30.5755 20.1489 31.8247 20.1407C34.323 20.1242 37.8264 20.1133 41.9781 20.1089L41.978 20.0089C33.6744 20.0177 27.9634 20.0528 27.7007 20.1054L27.7203 20.2035ZM24.197 52.4067C24.5561 54.1179 26.054 55.5658 27.7795 55.8817C28.1386 55.9519 32.6145 55.9782 42.0569 55.9782C53.6715 55.9782 55.9138 55.9519 56.4131 55.8466L24.197 52.4067ZM24.197 52.4067C24.0043 51.5116 24.0043 24.4667 24.197 23.5716V52.4067ZM56.6495 53.9796L56.6481 53.9803C56.2887 54.1483 55.8968 54.2354 55.5001 54.2354H28.4573C28.1175 54.2354 27.7818 54.1603 27.4744 54.0154C27.4743 54.0154 27.4742 54.0153 27.4741 54.0152L27.5167 53.9248L56.6495 53.9796ZM56.6495 53.9796C57.2666 53.6796 57.7119 53.2235 58.019 52.5631L56.6495 53.9796ZM58.1386 30.8935H58.2386V30.7935V24.4896C58.2386 24.0899 58.1485 23.6954 57.9748 23.3354C57.6582 22.6738 57.2646 22.2886 56.6046 21.9806C56.2741 21.8241 55.9129 21.7429 55.5472 21.7429H28.4573C28.1174 21.7429 27.7817 21.818 27.4743 21.963C26.815 22.2706 26.3598 22.7168 26.0603 23.335L26.0603 23.3349L26.0597 23.3363C25.8919 23.6963 25.805 24.0887 25.805 24.4859V30.7935V30.8935H25.905H58.1386ZM41.4804 27.0085L41.4802 27.0086C41.4802 27.0086 41.4799 27.0088 41.4792 27.0091L41.4759 27.0102C41.4744 27.0108 41.4726 27.0113 41.4704 27.012C41.4685 27.0125 41.4664 27.0131 41.464 27.0138C41.4538 27.0165 41.4402 27.0195 41.4229 27.0226C41.3882 27.0288 41.3423 27.0349 41.2849 27.0407C41.1701 27.0524 41.0144 27.0624 40.8209 27.0706C40.4342 27.087 39.9015 27.0957 39.254 27.0957H37.5464C37.3427 27.0957 37.1474 27.0147 37.0036 26.8706C36.907 26.7739 36.854 26.7016 36.8229 26.625C36.7916 26.5481 36.7788 26.4578 36.7788 26.3182C36.7788 26.1786 36.7916 26.0883 36.8229 26.0114C36.854 25.9348 36.907 25.8626 37.0036 25.7658C37.1474 25.6217 37.3427 25.5407 37.5464 25.5407H39.3065C39.9452 25.5407 40.4891 25.5495 40.8859 25.5648C41.0844 25.5724 41.2451 25.5817 41.362 25.5921C41.4206 25.5974 41.4668 25.6028 41.5008 25.6083C41.5292 25.6129 41.5426 25.6166 41.5467 25.6177C41.5471 25.6178 41.5474 25.6179 41.5476 25.6179C41.623 25.6628 41.7171 25.775 41.7949 25.9184C41.8734 26.0631 41.9218 26.2148 41.9218 26.3182C41.9218 26.4277 41.8687 26.5754 41.78 26.714C41.6912 26.8525 41.5792 26.9626 41.4804 27.0085ZM29.9646 38.2174L29.966 38.2166C29.975 38.2115 30.0023 38.2009 30.0702 38.1898C30.1356 38.1792 30.2299 38.1693 30.3656 38.1605C30.6365 38.1429 31.0635 38.1297 31.7357 38.1199C33.0794 38.1001 35.3954 38.0935 39.3854 38.0892H48.1871C48.4305 38.0892 48.6638 38.1859 48.8357 38.3582C48.927 38.4496 48.9954 38.539 49.0404 38.6194C49.0861 38.7009 49.1043 38.7671 49.1043 38.814C49.1043 38.9469 49.0559 39.1132 48.9796 39.262C48.9044 39.4085 48.8124 39.5185 48.7351 39.5642C48.7291 39.5653 48.7199 39.5667 48.7067 39.5682C48.6786 39.5715 48.6381 39.5748 48.5842 39.578C48.4769 39.5845 48.3218 39.5905 48.1182 39.5961C47.7113 39.6072 47.1142 39.6162 46.326 39.6233C44.7499 39.6376 42.4116 39.6442 39.3065 39.6442H30.0458L29.8218 39.4198C29.8217 39.4197 29.8216 39.4195 29.8214 39.4194C29.4521 39.0411 29.5292 38.4546 29.9646 38.2174ZM29.6039 45.9117C29.641 45.668 29.7808 45.4584 30.0009 45.3676L30.0022 45.3674C30.0089 45.3665 30.0194 45.3653 30.0343 45.364C30.0638 45.3615 30.1061 45.359 30.1612 45.3564C30.2712 45.3513 30.4283 45.3464 30.6278 45.3416C31.0265 45.3322 31.592 45.3237 32.2827 45.3166C33.664 45.3023 35.5447 45.2935 37.5897 45.2935H37.5898L44.596 45.2853C44.8393 45.285 45.0726 45.3816 45.2445 45.5538C45.3358 45.6452 45.4042 45.7346 45.4492 45.815C45.4949 45.8965 45.5131 45.9627 45.5131 46.0096C45.5131 46.1425 45.4647 46.3088 45.3883 46.4576C45.3129 46.6047 45.2204 46.715 45.1429 46.7604C45.1381 46.7614 45.1308 46.7626 45.1202 46.764C45.0968 46.7672 45.0631 46.7705 45.0183 46.7737C44.929 46.7802 44.8009 46.7862 44.6333 46.7917C44.2984 46.8028 43.8101 46.8118 43.1693 46.819C41.8877 46.8332 39.9984 46.8398 37.5109 46.8398H30.3639C30.1604 46.8398 29.9653 46.7589 29.8214 46.615C29.6359 46.425 29.5665 46.1573 29.6039 45.9117ZM29.5963 26.3182C29.5963 26.1786 29.6092 26.0883 29.6404 26.0114C29.6715 25.9348 29.7245 25.8626 29.8211 25.7658C29.9649 25.6217 30.1602 25.5407 30.3639 25.5407H32.1503C33.1641 25.5407 33.698 25.543 34.0053 25.5657C34.1587 25.577 34.2484 25.593 34.3102 25.6134C34.3683 25.6326 34.4054 25.6568 34.4526 25.6942C34.6944 25.8914 34.7933 26.3074 34.6593 26.64C34.6102 26.7574 34.5682 26.8319 34.505 26.8873C34.4422 26.9422 34.3483 26.9869 34.1787 27.0197C33.8337 27.0865 33.2283 27.0957 32.0802 27.0957H30.3639C30.1602 27.0957 29.9649 27.0147 29.8211 26.8706C29.7245 26.7739 29.6715 26.7016 29.6404 26.625C29.6092 26.5481 29.5963 26.4578 29.5963 26.3182Z" fill="#0358AC" stroke="#F2F7FF" stroke-width="0.2"/>
</svg>
