<svg width="80" height="80" viewBox="0 0 80 80" fill="none" xmlns="http://www.w3.org/2000/svg">
<rect width="80" height="80" rx="40" fill="#F2F7FF"/>
<path d="M59 48.5C59 52.6421 55.6421 56 51.5 56C47.3579 56 44 52.6421 44 48.5C44 44.3579 47.3579 41 51.5 41C55.6421 41 59 44.3579 59 48.5ZM45.056 48.5C45.056 52.0589 47.9411 54.944 51.5 54.944C55.0589 54.944 57.944 52.0589 57.944 48.5C57.944 44.9411 55.0589 42.056 51.5 42.056C47.9411 42.056 45.056 44.9411 45.056 48.5Z" fill="#0358AC"/>
<path d="M54.4045 48.8696C54.6165 48.8696 54.7884 48.6977 54.7884 48.4857C54.7884 48.2737 54.6165 48.1018 54.4045 48.1018H51.8069V45.4414C51.8069 45.2207 51.6279 45.0417 51.4072 45.0417C51.1865 45.0417 51.0076 45.2207 51.0076 45.4414V48.1018H48.4257C48.2136 48.1018 48.0417 48.2737 48.0417 48.4857C48.0417 48.6977 48.2136 48.8696 48.4257 48.8696H51.0076V51.5143C51.0076 51.735 51.1865 51.914 51.4072 51.914C51.6279 51.914 51.8069 51.735 51.8069 51.5143V48.8696H54.4045Z" fill="#0358AC" stroke="#0358AC" stroke-width="0.25"/>
<circle cx="41.5" cy="29.5" r="8.9" stroke="#0358AC" stroke-width="1.2"/>
<path fill-rule="evenodd" clip-rule="evenodd" d="M47.8672 36.8771L47 36.5L46 37.5L47.2344 37.9458C47.9797 38.2623 48.4367 38.5013 49.2102 38.9724C49.5828 39.1974 49.9555 39.3873 50.0328 39.3873C50.4547 39.3873 50.75 39.0146 50.6305 38.6349C50.5461 38.3818 49.8641 37.9107 48.7461 37.3412C48.282 37.1021 47.8883 36.8912 47.8672 36.8771ZM36.4977 37.7068L37 37.5L36 36.5L35.3516 36.8982C35.3516 36.9041 35.19 36.9785 34.9772 37.0765C34.935 37.0959 34.8907 37.1163 34.8453 37.1373C32.9469 38.0091 30.9148 39.6193 29.4805 41.3841C27.5961 43.6974 26.3516 46.7841 26.0773 49.7935C26.0352 50.2365 26 51.7201 26 53.0841V55.5732L26.2039 55.7771C26.4711 56.0443 26.7242 56.0443 26.9914 55.7771L27.1953 55.5732V53.1544C27.1953 49.7373 27.3219 48.6333 27.9125 46.7771C29.1641 42.8677 31.9906 39.7388 35.8227 38.0091L36.4977 37.7068Z" fill="#0358AC"/>
</svg>
