<svg width="80" height="80" viewBox="0 0 80 80" fill="none" xmlns="http://www.w3.org/2000/svg">
<rect width="80" height="80" rx="40" fill="#F2F7FF"/>
<g clip-path="url(#clip0_1050_4455)">
<path d="M35.9969 22.3348L35.9956 22.3346C35.7802 22.2958 35.6273 22.2733 35.4702 22.2743C35.3129 22.2753 35.16 22.2998 34.9442 22.3422L35.9969 22.3348ZM35.9969 22.3348C36.926 22.5086 37.7239 23.1343 38.1304 23.992M35.9969 22.3348L38.1304 23.992M38.1304 23.992C38.2302 24.1987 38.2942 24.3498 38.3292 24.5319C38.3632 24.7089 38.368 24.9068 38.368 25.2033C38.368 25.4998 38.3632 25.6977 38.3292 25.8747C38.2943 26.0568 38.2302 26.2078 38.1305 26.4145C37.2485 28.2826 34.8688 28.698 33.407 27.2361C33.2021 27.0312 32.9495 26.6754 32.8334 26.4281C32.7458 26.2456 32.6894 26.1048 32.6586 25.9189C32.6291 25.741 32.6242 25.5278 32.6242 25.2033C32.6242 24.8788 32.6291 24.6656 32.6586 24.4877C32.6894 24.3019 32.7458 24.1611 32.8333 23.9786C33.2128 23.1674 34.0609 22.5159 34.9442 22.3422L38.1304 23.992ZM30.9264 24.2097L30.8818 24.3486H30.7359H27.7828C26.374 24.3486 25.6397 24.3504 25.2243 24.3686C25.0164 24.3778 24.8986 24.3907 24.8203 24.4068C24.7489 24.4215 24.7084 24.4392 24.6539 24.4672L24.6535 24.4673C24.5351 24.5279 24.4198 24.6407 24.3337 24.783C24.2476 24.9252 24.2 25.0814 24.2 25.2174C24.2 25.3299 24.249 25.4814 24.3404 25.6286C24.4315 25.7754 24.5483 25.8912 24.6553 25.9472L24.6553 25.9472L24.6606 25.9501C24.7285 25.9883 24.8007 26.0214 25.2272 26.0388C25.6518 26.0562 26.3918 26.058 27.7687 26.058H30.7359H30.881L30.926 26.1958L31.0456 26.5615L31.0457 26.5619C31.5321 28.0615 32.6789 29.2012 34.1841 29.6669C34.4991 29.7643 34.9714 29.8198 35.4534 29.825C35.9357 29.8302 36.4013 29.7847 36.7041 29.6946C37.9084 29.3291 39.0848 28.3715 39.5922 27.3639C40.3497 25.8419 40.2658 24.0548 39.3858 22.7043C38.3736 21.159 36.4897 20.3233 34.7064 20.6193C33.0319 20.9019 31.5862 22.1692 31.0458 23.8373C31.0458 23.8374 31.0458 23.8375 31.0457 23.8376L30.9264 24.2097Z" fill="#0358AC" stroke="#F2F7FF" stroke-width="0.4"/>
<path d="M59.4375 26.1242C59.2055 26.2508 58.8469 26.2578 51.0352 26.2578C43.4062 26.2578 42.8648 26.2508 42.6398 26.1313L59.4375 26.1242ZM59.4375 26.1242C59.7328 25.9695 60 25.5406 60 25.2172M59.4375 26.1242L60 25.2172M60 25.2172C60 24.8586 59.7539 24.4508 59.4375 24.2891L60 25.2172ZM42.7286 24.4576L42.7286 24.4576L42.7261 24.4589C42.5532 24.5501 42.4561 24.6397 42.3977 24.7417C42.3383 24.8456 42.3055 24.9857 42.3055 25.2031C42.3055 25.4234 42.3398 25.569 42.4011 25.6757C42.4609 25.7799 42.5587 25.8686 42.728 25.9517L42.728 25.9516L42.7337 25.9546C42.7532 25.965 42.796 25.9853 42.991 26.0022C43.1846 26.019 43.5053 26.031 44.064 26.0394C45.1792 26.056 47.2198 26.0578 51.0352 26.0578C54.942 26.0578 56.9824 26.056 58.0755 26.0385C58.6235 26.0297 58.9266 26.017 59.1058 25.9994C59.2799 25.9824 59.3164 25.9625 59.3415 25.9488L59.3417 25.9486L59.3417 25.9486L59.3447 25.9471C59.4517 25.891 59.5685 25.7752 59.6596 25.6285C59.751 25.4812 59.8 25.3297 59.8 25.2172C59.8 25.0812 59.7524 24.925 59.6663 24.7829C59.5802 24.6406 59.4649 24.5277 59.3465 24.4671L59.3462 24.467C59.3438 24.4658 59.3415 24.4646 59.3391 24.4633C59.2561 24.4204 59.1846 24.3833 58.1317 24.366C57.0668 24.3484 55.0337 24.3484 51.0211 24.3484C47.1248 24.3484 45.0879 24.3502 43.9957 24.3677C43.4482 24.3765 43.1448 24.3892 42.9653 24.4068C42.7903 24.4239 42.7536 24.4439 42.7287 24.4575L42.7286 24.4576Z" fill="#0358AC" stroke="#F2F7FF" stroke-width="0.4"/>
<path d="M52.4922 37.1476L52.492 37.1469C52.2422 36.3294 51.5513 35.5847 50.7532 35.2882C50.7532 35.2882 50.7532 35.2882 50.7531 35.2882L52.4922 37.1476ZM52.4922 37.1476C52.9306 38.5988 52.1528 40.174 50.7348 40.7246L50.7342 40.7249C50.4315 40.8413 50.0614 40.8964 49.7 40.8964C49.3388 40.8964 48.9702 40.8414 48.6705 40.7246L52.4922 37.1476ZM48.8707 33.4224L48.8707 33.4224L48.8667 33.4231C48.3848 33.5023 47.5746 33.8348 47.1313 34.1303C46.883 34.297 46.5704 34.5844 46.2801 34.9058C45.9894 35.2274 45.7344 35.5684 45.5942 35.8358L45.5941 35.8359C44.901 37.1549 44.907 38.8435 45.6016 40.1787L45.6016 40.1789C45.7784 40.5193 46.1004 40.9245 46.4707 41.2896C46.8412 41.655 47.2434 41.9638 47.5712 42.1229C47.9986 42.3279 48.2993 42.447 48.6046 42.5168C48.91 42.5865 49.2301 42.6093 49.6991 42.6093L49.7006 42.6093C50.1663 42.6128 50.518 42.5833 50.8457 42.5057C51.1729 42.4282 51.4854 42.3006 51.87 42.098L51.8701 42.0979C52.9067 41.5527 53.7711 40.5258 54.1207 39.4169C54.1208 39.4167 54.1208 39.4165 54.1209 39.4164L54.2401 39.0307L54.283 38.8919L54.4283 38.8898L56.875 38.8546C56.9415 38.8536 57.0063 38.8526 57.0695 38.8517C57.6625 38.8427 58.1135 38.8358 58.4615 38.8241C58.8489 38.811 59.0961 38.7921 59.2632 38.7605C59.4264 38.7297 59.4901 38.6907 59.5293 38.6528C59.5782 38.6054 59.6121 38.5406 59.6881 38.3943C59.7613 38.2475 59.7929 38.1203 59.7929 37.9999C59.7929 37.8795 59.7613 37.7523 59.6881 37.6055C59.6121 37.4593 59.5782 37.3944 59.5293 37.347C59.4901 37.3091 59.4264 37.2702 59.2632 37.2393C59.0961 37.2077 58.8489 37.1888 58.4615 37.1758C58.1135 37.164 57.6625 37.1572 57.0695 37.1482C57.0064 37.1472 56.9416 37.1462 56.8752 37.1452C56.8751 37.1452 56.875 37.1452 56.875 37.1452L54.4283 37.1101L54.283 37.108L54.2401 36.9691L54.121 36.5839C54.1209 36.5836 54.1209 36.5834 54.1208 36.5832C53.6702 35.1651 52.5051 34.017 51.0111 33.5433C50.7659 33.4693 50.368 33.4127 49.9538 33.3884C49.5388 33.3642 49.1321 33.374 48.8707 33.4224Z" fill="#0358AC" stroke="#F2F7FF" stroke-width="0.4"/>
<path d="M24.6583 37.2547L24.6583 37.2547L24.6553 37.2562C24.5492 37.3118 24.4325 37.4286 24.3411 37.578C24.2496 37.7277 24.2 37.8832 24.2 38.0002C24.2 38.1172 24.2496 38.2727 24.3411 38.4223C24.4325 38.5718 24.5492 38.6885 24.6553 38.7441L24.6553 38.7441L24.6583 38.7457L24.6588 38.746C24.6825 38.7589 24.7196 38.7792 24.9053 38.7964C25.0956 38.814 25.4193 38.8268 26.0052 38.8356C27.1739 38.8531 29.3604 38.8549 33.5484 38.8549C34.0867 38.8549 34.5931 38.855 35.0693 38.855C38.8801 38.8557 40.7675 38.856 41.7337 38.8094C42.2873 38.7827 42.5022 38.7409 42.6007 38.6953C42.6514 38.6719 42.6585 38.6607 42.6918 38.6082C42.7089 38.5813 42.7328 38.5436 42.7729 38.4879L42.7729 38.4879C42.849 38.3824 42.8986 38.202 42.8986 38.0002C42.8986 37.7984 42.849 37.618 42.7729 37.5124L42.7729 37.5124C42.7328 37.4567 42.7089 37.419 42.6918 37.3921C42.6585 37.3397 42.6514 37.3284 42.6007 37.305C42.5022 37.2595 42.2873 37.2177 41.7337 37.191C40.7675 37.1444 38.8801 37.1447 35.0693 37.1453C34.5931 37.1454 34.0868 37.1455 33.5484 37.1455C29.3604 37.1455 27.1739 37.1473 26.0052 37.1648C25.4193 37.1736 25.0956 37.1863 24.9053 37.204C24.7196 37.2212 24.6825 37.2414 24.6588 37.2544L24.6583 37.2547Z" fill="#0358AC" stroke="#F2F7FF" stroke-width="0.4"/>
<path d="M33.3614 46.2386L33.3609 46.2387C31.7046 46.6173 30.3702 47.8266 29.8791 49.38C29.879 49.3802 29.879 49.3804 29.8789 49.3806L29.7597 49.7661L29.7168 49.9049L29.5715 49.907L27.1249 49.9422C27.1248 49.9422 27.1247 49.9422 27.1247 49.9422C27.0582 49.9432 26.9934 49.9442 26.9302 49.9451C26.3372 49.9541 25.8863 49.961 25.5384 49.9727C25.151 49.9858 24.9037 50.0047 24.7367 50.0363C24.5734 50.0671 24.5097 50.1061 24.4706 50.144C24.4217 50.1913 24.3878 50.256 24.3121 50.4017C24.2383 50.5529 24.2072 50.6799 24.2078 50.7993C24.2085 50.919 24.2413 51.0464 24.3186 51.198C24.3884 51.3339 24.4248 51.3964 24.4751 51.4413C24.5195 51.4809 24.5927 51.5211 24.7649 51.5529C25.1241 51.6193 25.7874 51.6303 27.1599 51.6516C27.1599 51.6516 27.16 51.6516 27.16 51.6516L29.5716 51.6867L29.7168 51.6889L29.7597 51.8277L29.8791 52.2137C29.8791 52.2138 29.8791 52.214 29.8792 52.2141C30.2553 53.4158 31.3102 54.5725 32.4863 55.0631L32.4866 55.0632C32.9853 55.2721 33.8099 55.4484 34.3007 55.4484C34.5013 55.4484 34.9088 55.4015 35.1939 55.3404L35.1939 55.3404L35.1961 55.3399C36.2293 55.1306 36.9867 54.6955 37.7115 53.9097L37.7116 53.9096C38.5276 53.0262 38.9171 52.0202 38.9171 50.7969C38.9171 49.4794 38.5167 48.5103 37.5689 47.5558L37.5687 47.5555C37.2435 47.2269 36.9812 47.0011 36.7028 46.8243C36.4251 46.648 36.1235 46.5153 35.715 46.3815L35.7134 46.3809C35.3903 46.2721 34.9605 46.1987 34.5267 46.1722C34.0921 46.1456 33.67 46.1671 33.3614 46.2386ZM31.3937 50.8039L31.3937 50.8032C31.4012 48.7364 33.4115 47.355 35.355 48.0853C36.4628 48.4953 37.2077 49.5988 37.2077 50.7969C37.2077 52.4271 35.9359 53.6898 34.3007 53.6898C32.6729 53.6898 31.3937 52.4204 31.3937 50.8039Z" fill="#0358AC" stroke="#F2F7FF" stroke-width="0.4"/>
<path d="M41.5411 50.0406L41.5404 50.0409C40.9468 50.3349 40.9396 51.2355 41.5277 51.5324L41.5277 51.5324L41.5289 51.533C41.5589 51.5484 41.5776 51.5571 41.6059 51.5653C41.6367 51.5743 41.6848 51.5842 41.7706 51.5934C41.9445 51.612 42.2453 51.6252 42.8162 51.634C43.9541 51.6516 46.1333 51.6516 50.4376 51.6516C54.7419 51.6516 56.9211 51.6516 58.059 51.634C58.6299 51.6252 58.9307 51.612 59.1046 51.5934C59.1904 51.5842 59.2385 51.5743 59.2693 51.5653C59.2976 51.5571 59.3163 51.5484 59.3463 51.533L59.3466 51.5329C59.465 51.4723 59.5803 51.3594 59.6664 51.2171C59.7525 51.075 59.8001 50.9188 59.8001 50.7828C59.8001 50.6703 59.7511 50.5188 59.6597 50.3715C59.5686 50.2248 59.4518 50.109 59.3448 50.0529L59.3448 50.053L59.3418 50.0514L59.3412 50.051C59.3174 50.038 59.2804 50.0178 59.0956 50.0007C58.9055 49.983 58.5821 49.9703 57.9958 49.9615C56.8262 49.944 54.6362 49.9422 50.4376 49.9422C46.4784 49.9422 44.2863 49.9457 43.0575 49.9624C42.4423 49.9707 42.0728 49.9823 41.8451 49.9981C41.6075 50.0145 41.5532 50.0346 41.5411 50.0406Z" fill="#0358AC" stroke="#F2F7FF" stroke-width="0.4"/>
</g>
<defs>
<clipPath id="clip0_1050_4455">
<rect width="36" height="36" fill="white" transform="translate(24 20)"/>
</clipPath>
</defs>
</svg>
