<svg width="22" height="22" viewBox="0 0 22 22" fill="none" xmlns="http://www.w3.org/2000/svg">
<path d="M12.11 11.2298C12.11 11.2298 12.11 11.2298 12.05 11.2298L10.6 9.9998C10.3404 9.77933 10.0106 9.65877 9.66997 9.6598C9.46987 9.6607 9.272 9.70189 9.08816 9.78093C8.90433 9.85996 8.73829 9.97521 8.59997 10.1198L6.35997 12.4998C6.22807 12.6328 6.15405 12.8125 6.15405 12.9998C6.15405 13.1871 6.22807 13.3668 6.35997 13.4998C6.42293 13.5665 6.4989 13.6195 6.58318 13.6556C6.66747 13.6918 6.75827 13.7102 6.84997 13.7098C7.03906 13.705 7.21867 13.626 7.34997 13.4898L9.58997 11.1598C9.60105 11.1551 9.61295 11.1527 9.62497 11.1527C9.63699 11.1527 9.64889 11.1551 9.65997 11.1598H9.71997L11.16 12.3298C11.4249 12.5466 11.7576 12.6634 12.1 12.6598C12.3065 12.6598 12.5108 12.6172 12.7001 12.5346C12.8893 12.452 13.0595 12.3312 13.2 12.1798L15.65 9.4998C15.7795 9.36559 15.8519 9.18634 15.8519 8.9998C15.8519 8.81327 15.7795 8.63402 15.65 8.4998C15.5222 8.37309 15.3499 8.30132 15.17 8.2998C15.0738 8.3016 14.979 8.32292 14.8914 8.36245C14.8037 8.40199 14.725 8.45893 14.66 8.5298L12.18 11.1998C12.1689 11.2045 12.157 11.2069 12.145 11.2069C12.1329 11.2069 12.121 11.2045 12.11 11.1998" fill="white"/>
<path d="M15.18 1.75C15.8458 1.75 16.5051 1.88114 17.1202 2.13593C17.7353 2.39072 18.2942 2.76418 18.765 3.23497C19.2358 3.70576 19.6093 4.26467 19.8641 4.8798C20.1189 5.49492 20.25 6.1542 20.25 6.82V15.18C20.25 15.8458 20.1189 16.5051 19.8641 17.1202C19.6093 17.7353 19.2358 18.2942 18.765 18.765C18.2942 19.2358 17.7353 19.6093 17.1202 19.8641C16.5051 20.1189 15.8458 20.25 15.18 20.25H6.82C6.1542 20.25 5.49492 20.1189 4.8798 19.8641C4.26467 19.6093 3.70576 19.2358 3.23497 18.765C2.76418 18.2942 2.39072 17.7353 2.13593 17.1202C1.88114 16.5051 1.75 15.8458 1.75 15.18V6.82C1.75 5.47535 2.28416 4.18578 3.23497 3.23497C4.18578 2.28416 5.47535 1.75 6.82 1.75H15.18ZM15.18 0.25H6.82C5.07753 0.25 3.40642 0.942195 2.17431 2.17431C0.942195 3.40642 0.25 5.07753 0.25 6.82V15.18C0.25 16.9225 0.942195 18.5936 2.17431 19.8257C3.40642 21.0578 5.07753 21.75 6.82 21.75H15.18C16.9225 21.75 18.5936 21.0578 19.8257 19.8257C21.0578 18.5936 21.75 16.9225 21.75 15.18V6.82C21.75 5.07753 21.0578 3.40642 19.8257 2.17431C18.5936 0.942195 16.9225 0.25 15.18 0.25V0.25Z" fill="white"/>
</svg>
