<svg width="16" height="20" viewBox="0 0 16 20" fill="none" xmlns="http://www.w3.org/2000/svg">
<path d="M12.0002 0.24588C12.0852 1.35514 11.7344 2.45382 11.0223 3.3086C10.6814 3.73267 10.2486 4.07385 9.75671 4.30644C9.26478 4.53903 8.72649 4.65697 8.18237 4.65137C8.14766 4.11794 8.21842 3.5829 8.39061 3.07683C8.5628 2.57077 8.83304 2.1036 9.18588 1.70204C9.90754 0.880054 10.9124 0.360136 12.0002 0.24588Z" fill="black"/>
<path d="M13.9846 8.31932C13.6231 8.95628 13.4286 9.67434 13.4191 10.4067C13.42 11.2305 13.6634 12.0358 14.1189 12.7222C14.5743 13.4086 15.2218 13.9457 15.9805 14.2666C15.6822 15.2356 15.2326 16.1514 14.6482 16.98C13.8635 18.1539 13.0407 19.3007 11.7348 19.3219C11.1137 19.3363 10.6944 19.1577 10.2576 18.9716C9.80187 18.7774 9.32702 18.5752 8.58397 18.5752C7.79593 18.5752 7.29982 18.784 6.82134 18.9853C6.40785 19.1593 6.00754 19.3278 5.44336 19.3512C4.19966 19.3973 3.24919 18.0983 2.43592 16.9354C0.810423 14.5606 -0.455296 10.2428 1.24158 7.30487C1.63331 6.60093 2.20072 6.01047 2.8885 5.59101C3.57628 5.17156 4.36099 4.93742 5.16617 4.9114C5.87154 4.89689 6.54839 5.16876 7.14181 5.40712C7.59563 5.58941 8.00065 5.75209 8.33232 5.75209C8.62387 5.75209 9.0176 5.59583 9.47645 5.41372C10.1993 5.12685 11.0837 4.77584 11.9849 4.87044C12.6756 4.89205 13.3518 5.07442 13.9597 5.40305C14.5676 5.73169 15.0904 6.19754 15.4868 6.76361C14.8629 7.14719 14.3461 7.68236 13.9846 8.31932Z" fill="black"/>
</svg>
