<svg width="20" height="22" viewBox="0 0 20 22" fill="none" xmlns="http://www.w3.org/2000/svg">
<path d="M9.69995 21.75H5.25995C3.99012 21.7877 2.75711 21.3205 1.83114 20.4508C0.905157 19.581 0.361732 18.3797 0.319946 17.11V4.88999C0.361732 3.62029 0.905157 2.41893 1.83114 1.54919C2.75711 0.679442 3.99012 0.21225 5.25995 0.24999H9.69995C10.9708 0.212211 12.2048 0.679093 13.1324 1.54857C14.06 2.41805 14.6056 3.6194 14.6499 4.88999C14.65 5.09249 14.5702 5.28684 14.428 5.43096C14.2857 5.57508 14.0924 5.65736 13.8899 5.65999C13.6865 5.6574 13.4922 5.57544 13.3483 5.4316C13.2045 5.28775 13.1225 5.0934 13.1199 4.88999C13.0785 4.02334 12.6953 3.20844 12.0543 2.62369C11.4133 2.03893 10.5668 1.73196 9.69995 1.76999H5.25995C4.39383 1.73462 3.54875 2.04249 2.90836 2.62671C2.26797 3.21093 1.88402 4.02427 1.83995 4.88999V17.11C1.88402 17.9757 2.26797 18.7891 2.90836 19.3733C3.54875 19.9575 4.39383 20.2654 5.25995 20.23H9.69995C10.5668 20.268 11.4133 19.9611 12.0543 19.3763C12.6953 18.7915 13.0785 17.9766 13.1199 17.11C13.1225 16.9066 13.2045 16.7122 13.3483 16.5684C13.4922 16.4245 13.6865 16.3426 13.8899 16.34C14.0924 16.3426 14.2857 16.4249 14.428 16.569C14.5702 16.7131 14.65 16.9075 14.6499 17.11C14.6056 18.3806 14.06 19.5819 13.1324 20.4514C12.2048 21.3209 10.9708 21.7878 9.69995 21.75V21.75ZM18.9199 10.24H8.85995L10.5299 8.56999C10.6693 8.42475 10.7471 8.23127 10.7471 8.02999C10.7471 7.82871 10.6693 7.63523 10.5299 7.48999C10.4593 7.41864 10.3752 7.36199 10.2825 7.32334C10.1898 7.28468 10.0904 7.26478 9.98995 7.26478C9.88952 7.26478 9.79009 7.28468 9.69741 7.32334C9.60472 7.36199 9.52061 7.41864 9.44995 7.48999L6.44995 10.49C6.37859 10.5607 6.32195 10.6448 6.28329 10.7374C6.24464 10.8301 6.22474 10.9296 6.22474 11.03C6.22474 11.1304 6.24464 11.2298 6.28329 11.3225C6.32195 11.4152 6.37859 11.4993 6.44995 11.57L9.44995 14.57C9.52071 14.6409 9.60495 14.6968 9.69769 14.7346C9.79044 14.7724 9.88981 14.7912 9.98995 14.79C10.09 14.7907 10.1892 14.7716 10.2819 14.7338C10.3746 14.6961 10.4589 14.6404 10.5299 14.57C10.6693 14.4247 10.7471 14.2313 10.7471 14.03C10.7471 13.8287 10.6693 13.6352 10.5299 13.49L8.85995 11.82H18.9199C19.0198 11.82 19.1186 11.8003 19.2108 11.7621C19.303 11.7239 19.3868 11.668 19.4573 11.5974C19.5279 11.5268 19.5839 11.443 19.6221 11.3508C19.6603 11.2586 19.6799 11.1598 19.6799 11.06C19.6799 10.9602 19.6603 10.8614 19.6221 10.7692C19.5839 10.6769 19.5279 10.5932 19.4573 10.5226C19.3868 10.452 19.303 10.396 19.2108 10.3578C19.1186 10.3196 19.0198 10.3 18.9199 10.3V10.24Z" fill="#3E97FF"/>
</svg>
