<svg width="24" height="24" viewBox="0 0 24 24" fill="none" xmlns="http://www.w3.org/2000/svg">
<path opacity="0.3" d="M19.9396 5.55981H4.05963C3.78252 5.5663 3.5094 5.62733 3.25588 5.73941C3.00236 5.85148 2.77341 6.01241 2.5821 6.21301C2.3908 6.4136 2.24089 6.64991 2.14095 6.90846C2.04101 7.167 1.99299 7.44271 1.99963 7.71981C1.99299 7.99692 2.04101 8.27263 2.14095 8.53117C2.24089 8.78972 2.3908 9.02603 2.5821 9.22662C2.77341 9.42721 3.00236 9.58815 3.25588 9.70022C3.5094 9.8123 3.78252 9.87333 4.05963 9.87981H19.9396C20.2167 9.87333 20.4899 9.8123 20.7434 9.70022C20.9969 9.58815 21.2259 9.42721 21.4172 9.22662C21.6085 9.02603 21.7584 8.78972 21.8583 8.53117C21.9583 8.27263 22.0063 7.99692 21.9996 7.71981C22.0063 7.44271 21.9583 7.167 21.8583 6.90846C21.7584 6.64991 21.6085 6.4136 21.4172 6.21301C21.2259 6.01241 20.9969 5.85148 20.7434 5.73941C20.4899 5.62733 20.2167 5.5663 19.9396 5.55981Z" fill="white"/>
<path d="M4.05957 9.88013L5.55957 19.2101C5.68595 19.9798 6.07852 20.6808 6.66882 21.1906C7.25911 21.7005 8.00966 21.987 8.78957 22.0001H15.2996C16.0844 21.9878 16.8396 21.6977 17.4309 21.1815C18.0222 20.6652 18.4115 19.9562 18.5296 19.1801L19.9396 9.88013H4.05957ZM10.4196 17.3701C10.4196 17.569 10.3406 17.7598 10.1999 17.9005C10.0592 18.0411 9.86848 18.1201 9.66957 18.1201C9.47066 18.1201 9.27989 18.0411 9.13924 17.9005C8.99859 17.7598 8.91957 17.569 8.91957 17.3701V13.7601C8.91957 13.5612 8.99859 13.3704 9.13924 13.2298C9.27989 13.0891 9.47066 13.0101 9.66957 13.0101C9.86848 13.0101 10.0592 13.0891 10.1999 13.2298C10.3406 13.3704 10.4196 13.5612 10.4196 13.7601V17.3701ZM15.0696 17.3701C15.0696 17.569 14.9906 17.7598 14.8499 17.9005C14.7092 18.0411 14.5185 18.1201 14.3196 18.1201C14.1207 18.1201 13.9299 18.0411 13.7892 17.9005C13.6486 17.7598 13.5696 17.569 13.5696 17.3701V13.7601C13.5696 13.5612 13.6486 13.3704 13.7892 13.2298C13.9299 13.0891 14.1207 13.0101 14.3196 13.0101C14.5185 13.0101 14.7092 13.0891 14.8499 13.2298C14.9906 13.3704 15.0696 13.5612 15.0696 13.7601V17.3701Z" fill="white"/>
<path d="M17.8992 6.81007C17.773 6.81026 17.6489 6.7782 17.5387 6.71695C17.4284 6.65569 17.3356 6.56727 17.2692 6.46007L15.3192 3.46007C15.2208 3.29598 15.1898 3.10017 15.2327 2.91373C15.2756 2.72729 15.389 2.5647 15.5492 2.46007C15.7133 2.36554 15.9068 2.3357 16.0918 2.37639C16.2768 2.41709 16.4399 2.52539 16.5492 2.68007L18.4992 5.73007C18.5951 5.89478 18.6247 6.08982 18.5819 6.27556C18.5392 6.4613 18.4274 6.62381 18.2692 6.73007C18.1543 6.78671 18.0272 6.81419 17.8992 6.81007Z" fill="white"/>
<path d="M5.99944 6.82055C5.85813 6.82452 5.71885 6.78622 5.59944 6.71055C5.44122 6.60429 5.32938 6.44178 5.28666 6.25604C5.24394 6.07029 5.27354 5.87525 5.36944 5.71055L7.36944 2.71055C7.47407 2.55038 7.63666 2.43696 7.8231 2.39408C8.00954 2.35119 8.20535 2.38218 8.36944 2.48055C8.52579 2.58835 8.63611 2.75079 8.67868 2.93587C8.72125 3.12095 8.69298 3.31527 8.59944 3.48055L6.64944 6.48055C6.57999 6.58883 6.48352 6.67713 6.36953 6.73676C6.25555 6.79638 6.12799 6.82526 5.99944 6.82055Z" fill="white"/>
</svg>
