<svg width="24" height="24" viewBox="0 0 24 24" fill="none" xmlns="http://www.w3.org/2000/svg">
<path d="M7.73 1.97998H4.83C3.26703 1.97998 2 3.24701 2 4.80998V7.70998C2 9.27295 3.26703 10.54 4.83 10.54H7.73C9.29297 10.54 10.56 9.27295 10.56 7.70998V4.80998C10.56 3.24701 9.29297 1.97998 7.73 1.97998Z" fill="white"/>
<path opacity="0.3" d="M19.1699 2.01001H16.2699C14.707 2.01001 13.4399 3.27704 13.4399 4.84001V7.74001C13.4399 9.30298 14.707 10.57 16.2699 10.57H19.1699C20.7329 10.57 21.9999 9.30298 21.9999 7.74001V4.84001C21.9999 3.27704 20.7329 2.01001 19.1699 2.01001Z" fill="white"/>
<path opacity="0.3" d="M7.73 13.43H4.83C3.26703 13.43 2 14.697 2 16.26V19.16C2 20.723 3.26703 21.99 4.83 21.99H7.73C9.29297 21.99 10.56 20.723 10.56 19.16V16.26C10.56 14.697 9.29297 13.43 7.73 13.43Z" fill="white"/>
<path d="M19.1699 13.46H16.2699C14.707 13.46 13.4399 14.727 13.4399 16.29V19.19C13.4399 20.7529 14.707 22.02 16.2699 22.02H19.1699C20.7329 22.02 21.9999 20.7529 21.9999 19.19V16.29C21.9999 14.727 20.7329 13.46 19.1699 13.46Z" fill="white"/>
</svg>
