<svg width="22" height="22" viewBox="0 0 22 22" fill="none" xmlns="http://www.w3.org/2000/svg">
<path d="M14.92 1.65C15.6331 1.65 16.3392 1.79045 16.998 2.06333C17.6568 2.33622 18.2554 2.73619 18.7596 3.24041C19.2638 3.74463 19.6638 4.34323 19.9367 5.00203C20.2095 5.66083 20.35 6.36692 20.35 7.08V14.92C20.35 15.6331 20.2095 16.3392 19.9367 16.998C19.6638 17.6568 19.2638 18.2554 18.7596 18.7596C18.2554 19.2638 17.6568 19.6638 16.998 19.9367C16.3392 20.2095 15.6331 20.35 14.92 20.35H7.08C5.63987 20.35 4.25873 19.7779 3.24041 18.7596C2.22209 17.7413 1.65 16.3601 1.65 14.92V7.08C1.65 5.63987 2.22209 4.25873 3.24041 3.24041C4.25873 2.22209 5.63987 1.65 7.08 1.65H14.92ZM10.07 12.48L7 9.4C6.82065 9.23195 6.5857 9.13584 6.34 9.13C6.15544 9.13182 5.9755 9.18794 5.82262 9.29135C5.66975 9.39476 5.55069 9.54088 5.48031 9.7115C5.40993 9.88212 5.39133 10.0697 5.42685 10.2508C5.46236 10.4319 5.5504 10.5986 5.68 10.73L9.41 14.47C9.59313 14.6331 9.82979 14.7232 10.075 14.7232C10.3202 14.7232 10.5569 14.6331 10.74 14.47L16.34 8.86C16.4696 8.72859 16.5576 8.56193 16.5932 8.38081C16.6287 8.19969 16.6101 8.01212 16.5397 7.8415C16.4693 7.67088 16.3503 7.52475 16.1974 7.42135C16.0445 7.31794 15.8646 7.26182 15.68 7.26C15.4343 7.26584 15.1993 7.36195 15.02 7.53L10.08 12.53M14.92 0.25H7.08C5.26857 0.25 3.53133 0.969587 2.25046 2.25046C0.969587 3.53133 0.25 5.26857 0.25 7.08V14.92C0.25 16.7314 0.969587 18.4687 2.25046 19.7495C3.53133 21.0304 5.26857 21.75 7.08 21.75H14.92C16.7314 21.75 18.4687 21.0304 19.7495 19.7495C21.0304 18.4687 21.75 16.7314 21.75 14.92V7.08C21.75 5.26857 21.0304 3.53133 19.7495 2.25046C18.4687 0.969587 16.7314 0.25 14.92 0.25Z" fill="white"/>
</svg>
