<svg width="24" height="25" viewBox="0 0 24 25" fill="none" xmlns="http://www.w3.org/2000/svg">
<path d="M11.3699 15.3304H9.83986C9.66092 15.3123 9.49017 15.2463 9.3456 15.1393C9.20102 15.0323 9.08798 14.8883 9.01837 14.7225C8.94876 14.5566 8.92516 14.3751 8.95006 14.197C8.97496 14.0188 9.04744 13.8507 9.15986 13.7104L11.3299 11.5404C11.5136 11.3745 11.7523 11.2827 11.9999 11.2827C12.2474 11.2827 12.4861 11.3745 12.6699 11.5404L14.8399 13.7104C14.9523 13.8507 15.0248 14.0188 15.0497 14.197C15.0746 14.3751 15.051 14.5566 14.9814 14.7225C14.9117 14.8883 14.7987 15.0323 14.6541 15.1393C14.5096 15.2463 14.3388 15.3123 14.1599 15.3304H12.6299" fill="white"/>
<path opacity="0.3" d="M19 18.4628C19.7956 18.4628 20.5587 18.1467 21.1213 17.5841C21.6839 17.0215 22 16.2584 22 15.4628C22 14.6671 21.6839 13.9041 21.1213 13.3415C20.5587 12.7789 19.7956 12.4628 19 12.4628H18.81C18.932 12.1433 18.9963 11.8047 19 11.4628C19 10.6671 18.6839 9.90407 18.1213 9.34146C17.5587 8.77885 16.7956 8.46278 16 8.46278C15.4006 8.4644 14.8155 8.64551 14.32 8.98278C13.7683 8.036 12.9209 7.29665 11.9081 6.87845C10.8952 6.46026 9.77306 6.38636 8.71413 6.66814C7.6552 6.94992 6.71815 7.57176 6.0471 8.43803C5.37605 9.3043 5.00816 10.367 5 11.4628C5.00269 11.7985 5.03616 12.1332 5.1 12.4628H5C4.20435 12.4628 3.44129 12.7789 2.87868 13.3415C2.31607 13.9041 2 14.6671 2 15.4628C2 16.2584 2.31607 17.0215 2.87868 17.5841C3.44129 18.1467 4.20435 18.4628 5 18.4628H19Z" fill="white"/>
</svg>
