<svg width="20" height="20" viewBox="0 0 20 20" fill="none" xmlns="http://www.w3.org/2000/svg">
<g opacity="0.3">
<path d="M14.82 20H1C0.734784 20 0.48043 19.8946 0.292893 19.7071C0.105357 19.5196 0 19.2652 0 19V5.18C0 3.80618 0.545748 2.48863 1.51719 1.51719C2.48863 0.545748 3.80618 0 5.18 0H14.82C15.5002 0 16.1738 0.133985 16.8023 0.394304C17.4308 0.654623 18.0018 1.03618 18.4828 1.51719C18.9638 1.99819 19.3454 2.56923 19.6057 3.1977C19.866 3.82617 20 4.49975 20 5.18V14.82C20 15.5002 19.866 16.1738 19.6057 16.8023C19.3454 17.4308 18.9638 18.0018 18.4828 18.4828C18.0018 18.9638 17.4308 19.3454 16.8023 19.6057C16.1738 19.866 15.5002 20 14.82 20Z" fill="white"/>
</g>
<path d="M9.23005 5.74036L9.97005 4.74036C10.1163 4.53774 10.3018 4.36666 10.5156 4.23732C10.7294 4.10799 10.967 4.02305 11.2144 3.98758C11.4617 3.95212 11.7136 3.96685 11.9551 4.03089C12.1967 4.09494 12.4228 4.207 12.6201 4.36036L14.2901 5.65036C14.6843 5.97063 14.942 6.42893 15.0107 6.93223C15.0794 7.43553 14.9541 7.94612 14.6601 8.36036L13.9201 9.36036C13.3752 9.47063 12.8128 9.46065 12.2722 9.33111C11.7316 9.20157 11.2258 8.9556 10.7901 8.61036C10.3427 8.26868 9.97255 7.83642 9.70373 7.34187C9.43491 6.84731 9.2735 6.30158 9.23005 5.74036ZM9.96005 9.74036C9.12767 9.09319 8.49646 8.22267 8.14005 7.23036L5.34005 11.0004C5.1231 11.3079 5.00454 11.674 5.00005 12.0504V14.5704C4.99164 14.7911 5.03486 15.0108 5.12628 15.212C5.21769 15.4131 5.35478 15.5901 5.52664 15.729C5.6985 15.8678 5.90039 15.9647 6.11624 16.0118C6.3321 16.0589 6.55597 16.055 6.77005 16.0004L9.13005 15.2804C9.49053 15.1737 9.80647 14.9526 10.0301 14.6504L12.8201 10.8704C11.7898 10.7701 10.8105 10.3742 10.0001 9.73036L9.96005 9.74036Z" fill="white"/>
</svg>
