<svg width="22" height="22" viewBox="0 0 22 22" fill="none" xmlns="http://www.w3.org/2000/svg">
<path d="M7.71998 10.25H2.71998C2.06033 10.2369 1.43213 9.9656 0.970302 9.49442C0.508471 9.02324 0.249846 8.38973 0.249976 7.72996V2.72996C0.260475 2.06857 0.530602 1.43783 1.00206 0.973854C1.47352 0.509879 2.1085 0.249878 2.76998 0.249961H7.76998C8.43832 0.249961 9.07929 0.51546 9.55188 0.988052C10.0245 1.46064 10.29 2.10162 10.29 2.76996V7.76996C10.2848 8.10176 10.2141 8.42927 10.082 8.73368C9.94988 9.03809 9.75895 9.31341 9.52016 9.54384C9.28137 9.77427 8.99942 9.95527 8.69049 10.0764C8.38157 10.1976 8.05175 10.2566 7.71998 10.25ZM2.71998 1.74996C2.45476 1.74996 2.20041 1.85532 2.01287 2.04285C1.82533 2.23039 1.71998 2.48474 1.71998 2.74996V7.74996C1.71998 8.01518 1.82533 8.26953 2.01287 8.45707C2.20041 8.6446 2.45476 8.74996 2.71998 8.74996H7.71998C7.98519 8.74996 8.23955 8.6446 8.42708 8.45707C8.61462 8.26953 8.71998 8.01518 8.71998 7.74996V2.74996C8.71998 2.48474 8.61462 2.23039 8.42708 2.04285C8.23955 1.85532 7.98519 1.74996 7.71998 1.74996H2.71998ZM19.18 10.25H14.18C13.5116 10.25 12.8707 9.98446 12.3981 9.51187C11.9255 9.03928 11.66 8.39831 11.66 7.72996V2.72996C11.66 2.06162 11.9255 1.42064 12.3981 0.948052C12.8707 0.47546 13.5116 0.209961 14.18 0.209961H19.18C19.8483 0.209961 20.4893 0.47546 20.9619 0.948052C21.4345 1.42064 21.7 2.06162 21.7 2.72996V7.72996C21.7001 8.38973 21.4415 9.02324 20.9796 9.49442C20.5178 9.9656 19.8896 10.2369 19.23 10.25H19.18ZM14.18 1.74996C13.9148 1.74996 13.6604 1.85532 13.4729 2.04285C13.2853 2.23039 13.18 2.48474 13.18 2.74996V7.74996C13.18 8.01518 13.2853 8.26953 13.4729 8.45707C13.6604 8.6446 13.9148 8.74996 14.18 8.74996H19.18C19.4452 8.74996 19.6995 8.6446 19.8871 8.45707C20.0746 8.26953 20.18 8.01518 20.18 7.74996V2.74996C20.18 2.48474 20.0746 2.23039 19.8871 2.04285C19.6995 1.85532 19.4452 1.74996 19.18 1.74996H14.18ZM19.12 21.75H14.27C13.6016 21.75 12.9607 21.4845 12.4881 21.0119C12.0155 20.5393 11.75 19.8983 11.75 19.23V14.23C11.75 13.5616 12.0155 12.9206 12.4881 12.4481C12.9607 11.9755 13.6016 11.71 14.27 11.71H19.22C19.8883 11.71 20.5293 11.9755 21.0019 12.4481C21.4745 12.9206 21.74 13.5616 21.74 14.23V19.23C21.74 19.8983 21.4745 20.5393 21.0019 21.0119C20.5293 21.4845 19.8883 21.75 19.22 21.75H19.12ZM14.17 13.25C13.9048 13.25 13.6504 13.3553 13.4629 13.5429C13.2753 13.7304 13.17 13.9847 13.17 14.25V19.25C13.17 19.5152 13.2753 19.7695 13.4629 19.9571C13.6504 20.1446 13.9048 20.25 14.17 20.25H19.12C19.3852 20.25 19.6395 20.1446 19.8271 19.9571C20.0146 19.7695 20.12 19.5152 20.12 19.25V14.25C20.12 13.9847 20.0146 13.7304 19.8271 13.5429C19.6395 13.3553 19.3852 13.25 19.12 13.25H14.17ZM7.61998 21.75H2.61998C1.95163 21.75 1.31066 21.4845 0.838066 21.0119C0.365475 20.5393 0.0999756 19.8983 0.0999756 19.23V14.23C0.0999756 13.5616 0.365475 12.9206 0.838066 12.4481C1.31066 11.9755 1.95163 11.71 2.61998 11.71H7.61998C8.28832 11.71 8.92929 11.9755 9.40188 12.4481C9.87448 12.9206 10.14 13.5616 10.14 14.23V19.23C10.1405 19.8813 9.88876 20.5076 9.43758 20.9774C8.98641 21.4472 8.37084 21.7241 7.71998 21.75H7.61998ZM2.61998 13.25C2.35476 13.25 2.10041 13.3553 1.91287 13.5429C1.72533 13.7304 1.61998 13.9847 1.61998 14.25V19.25C1.61998 19.5152 1.72533 19.7695 1.91287 19.9571C2.10041 20.1446 2.35476 20.25 2.61998 20.25H7.61998C7.88519 20.25 8.13955 20.1446 8.32708 19.9571C8.51462 19.7695 8.61998 19.5152 8.61998 19.25V14.25C8.61998 13.9847 8.51462 13.7304 8.32708 13.5429C8.13955 13.3553 7.88519 13.25 7.61998 13.25H2.61998Z" fill="white"/>
</svg>
