<svg width="67" height="19" viewBox="0 0 67 19" fill="none" xmlns="http://www.w3.org/2000/svg">
<path d="M0.780839 18.5V1.04545H4.47118V15.4574H11.9541V18.5H0.780839ZM29.7581 9.77273C29.7581 11.6761 29.3973 13.2955 28.6757 14.6307C27.9598 15.9659 26.9825 16.9858 25.7439 17.6903C24.511 18.3892 23.1246 18.7386 21.5848 18.7386C20.0337 18.7386 18.6416 18.3864 17.4087 17.6818C16.1757 16.9773 15.2013 15.9574 14.4854 14.6222C13.7695 13.2869 13.4115 11.6705 13.4115 9.77273C13.4115 7.86932 13.7695 6.25 14.4854 4.91477C15.2013 3.57955 16.1757 2.5625 17.4087 1.86364C18.6416 1.15909 20.0337 0.806818 21.5848 0.806818C23.1246 0.806818 24.511 1.15909 25.7439 1.86364C26.9825 2.5625 27.9598 3.57955 28.6757 4.91477C29.3973 6.25 29.7581 7.86932 29.7581 9.77273ZM26.0166 9.77273C26.0166 8.53977 25.832 7.5 25.4627 6.65341C25.099 5.80682 24.5848 5.16477 23.92 4.72727C23.2553 4.28977 22.4769 4.07102 21.5848 4.07102C20.6928 4.07102 19.9144 4.28977 19.2496 4.72727C18.5848 5.16477 18.0678 5.80682 17.6985 6.65341C17.3348 7.5 17.153 8.53977 17.153 9.77273C17.153 11.0057 17.3348 12.0455 17.6985 12.892C18.0678 13.7386 18.5848 14.3807 19.2496 14.8182C19.9144 15.2557 20.6928 15.4744 21.5848 15.4744C22.4769 15.4744 23.2553 15.2557 23.92 14.8182C24.5848 14.3807 25.099 13.7386 25.4627 12.892C25.832 12.0455 26.0166 11.0057 26.0166 9.77273ZM44.0656 6.6875C43.9463 6.27273 43.7787 5.90625 43.5628 5.58807C43.3469 5.2642 43.0827 4.99148 42.7702 4.76989C42.4634 4.54261 42.1111 4.36932 41.7134 4.25C41.3213 4.13068 40.8867 4.07102 40.4094 4.07102C39.5173 4.07102 38.7333 4.29261 38.0571 4.73579C37.3867 5.17898 36.8639 5.82386 36.4889 6.67045C36.1139 7.51136 35.9264 8.53977 35.9264 9.75568C35.9264 10.9716 36.1111 12.0057 36.4804 12.858C36.8497 13.7102 37.3725 14.3608 38.0486 14.8097C38.7247 15.2528 39.523 15.4744 40.4435 15.4744C41.2787 15.4744 41.9918 15.3267 42.5827 15.0312C43.1793 14.7301 43.6338 14.3068 43.9463 13.7614C44.2645 13.2159 44.4236 12.571 44.4236 11.8267L45.1736 11.9375H40.6736V9.15909H47.9776V11.358C47.9776 12.892 47.6537 14.2102 47.006 15.3125C46.3583 16.4091 45.4662 17.2557 44.3298 17.8523C43.1935 18.4432 41.8923 18.7386 40.4264 18.7386C38.7901 18.7386 37.3526 18.3778 36.1139 17.6562C34.8753 16.929 33.9094 15.8977 33.2162 14.5625C32.5287 13.2216 32.185 11.6307 32.185 9.78977C32.185 8.375 32.3895 7.11364 32.7986 6.00568C33.2134 4.89205 33.7929 3.94886 34.5372 3.17614C35.2815 2.40341 36.148 1.81534 37.1367 1.41193C38.1253 1.00852 39.1963 0.806818 40.3497 0.806818C41.3384 0.806818 42.2588 0.951704 43.1111 1.24148C43.9634 1.52557 44.719 1.92898 45.3781 2.4517C46.0429 2.97443 46.5855 3.59659 47.006 4.31818C47.4264 5.03409 47.6963 5.82386 47.8156 6.6875H44.0656ZM66.7894 9.77273C66.7894 11.6761 66.4286 13.2955 65.707 14.6307C64.9911 15.9659 64.0138 16.9858 62.7752 17.6903C61.5422 18.3892 60.1558 18.7386 58.6161 18.7386C57.0649 18.7386 55.6729 18.3864 54.4399 17.6818C53.207 16.9773 52.2325 15.9574 51.5166 14.6222C50.8007 13.2869 50.4428 11.6705 50.4428 9.77273C50.4428 7.86932 50.8007 6.25 51.5166 4.91477C52.2325 3.57955 53.207 2.5625 54.4399 1.86364C55.6729 1.15909 57.0649 0.806818 58.6161 0.806818C60.1558 0.806818 61.5422 1.15909 62.7752 1.86364C64.0138 2.5625 64.9911 3.57955 65.707 4.91477C66.4286 6.25 66.7894 7.86932 66.7894 9.77273ZM63.0479 9.77273C63.0479 8.53977 62.8632 7.5 62.4939 6.65341C62.1303 5.80682 61.6161 5.16477 60.9513 4.72727C60.2865 4.28977 59.5081 4.07102 58.6161 4.07102C57.724 4.07102 56.9456 4.28977 56.2808 4.72727C55.6161 5.16477 55.099 5.80682 54.7297 6.65341C54.3661 7.5 54.1842 8.53977 54.1842 9.77273C54.1842 11.0057 54.3661 12.0455 54.7297 12.892C55.099 13.7386 55.6161 14.3807 56.2808 14.8182C56.9456 15.2557 57.724 15.4744 58.6161 15.4744C59.5081 15.4744 60.2865 15.2557 60.9513 14.8182C61.6161 14.3807 62.1303 13.7386 62.4939 12.892C62.8632 12.0455 63.0479 11.0057 63.0479 9.77273Z" fill="#0075FF"/>
</svg>
