<svg width="24" height="24" viewBox="0 0 24 24" fill="none" xmlns="http://www.w3.org/2000/svg">
<path opacity="0.3" d="M19.9401 5.56006H4.06012C3.78301 5.56655 3.50989 5.62757 3.25637 5.73965C3.00285 5.85173 2.77389 6.01266 2.58259 6.21325C2.39129 6.41384 2.24138 6.65016 2.14144 6.9087C2.04149 7.16725 1.99347 7.44295 2.00012 7.72006C1.99347 7.99717 2.04149 8.27287 2.14144 8.53142C2.24138 8.78996 2.39129 9.02628 2.58259 9.22687C2.77389 9.42746 3.00285 9.58839 3.25637 9.70047C3.50989 9.81254 3.78301 9.87357 4.06012 9.88006H19.9401C20.2172 9.87357 20.4903 9.81254 20.7439 9.70047C20.9974 9.58839 21.2263 9.42746 21.4176 9.22687C21.6089 9.02628 21.7589 8.78996 21.8588 8.53142C21.9587 8.27287 22.0068 7.99717 22.0001 7.72006C22.0068 7.44295 21.9587 7.16725 21.8588 6.9087C21.7589 6.65016 21.6089 6.41384 21.4176 6.21325C21.2263 6.01266 20.9974 5.85173 20.7439 5.73965C20.4903 5.62757 20.2172 5.56655 19.9401 5.56006Z" fill="#0F0037"/>
<path d="M4.06006 9.88013L5.56006 19.2101C5.68644 19.9798 6.07901 20.6808 6.6693 21.1906C7.2596 21.7005 8.01015 21.987 8.79006 22.0001H15.3001C16.0849 21.9878 16.84 21.6977 17.4314 21.1815C18.0227 20.6652 18.4119 19.9562 18.5301 19.1801L19.9401 9.88013H4.06006ZM10.4201 17.3701C10.4201 17.569 10.341 17.7598 10.2004 17.9005C10.0597 18.0411 9.86897 18.1201 9.67006 18.1201C9.47115 18.1201 9.28038 18.0411 9.13973 17.9005C8.99908 17.7598 8.92006 17.569 8.92006 17.3701V13.7601C8.92006 13.5612 8.99908 13.3704 9.13973 13.2298C9.28038 13.0891 9.47115 13.0101 9.67006 13.0101C9.86897 13.0101 10.0597 13.0891 10.2004 13.2298C10.341 13.3704 10.4201 13.5612 10.4201 13.7601V17.3701ZM15.0701 17.3701C15.0701 17.569 14.991 17.7598 14.8504 17.9005C14.7097 18.0411 14.519 18.1201 14.3201 18.1201C14.1211 18.1201 13.9304 18.0411 13.7897 17.9005C13.6491 17.7598 13.5701 17.569 13.5701 17.3701V13.7601C13.5701 13.5612 13.6491 13.3704 13.7897 13.2298C13.9304 13.0891 14.1211 13.0101 14.3201 13.0101C14.519 13.0101 14.7097 13.0891 14.8504 13.2298C14.991 13.3704 15.0701 13.5612 15.0701 13.7601V17.3701Z" fill="#0F0037"/>
<path d="M17.9001 6.81007C17.774 6.81026 17.6499 6.7782 17.5397 6.71695C17.4294 6.65569 17.3366 6.56727 17.2701 6.46007L15.3201 3.46007C15.2218 3.29598 15.1908 3.10017 15.2337 2.91373C15.2766 2.72729 15.39 2.5647 15.5501 2.46007C15.7143 2.36554 15.9078 2.3357 16.0928 2.37639C16.2777 2.41709 16.4408 2.52539 16.5501 2.68007L18.5001 5.73007C18.596 5.89478 18.6256 6.08982 18.5829 6.27556C18.5402 6.4613 18.4284 6.62381 18.2701 6.73007C18.1553 6.78671 18.0282 6.81419 17.9001 6.81007Z" fill="#0F0037"/>
<path d="M5.99993 6.82006C5.85862 6.82403 5.71934 6.78573 5.59993 6.71006C5.44171 6.6038 5.32987 6.44129 5.28715 6.25555C5.24443 6.0698 5.27403 5.87477 5.36993 5.71006L7.36993 2.71006C7.47455 2.54989 7.63715 2.43647 7.82359 2.39359C8.01003 2.35071 8.20584 2.3817 8.36993 2.48006C8.52628 2.58787 8.6366 2.7503 8.67917 2.93538C8.72173 3.12047 8.69347 3.31478 8.59993 3.48006L6.64993 6.48006C6.58048 6.58834 6.48401 6.67665 6.37002 6.73627C6.25604 6.79589 6.12848 6.82477 5.99993 6.82006Z" fill="#0F0037"/>
</svg>
