<svg width="20" height="20" viewBox="0 0 20 20" fill="none" xmlns="http://www.w3.org/2000/svg">
<g id="communication">
<g id="message-edit">
<g id="Group" opacity="0.3">
<path id="Vector" d="M14.82 20H1C0.734784 20 0.48043 19.8946 0.292893 19.7071C0.105357 19.5196 0 19.2652 0 19V5.18C0 3.80618 0.545748 2.48863 1.51719 1.51719C2.48863 0.545748 3.80618 0 5.18 0H14.82C15.5002 0 16.1738 0.133985 16.8023 0.394304C17.4308 0.654623 18.0018 1.03618 18.4828 1.51719C18.9638 1.99819 19.3454 2.56923 19.6057 3.1977C19.866 3.82617 20 4.49975 20 5.18V14.82C20 15.5002 19.866 16.1738 19.6057 16.8023C19.3454 17.4308 18.9638 18.0018 18.4828 18.4828C18.0018 18.9638 17.4308 19.3454 16.8023 19.6057C16.1738 19.866 15.5002 20 14.82 20Z" fill="#181C32"/>
</g>
<path id="Vector_2" d="M9.23005 5.73988L9.97005 4.73988C10.1163 4.53726 10.3018 4.36617 10.5156 4.23684C10.7294 4.1075 10.967 4.02256 11.2144 3.98709C11.4617 3.95163 11.7136 3.96636 11.9551 4.03041C12.1967 4.09445 12.4228 4.20651 12.6201 4.35988L14.2901 5.64988C14.6843 5.97014 14.942 6.42844 15.0107 6.93174C15.0794 7.43504 14.9541 7.94564 14.6601 8.35988L13.9201 9.35988C13.3752 9.47014 12.8128 9.46016 12.2722 9.33062C11.7316 9.20108 11.2258 8.95511 10.7901 8.60988C10.3427 8.26819 9.97255 7.83594 9.70373 7.34138C9.43491 6.84682 9.2735 6.30109 9.23005 5.73988ZM9.96005 9.73988C9.12767 9.0927 8.49646 8.22219 8.14005 7.22988L5.34005 10.9999C5.1231 11.3074 5.00454 11.6735 5.00005 12.0499V14.5699C4.99164 14.7907 5.03486 15.0103 5.12628 15.2115C5.21769 15.4126 5.35478 15.5897 5.52664 15.7285C5.6985 15.8674 5.90039 15.9642 6.11624 16.0113C6.3321 16.0584 6.55597 16.0545 6.77005 15.9999L9.13005 15.2799C9.49053 15.1732 9.80647 14.9521 10.0301 14.6499L12.8201 10.8699C11.7898 10.7696 10.8105 10.3737 10.0001 9.72988L9.96005 9.73988Z" fill="#181C32"/>
</g>
</g>
</svg>
