<svg width="6" height="10" viewBox="0 0 6 10" fill="none" xmlns="http://www.w3.org/2000/svg">
<path d="M0.893322 9.66664C0.760906 9.66741 0.631259 9.62873 0.520913 9.55553C0.410567 9.48233 0.324519 9.37793 0.273742 9.25563C0.222964 9.13334 0.209756 8.99869 0.235803 8.86886C0.261849 8.73903 0.325969 8.61989 0.419989 8.52664L3.89999 4.99998L0.419989 1.55331C0.35783 1.49115 0.308522 1.41736 0.274882 1.33614C0.241242 1.25493 0.223927 1.16788 0.223927 1.07998C0.223927 0.992072 0.241242 0.905026 0.274882 0.823812C0.308522 0.742597 0.35783 0.668804 0.419989 0.606645C0.482148 0.544486 0.555941 0.495179 0.637156 0.461538C0.71837 0.427898 0.805416 0.410583 0.893322 0.410583C0.981228 0.410583 1.06827 0.427898 1.14949 0.461538C1.2307 0.495179 1.3045 0.544486 1.36666 0.606645L5.33332 4.55998C5.45749 4.68489 5.52718 4.85385 5.52718 5.02998C5.52718 5.2061 5.45749 5.37507 5.33332 5.49998L1.38666 9.44664C1.32433 9.51571 1.24823 9.57096 1.16327 9.60885C1.0783 9.64674 0.986351 9.66642 0.893322 9.66664Z" fill="#A1A5B7"/>
</svg>
