<svg width="27" height="27" viewBox="0 0 27 27" fill="none" xmlns="http://www.w3.org/2000/svg">
<path fill-rule="evenodd" clip-rule="evenodd" d="M22.68 13.7174C22.68 13.0393 22.6192 12.3873 22.5062 11.7614H13.5V15.4604H18.6464C18.4247 16.6557 17.751 17.6684 16.7382 18.3465V20.7458H19.8286C21.6368 19.0811 22.68 16.6296 22.68 13.7174Z" fill="#4285F4"/>
<path fill-rule="evenodd" clip-rule="evenodd" d="M13.5 23.0625C16.0819 23.0625 18.2465 22.2063 19.8286 20.7458L16.7382 18.3465C15.8819 18.9202 14.7866 19.2593 13.5 19.2593C11.0094 19.2593 8.9013 17.5771 8.14934 15.3169H4.95459V17.7945C6.52806 20.9197 9.76193 23.0625 13.5 23.0625Z" fill="#34A853"/>
<path fill-rule="evenodd" clip-rule="evenodd" d="M8.14935 15.3169C7.9581 14.7432 7.84944 14.1303 7.84944 13.5001C7.84944 12.8698 7.9581 12.2569 8.14935 11.6832V9.20563H4.9546C4.30696 10.4966 3.9375 11.957 3.9375 13.5001C3.9375 15.0431 4.30696 16.5036 4.9546 17.7945L8.14935 15.3169Z" fill="#FBBC05"/>
<path fill-rule="evenodd" clip-rule="evenodd" d="M13.5 7.7408C14.904 7.7408 16.1645 8.22328 17.1555 9.17083L19.8982 6.42813C18.2421 4.88509 16.0775 3.93753 13.5 3.93753C9.76193 3.93753 6.52806 6.0804 4.95459 9.20561L8.14934 11.6832C8.9013 9.42294 11.0094 7.7408 13.5 7.7408Z" fill="#EA4335"/>
</svg>
