<svg width="16" height="16" viewBox="0 0 16 16" fill="none" xmlns="http://www.w3.org/2000/svg">
<path opacity="0.3" d="M13.6733 5.33334L9.83997 2C9.32973 1.56164 8.67932 1.32062 8.00663 1.32062C7.33395 1.32062 6.68354 1.56164 6.1733 2L2.3333 5.33334C2.01704 5.60991 1.76403 5.95134 1.59148 6.33441C1.41893 6.71748 1.33087 7.1332 1.3333 7.55334V13.1333C1.33327 13.5366 1.49207 13.9236 1.77531 14.2106C2.05855 14.4975 2.44344 14.6614 2.84663 14.6667H5.1133C5.31658 14.6702 5.51852 14.6331 5.70728 14.5576C5.89603 14.482 6.06779 14.3696 6.21248 14.2267C6.35717 14.0839 6.47188 13.9136 6.54987 13.7258C6.62785 13.5381 6.66755 13.3366 6.66663 13.1333V10.2533C6.66139 9.92264 6.77174 9.60049 6.97864 9.34246C7.18555 9.08444 7.47603 8.90673 7.79997 8.84C7.99498 8.80223 8.19597 8.8085 8.38825 8.85837C8.58053 8.90824 8.75924 9.00044 8.91131 9.12823C9.06339 9.25603 9.18499 9.41619 9.26722 9.597C9.34946 9.77782 9.39026 9.97473 9.38663 10.1733V13.1333C9.38482 13.5348 9.54122 13.9208 9.82197 14.2078C10.1027 14.4948 10.4852 14.6597 10.8866 14.6667H13.1533C13.5565 14.6614 13.9414 14.4975 14.2246 14.2106C14.5079 13.9236 14.6667 13.5366 14.6666 13.1333V7.54667C14.6681 7.12831 14.5802 6.71446 14.4089 6.33277C14.2376 5.95108 13.9868 5.61035 13.6733 5.33334Z" fill="#7E8299"/>
</svg>
