<svg width="28" height="28" viewBox="0 0 28 28" fill="none" xmlns="http://www.w3.org/2000/svg">
<mask id="path-1-outside-1_1142_3777" maskUnits="userSpaceOnUse" x="2.5" y="3.66675" width="23" height="20" fill="black">
<rect fill="white" x="2.5" y="3.66675" width="23" height="20"/>
<path d="M4.66667 22.1667H10.1185V12.8334H4.66667V22.1667ZM11.2852 22.1667H16.7148V5.83341H11.2852V22.1667ZM17.8815 22.1667H23.3333V15.1667H17.8815V22.1667ZM3.5 21.4481V13.5521C3.5 13.0333 3.68472 12.5896 4.05417 12.2209C4.42361 11.8522 4.86694 11.6675 5.38417 11.6667H10.1185V6.55208C10.1185 6.0333 10.3032 5.58958 10.6727 5.22091C11.0421 4.85225 11.4854 4.66753 12.0027 4.66675H15.9973C16.5153 4.66675 16.9587 4.85147 17.3273 5.22091C17.696 5.59036 17.8807 6.03369 17.8815 6.55091V14.0001H22.6158C23.1338 14.0001 23.5772 14.1848 23.9458 14.5542C24.3145 14.9237 24.4992 15.367 24.5 15.8842V21.4492C24.5 21.9672 24.3153 22.4106 23.9458 22.7792C23.5764 23.1479 23.1331 23.3326 22.6158 23.3334H5.38417C4.86617 23.3334 4.42283 23.1487 4.05417 22.7792C3.6855 22.4098 3.50078 21.9669 3.5 21.4504"/>
</mask>
<path d="M4.66667 22.1667H10.1185V12.8334H4.66667V22.1667ZM11.2852 22.1667H16.7148V5.83341H11.2852V22.1667ZM17.8815 22.1667H23.3333V15.1667H17.8815V22.1667ZM3.5 21.4481V13.5521C3.5 13.0333 3.68472 12.5896 4.05417 12.2209C4.42361 11.8522 4.86694 11.6675 5.38417 11.6667H10.1185V6.55208C10.1185 6.0333 10.3032 5.58958 10.6727 5.22091C11.0421 4.85225 11.4854 4.66753 12.0027 4.66675H15.9973C16.5153 4.66675 16.9587 4.85147 17.3273 5.22091C17.696 5.59036 17.8807 6.03369 17.8815 6.55091V14.0001H22.6158C23.1338 14.0001 23.5772 14.1848 23.9458 14.5542C24.3145 14.9237 24.4992 15.367 24.5 15.8842V21.4492C24.5 21.9672 24.3153 22.4106 23.9458 22.7792C23.5764 23.1479 23.1331 23.3326 22.6158 23.3334H5.38417C4.86617 23.3334 4.42283 23.1487 4.05417 22.7792C3.6855 22.4098 3.50078 21.9669 3.5 21.4504" fill="#858585"/>
<path d="M4.66667 22.1667H4.56667V22.2667H4.66667V22.1667ZM10.1185 22.1667V22.2667H10.2185V22.1667H10.1185ZM10.1185 12.8334H10.2185V12.7334H10.1185V12.8334ZM4.66667 12.8334V12.7334H4.56667V12.8334H4.66667ZM11.2852 22.1667H11.1852V22.2667H11.2852V22.1667ZM16.7148 22.1667V22.2667H16.8148V22.1667H16.7148ZM16.7148 5.83341H16.8148V5.73341H16.7148V5.83341ZM11.2852 5.83341V5.73341H11.1852V5.83341H11.2852ZM17.8815 22.1667H17.7815V22.2667H17.8815V22.1667ZM23.3333 22.1667V22.2667H23.4333V22.1667H23.3333ZM23.3333 15.1667H23.4333V15.0667H23.3333V15.1667ZM17.8815 15.1667V15.0667H17.7815V15.1667H17.8815ZM5.38417 11.6667V11.5667L5.38402 11.5667L5.38417 11.6667ZM10.1185 11.6667V11.7667H10.2185V11.6667H10.1185ZM12.0027 4.66675V4.56675L12.0025 4.56675L12.0027 4.66675ZM17.8815 6.55091H17.9815L17.9815 6.55076L17.8815 6.55091ZM17.8815 14.0001H17.7815V14.1001H17.8815V14.0001ZM24.5 15.8842H24.6V15.8841L24.5 15.8842ZM22.6158 23.3334V23.4334H22.616L22.6158 23.3334ZM4.66667 22.1667V22.2667H10.1185V22.1667V22.0667H4.66667V22.1667ZM10.1185 22.1667H10.2185V12.8334H10.1185H10.0185V22.1667H10.1185ZM10.1185 12.8334V12.7334H4.66667V12.8334V12.9334H10.1185V12.8334ZM4.66667 12.8334H4.56667V22.1667H4.66667H4.76667V12.8334H4.66667ZM11.2852 22.1667V22.2667H16.7148V22.1667V22.0667H11.2852V22.1667ZM16.7148 22.1667H16.8148V5.83341H16.7148H16.6148V22.1667H16.7148ZM16.7148 5.83341V5.73341H11.2852V5.83341V5.93341H16.7148V5.83341ZM11.2852 5.83341H11.1852V22.1667H11.2852H11.3852V5.83341H11.2852ZM17.8815 22.1667V22.2667H23.3333V22.1667V22.0667H17.8815V22.1667ZM23.3333 22.1667H23.4333V15.1667H23.3333H23.2333V22.1667H23.3333ZM23.3333 15.1667V15.0667H17.8815V15.1667V15.2667H23.3333V15.1667ZM17.8815 15.1667H17.7815V22.1667H17.8815H17.9815V15.1667H17.8815ZM3.5 21.4481H3.6V13.5521H3.5H3.4V21.4481H3.5ZM3.5 13.5521H3.6C3.6 13.06 3.77403 12.6417 4.1248 12.2917L4.05417 12.2209L3.98353 12.1501C3.59542 12.5374 3.4 13.0066 3.4 13.5521H3.5ZM4.05417 12.2209L4.1248 12.2917C4.47573 11.9415 4.8938 11.7675 5.38432 11.7667L5.38417 11.6667L5.38402 11.5667C4.84009 11.5676 4.37149 11.763 3.98353 12.1501L4.05417 12.2209ZM5.38417 11.6667V11.7667H10.1185V11.6667V11.5667H5.38417V11.6667ZM10.1185 11.6667H10.2185V6.55208H10.1185H10.0185V11.6667H10.1185ZM10.1185 6.55208H10.2185C10.2185 6.06004 10.3925 5.64173 10.7433 5.2917L10.6727 5.22091L10.602 5.15013C10.2139 5.53743 10.0185 6.00656 10.0185 6.55208H10.1185ZM10.6727 5.22091L10.7433 5.2917C11.0942 4.94151 11.5123 4.76749 12.0028 4.76675L12.0027 4.66675L12.0025 4.56675C11.4586 4.56757 10.99 4.76298 10.602 5.15013L10.6727 5.22091ZM12.0027 4.66675V4.76675H15.9973V4.66675V4.56675H12.0027V4.66675ZM15.9973 4.66675V4.76675C16.4885 4.76675 16.9065 4.94075 17.2565 5.29155L17.3273 5.22091L17.3981 5.15028C17.0109 4.76219 16.5421 4.56675 15.9973 4.56675V4.66675ZM17.3273 5.22091L17.2565 5.29155C17.6067 5.64248 17.7808 6.06054 17.7815 6.55106L17.8815 6.55091L17.9815 6.55076C17.9807 6.00684 17.7853 5.53824 17.3981 5.15028L17.3273 5.22091ZM17.8815 6.55091H17.7815V14.0001H17.8815H17.9815V6.55091H17.8815ZM17.8815 14.0001V14.1001H22.6158V14.0001V13.9001H17.8815V14.0001ZM22.6158 14.0001V14.1001C23.107 14.1001 23.525 14.2741 23.875 14.6249L23.9458 14.5542L24.0166 14.4836C23.6294 14.0955 23.1606 13.9001 22.6158 13.9001V14.0001ZM23.9458 14.5542L23.875 14.6249C24.2252 14.9758 24.3993 15.3939 24.4 15.8844L24.5 15.8842L24.6 15.8841C24.5992 15.3402 24.4038 14.8716 24.0166 14.4836L23.9458 14.5542ZM24.5 15.8842H24.4V21.4492H24.5H24.6V15.8842H24.5ZM24.5 21.4492H24.4C24.4 21.9405 24.226 22.3584 23.8752 22.7085L23.9458 22.7792L24.0165 22.85C24.4046 22.4628 24.6 21.994 24.6 21.4492H24.5ZM23.9458 22.7792L23.8752 22.7085C23.5243 23.0586 23.1062 23.2327 22.6157 23.2334L22.6158 23.3334L22.616 23.4334C23.1599 23.4326 23.6285 23.2372 24.0165 22.85L23.9458 22.7792ZM22.6158 23.3334V23.2334H5.38417V23.3334V23.4334H22.6158V23.3334ZM5.38417 23.3334V23.2334C4.89295 23.2334 4.47502 23.0594 4.12495 22.7086L4.05417 22.7792L3.98338 22.8499C4.37065 23.238 4.83938 23.4334 5.38417 23.4334V23.3334ZM4.05417 22.7792L4.12495 22.7086C3.77473 22.3577 3.60074 21.94 3.6 21.4503L3.5 21.4504L3.4 21.4506C3.40082 21.9938 3.59627 22.462 3.98338 22.8499L4.05417 22.7792Z" fill="#858585" mask="url(#path-1-outside-1_1142_3777)"/>
</svg>
