<svg width="22" height="20" viewBox="0 0 22 20" fill="none" xmlns="http://www.w3.org/2000/svg">
<mask id="path-1-outside-1_2_1539" maskUnits="userSpaceOnUse" x="-0.5" y="-0.333328" width="23" height="20" fill="black">
<rect fill="white" x="-0.5" y="-0.333328" width="23" height="20"/>
<path d="M1.66667 18.1667H7.1185V8.83334H1.66667V18.1667ZM8.28517 18.1667H13.7148V1.83334H8.28517V18.1667ZM14.8815 18.1667H20.3333V11.1667H14.8815V18.1667ZM0.5 17.448V9.552C0.5 9.03323 0.684722 8.58951 1.05417 8.22084C1.42361 7.85217 1.86694 7.66745 2.38417 7.66667H7.1185V2.55201C7.1185 2.03323 7.30322 1.5895 7.67267 1.22084C8.04211 0.852172 8.48544 0.66745 9.00267 0.666672H12.9973C13.5153 0.666672 13.9587 0.851394 14.3273 1.22084C14.696 1.59028 14.8807 2.03362 14.8815 2.55084V10H19.6158C20.1338 10 20.5772 10.1847 20.9458 10.5542C21.3145 10.9236 21.4992 11.3669 21.5 11.8842V17.4492C21.5 17.9672 21.3153 18.4105 20.9458 18.7792C20.5764 19.1478 20.1331 19.3326 19.6158 19.3333H2.38417C1.86617 19.3333 1.42283 19.1486 1.05417 18.7792C0.6855 18.4097 0.500778 17.9668 0.5 17.4503"/>
</mask>
<path d="M1.66667 18.1667H7.1185V8.83334H1.66667V18.1667ZM8.28517 18.1667H13.7148V1.83334H8.28517V18.1667ZM14.8815 18.1667H20.3333V11.1667H14.8815V18.1667ZM0.5 17.448V9.552C0.5 9.03323 0.684722 8.58951 1.05417 8.22084C1.42361 7.85217 1.86694 7.66745 2.38417 7.66667H7.1185V2.55201C7.1185 2.03323 7.30322 1.5895 7.67267 1.22084C8.04211 0.852172 8.48544 0.66745 9.00267 0.666672H12.9973C13.5153 0.666672 13.9587 0.851394 14.3273 1.22084C14.696 1.59028 14.8807 2.03362 14.8815 2.55084V10H19.6158C20.1338 10 20.5772 10.1847 20.9458 10.5542C21.3145 10.9236 21.4992 11.3669 21.5 11.8842V17.4492C21.5 17.9672 21.3153 18.4105 20.9458 18.7792C20.5764 19.1478 20.1331 19.3326 19.6158 19.3333H2.38417C1.86617 19.3333 1.42283 19.1486 1.05417 18.7792C0.6855 18.4097 0.500778 17.9668 0.5 17.4503" fill="#032E61"/>
<path d="M1.66667 18.1667H1.56667V18.2667H1.66667V18.1667ZM7.1185 18.1667V18.2667H7.2185V18.1667H7.1185ZM7.1185 8.83334H7.2185V8.73334H7.1185V8.83334ZM1.66667 8.83334V8.73334H1.56667V8.83334H1.66667ZM8.28517 18.1667H8.18517V18.2667H8.28517V18.1667ZM13.7148 18.1667V18.2667H13.8148V18.1667H13.7148ZM13.7148 1.83334H13.8148V1.73334H13.7148V1.83334ZM8.28517 1.83334V1.73334H8.18517V1.83334H8.28517ZM14.8815 18.1667H14.7815V18.2667H14.8815V18.1667ZM20.3333 18.1667V18.2667H20.4333V18.1667H20.3333ZM20.3333 11.1667H20.4333V11.0667H20.3333V11.1667ZM14.8815 11.1667V11.0667H14.7815V11.1667H14.8815ZM2.38417 7.66667V7.56667L2.38402 7.56667L2.38417 7.66667ZM7.1185 7.66667V7.76667H7.2185V7.66667H7.1185ZM9.00267 0.666672V0.566672L9.00252 0.566672L9.00267 0.666672ZM14.8815 2.55084H14.9815L14.9815 2.55069L14.8815 2.55084ZM14.8815 10H14.7815V10.1H14.8815V10ZM21.5 11.8842H21.6V11.884L21.5 11.8842ZM19.6158 19.3333V19.4333H19.616L19.6158 19.3333ZM1.66667 18.2667H7.1185V18.0667H1.66667V18.2667ZM7.2185 18.1667V8.83334H7.0185V18.1667H7.2185ZM7.1185 8.73334H1.66667V8.93334H7.1185V8.73334ZM1.56667 8.83334V18.1667H1.76667V8.83334H1.56667ZM8.28517 18.2667H13.7148V18.0667H8.28517V18.2667ZM13.8148 18.1667V1.83334H13.6148V18.1667H13.8148ZM13.7148 1.73334H8.28517V1.93334H13.7148V1.73334ZM8.18517 1.83334V18.1667H8.38517V1.83334H8.18517ZM14.8815 18.2667H20.3333V18.0667H14.8815V18.2667ZM20.4333 18.1667V11.1667H20.2333V18.1667H20.4333ZM20.3333 11.0667H14.8815V11.2667H20.3333V11.0667ZM14.7815 11.1667V18.1667H14.9815V11.1667H14.7815ZM0.6 17.448V9.552H0.4V17.448H0.6ZM0.6 9.552C0.6 9.05997 0.774029 8.64166 1.1248 8.29162L0.98353 8.15005C0.595415 8.53735 0.4 9.00649 0.4 9.552H0.6ZM1.1248 8.29162C1.47573 7.94144 1.8938 7.76741 2.38432 7.76667L2.38402 7.56667C1.84009 7.56749 1.37149 7.76291 0.98353 8.15005L1.1248 8.29162ZM2.38417 7.76667H7.1185V7.56667H2.38417V7.76667ZM7.2185 7.66667V2.55201H7.0185V7.66667H7.2185ZM7.2185 2.55201C7.2185 2.05997 7.39253 1.64166 7.7433 1.29162L7.60203 1.15005C7.21391 1.53735 7.0185 2.00649 7.0185 2.55201H7.2185ZM7.7433 1.29162C8.09423 0.941437 8.5123 0.767409 9.00282 0.766672L9.00252 0.566672C8.45859 0.56749 7.98999 0.762906 7.60203 1.15005L7.7433 1.29162ZM9.00267 0.766672H12.9973V0.566672H9.00267V0.766672ZM12.9973 0.766672C13.4885 0.766672 13.9065 0.940669 14.2565 1.29147L14.3981 1.1502C14.0109 0.762119 13.5421 0.566672 12.9973 0.566672V0.766672ZM14.2565 1.29147C14.6067 1.6424 14.7808 2.06047 14.7815 2.55099L14.9815 2.55069C14.9807 2.00676 14.7853 1.53817 14.3981 1.1502L14.2565 1.29147ZM14.7815 2.55084V10H14.9815V2.55084H14.7815ZM14.8815 10.1H19.6158V9.9H14.8815V10.1ZM19.6158 10.1C20.107 10.1 20.525 10.274 20.875 10.6248L21.0166 10.4835C20.6294 10.0955 20.1606 9.9 19.6158 9.9V10.1ZM20.875 10.6248C21.2252 10.9757 21.3993 11.3938 21.4 11.8843L21.6 11.884C21.5992 11.3401 21.4038 10.8715 21.0166 10.4835L20.875 10.6248ZM21.4 11.8842V17.4492H21.6V11.8842H21.4ZM21.4 17.4492C21.4 17.9404 21.226 18.3583 20.8752 18.7084L21.0165 18.85C21.4046 18.4627 21.6 17.994 21.6 17.4492H21.4ZM20.8752 18.7084C20.5243 19.0586 20.1062 19.2326 19.6157 19.2333L19.616 19.4333C20.1599 19.4325 20.6285 19.2371 21.0165 18.85L20.8752 18.7084ZM19.6158 19.2333H2.38417V19.4333H19.6158V19.2333ZM2.38417 19.2333C1.89295 19.2333 1.47502 19.0593 1.12495 18.7085L0.983381 18.8498C1.37065 19.2379 1.83938 19.4333 2.38417 19.4333V19.2333ZM1.12495 18.7085C0.774734 18.3576 0.600737 17.9399 0.6 17.4502L0.4 17.4505C0.400818 17.9937 0.596266 18.4619 0.983381 18.8498L1.12495 18.7085Z" fill="#032E61" mask="url(#path-1-outside-1_2_1539)"/>
</svg>
