<svg width="15" height="18" viewBox="0 0 15 18" fill="none" xmlns="http://www.w3.org/2000/svg">
<path d="M7.49746 17.0626H4.16746C3.21435 17.091 2.28879 16.7408 1.59312 16.0887C0.897441 15.4366 0.488235 14.5356 0.454956 13.5826V4.41763C0.488235 3.46469 0.897441 2.56367 1.59312 1.91157C2.28879 1.25946 3.21435 0.909296 4.16746 0.93763H7.49746C8.44983 0.909325 9.37458 1.25972 10.0691 1.91203C10.7635 2.56434 11.1711 3.46535 11.2025 4.41763C11.2025 4.5688 11.1424 4.71378 11.0355 4.82068C10.9286 4.92758 10.7836 4.98763 10.6325 4.98763C10.4813 4.98763 10.3363 4.92758 10.2294 4.82068C10.1225 4.71378 10.0625 4.5688 10.0625 4.41763C10.0294 3.76834 9.74144 3.15833 9.26115 2.72017C8.78085 2.28201 8.14704 2.0511 7.49746 2.07763H4.16746C3.51735 2.04911 2.88243 2.27934 2.4017 2.7179C1.92096 3.15647 1.63357 3.76765 1.60246 4.41763V13.5826C1.63357 14.2326 1.92096 14.8438 2.4017 15.2824C2.88243 15.7209 3.51735 15.9511 4.16746 15.9226H7.49746C8.14704 15.9492 8.78085 15.7183 9.26115 15.2801C9.74144 14.8419 10.0294 14.2319 10.0625 13.5826C10.0625 13.4315 10.1225 13.2865 10.2294 13.1796C10.3363 13.0727 10.4813 13.0126 10.6325 13.0126C10.7836 13.0126 10.9286 13.0727 11.0355 13.1796C11.1424 13.2865 11.2025 13.4315 11.2025 13.5826C11.1711 14.5349 10.7635 15.4359 10.0691 16.0882C9.37458 16.7405 8.44983 17.0909 7.49746 17.0626ZM4.90996 9.00013C4.90996 9.07498 4.9247 9.1491 4.95334 9.21826C4.98199 9.28741 5.02398 9.35025 5.07691 9.40318C5.12983 9.45611 5.19267 9.4981 5.26183 9.52674C5.33098 9.55539 5.4051 9.57013 5.47996 9.57013H13.0325L11.75 10.8226C11.6964 10.8756 11.654 10.9387 11.625 11.0082C11.596 11.0777 11.581 11.1523 11.581 11.2276C11.581 11.3029 11.596 11.3775 11.625 11.447C11.654 11.5166 11.6964 11.5796 11.75 11.6326C11.803 11.6858 11.8662 11.7278 11.9358 11.7561C12.0053 11.7844 12.0799 11.7986 12.155 11.7976C12.2289 11.7984 12.3023 11.7842 12.3706 11.7558C12.4389 11.7275 12.5008 11.6856 12.5525 11.6326L14.8025 9.38263C14.856 9.32963 14.8985 9.26655 14.9274 9.19703C14.9564 9.12752 14.9714 9.05295 14.9714 8.97763C14.9714 8.90231 14.9564 8.82774 14.9274 8.75822C14.8985 8.68871 14.856 8.62563 14.8025 8.57263L12.5525 6.32263C12.5001 6.26934 12.4377 6.22701 12.3688 6.19812C12.2999 6.16922 12.2259 6.15434 12.1512 6.15434C12.0765 6.15434 12.0025 6.16922 11.9337 6.19812C11.8648 6.22701 11.8023 6.26934 11.75 6.32263C11.6964 6.37563 11.654 6.43871 11.625 6.50822C11.596 6.57774 11.581 6.65231 11.581 6.72763C11.581 6.80295 11.596 6.87752 11.625 6.94704C11.654 7.01655 11.6964 7.07963 11.75 7.13263L13.0025 8.38513H5.47996C5.40116 8.38488 5.32317 8.40098 5.25091 8.43239C5.17865 8.46381 5.11368 8.50987 5.06012 8.56766C5.00656 8.62545 4.96556 8.69372 4.93971 8.76816C4.91387 8.84259 4.90374 8.92158 4.90996 9.00013Z" fill="#F5F4F7"/>
</svg>
