<svg width="87" height="24" viewBox="0 0 87 24" fill="none" xmlns="http://www.w3.org/2000/svg">
<path d="M0.959517 23V0.454545H5.72621V19.07H15.3917V23H0.959517ZM38.3885 11.7273C38.3885 14.1858 37.9225 16.2775 36.9904 18.0021C36.0657 19.7268 34.8034 21.0442 33.2035 21.9542C31.6109 22.8569 29.8202 23.3082 27.8313 23.3082C25.8278 23.3082 24.0297 22.8532 22.4371 21.9432C20.8446 21.0331 19.5859 19.7158 18.6612 17.9911C17.7365 16.2665 17.2741 14.1785 17.2741 11.7273C17.2741 9.2687 17.7365 7.17708 18.6612 5.45242C19.5859 3.72775 20.8446 2.41406 22.4371 1.51136C24.0297 0.601325 25.8278 0.146306 27.8313 0.146306C29.8202 0.146306 31.6109 0.601325 33.2035 1.51136C34.8034 2.41406 36.0657 3.72775 36.9904 5.45242C37.9225 7.17708 38.3885 9.2687 38.3885 11.7273ZM33.5558 11.7273C33.5558 10.1347 33.3172 8.79167 32.8402 7.69815C32.3705 6.60464 31.7063 5.77533 30.8477 5.21023C29.989 4.64512 28.9835 4.36257 27.8313 4.36257C26.6791 4.36257 25.6737 4.64512 24.815 5.21023C23.9563 5.77533 23.2885 6.60464 22.8114 7.69815C22.3417 8.79167 22.1069 10.1347 22.1069 11.7273C22.1069 13.3198 22.3417 14.6629 22.8114 15.7564C23.2885 16.8499 23.9563 17.6792 24.815 18.2443C25.6737 18.8094 26.6791 19.092 27.8313 19.092C28.9835 19.092 29.989 18.8094 30.8477 18.2443C31.7063 17.6792 32.3705 16.8499 32.8402 15.7564C33.3172 14.6629 33.5558 13.3198 33.5558 11.7273ZM56.8691 7.74219C56.7149 7.20644 56.4984 6.73307 56.2196 6.32209C55.9407 5.90376 55.5994 5.55149 55.1958 5.26527C54.7995 4.97171 54.3444 4.74787 53.8307 4.59375C53.3243 4.43963 52.7629 4.36257 52.1464 4.36257C50.9942 4.36257 49.9814 4.64879 49.108 5.22123C48.242 5.79368 47.5669 6.62666 47.0825 7.72017C46.5981 8.80634 46.3559 10.1347 46.3559 11.7053C46.3559 13.2758 46.5944 14.6115 47.0715 15.7124C47.5485 16.8132 48.2237 17.6535 49.097 18.2333C49.9704 18.8058 51.0015 19.092 52.1904 19.092C53.2693 19.092 54.1903 18.9012 54.9536 18.5195C55.7242 18.1306 56.3113 17.5838 56.7149 16.8793C57.1259 16.1747 57.3314 15.3417 57.3314 14.3803L58.3002 14.5234H52.4877V10.9347H61.922V13.7749C61.922 15.7564 61.5036 17.459 60.667 18.8828C59.8303 20.2992 58.6781 21.3928 57.2103 22.1634C55.7425 22.9266 54.0619 23.3082 52.1684 23.3082C50.0548 23.3082 48.198 22.8422 46.5981 21.9102C44.9982 20.9708 43.7506 19.6387 42.8552 17.9141C41.9672 16.1821 41.5232 14.1271 41.5232 11.7493C41.5232 9.92187 41.7874 8.29261 42.3158 6.8615C42.8515 5.42306 43.6001 4.20478 44.5615 3.20668C45.5229 2.20857 46.6421 1.44898 47.9191 0.927911C49.1961 0.406841 50.5795 0.146306 52.0693 0.146306C53.3463 0.146306 54.5352 0.333451 55.6361 0.707741C56.7369 1.07469 57.713 1.59576 58.5644 2.27095C59.423 2.94614 60.1239 3.74976 60.667 4.68182C61.2101 5.60653 61.5587 6.62666 61.7128 7.74219H56.8691ZM86.2205 11.7273C86.2205 14.1858 85.7545 16.2775 84.8224 18.0021C83.8977 19.7268 82.6354 21.0442 81.0355 21.9542C79.4429 22.8569 77.6522 23.3082 75.6634 23.3082C73.6598 23.3082 71.8617 22.8532 70.2692 21.9432C68.6766 21.0331 67.418 19.7158 66.4933 17.9911C65.5685 16.2665 65.1062 14.1785 65.1062 11.7273C65.1062 9.2687 65.5685 7.17708 66.4933 5.45242C67.418 3.72775 68.6766 2.41406 70.2692 1.51136C71.8617 0.601325 73.6598 0.146306 75.6634 0.146306C77.6522 0.146306 79.4429 0.601325 81.0355 1.51136C82.6354 2.41406 83.8977 3.72775 84.8224 5.45242C85.7545 7.17708 86.2205 9.2687 86.2205 11.7273ZM81.3878 11.7273C81.3878 10.1347 81.1493 8.79167 80.6722 7.69815C80.2025 6.60464 79.5384 5.77533 78.6797 5.21023C77.821 4.64512 76.8156 4.36257 75.6634 4.36257C74.5111 4.36257 73.5057 4.64512 72.647 5.21023C71.7884 5.77533 71.1205 6.60464 70.6435 7.69815C70.1738 8.79167 69.9389 10.1347 69.9389 11.7273C69.9389 13.3198 70.1738 14.6629 70.6435 15.7564C71.1205 16.8499 71.7884 17.6792 72.647 18.2443C73.5057 18.8094 74.5111 19.092 75.6634 19.092C76.8156 19.092 77.821 18.8094 78.6797 18.2443C79.5384 17.6792 80.2025 16.8499 80.6722 15.7564C81.1493 14.6629 81.3878 13.3198 81.3878 11.7273Z" fill="#0075FF"/>
</svg>
