<svg width="75" height="32" viewBox="0 0 75 32" fill="none" xmlns="http://www.w3.org/2000/svg">
<path d="M4.688 19.448H12.048V23H0.208V0.664H4.688V19.448ZM22.7675 23.288C21.0608 23.288 19.5248 22.9147 18.1595 22.168C16.7942 21.4 15.7168 20.3227 14.9275 18.936C14.1595 17.5493 13.7755 15.9493 13.7755 14.136C13.7755 12.3227 14.1702 10.7227 14.9595 9.336C15.7702 7.94933 16.8688 6.88267 18.2555 6.136C19.6422 5.368 21.1888 4.984 22.8955 4.984C24.6022 4.984 26.1488 5.368 27.5355 6.136C28.9222 6.88267 30.0102 7.94933 30.7995 9.336C31.6102 10.7227 32.0155 12.3227 32.0155 14.136C32.0155 15.9493 31.5995 17.5493 30.7675 18.936C29.9568 20.3227 28.8475 21.4 27.4395 22.168C26.0528 22.9147 24.4955 23.288 22.7675 23.288ZM22.7675 19.384C23.5782 19.384 24.3355 19.192 25.0395 18.808C25.7648 18.4027 26.3408 17.8053 26.7675 17.016C27.1942 16.2267 27.4075 15.2667 27.4075 14.136C27.4075 12.4507 26.9595 11.16 26.0635 10.264C25.1888 9.34667 24.1115 8.888 22.8315 8.888C21.5515 8.888 20.4742 9.34667 19.5995 10.264C18.7462 11.16 18.3195 12.4507 18.3195 14.136C18.3195 15.8213 18.7355 17.1227 19.5675 18.04C20.4208 18.936 21.4875 19.384 22.7675 19.384ZM42.2458 4.984C43.5684 4.984 44.7311 5.25067 45.7338 5.784C46.7364 6.296 47.5258 6.968 48.1018 7.8V5.272H52.6138V23.128C52.6138 24.7707 52.2831 26.232 51.6218 27.512C50.9604 28.8133 49.9684 29.8373 48.6458 30.584C47.3231 31.352 45.7231 31.736 43.8458 31.736C41.3284 31.736 39.2591 31.1493 37.6378 29.976C36.0378 28.8027 35.1311 27.2027 34.9178 25.176H39.3658C39.6004 25.9867 40.1018 26.6267 40.8698 27.096C41.6591 27.5867 42.6084 27.832 43.7178 27.832C45.0191 27.832 46.0751 27.4373 46.8858 26.648C47.6964 25.88 48.1018 24.7067 48.1018 23.128V20.376C47.5258 21.208 46.7258 21.9013 45.7018 22.456C44.6991 23.0107 43.5471 23.288 42.2458 23.288C40.7524 23.288 39.3871 22.904 38.1498 22.136C36.9124 21.368 35.9311 20.2907 35.2057 18.904C34.5017 17.496 34.1497 15.8853 34.1497 14.072C34.1497 12.28 34.5017 10.6907 35.2057 9.304C35.9311 7.91733 36.9018 6.85067 38.1178 6.104C39.3551 5.35733 40.7311 4.984 42.2458 4.984ZM48.1018 14.136C48.1018 13.048 47.8884 12.12 47.4618 11.352C47.0351 10.5627 46.4591 9.96533 45.7338 9.56C45.0084 9.13333 44.2298 8.92 43.3978 8.92C42.5658 8.92 41.7978 9.12267 41.0938 9.528C40.3898 9.93333 39.8138 10.5307 39.3658 11.32C38.9391 12.088 38.7258 13.0053 38.7258 14.072C38.7258 15.1387 38.9391 16.0773 39.3658 16.888C39.8138 17.6773 40.3898 18.2853 41.0938 18.712C41.8191 19.1387 42.5871 19.352 43.3978 19.352C44.2298 19.352 45.0084 19.1493 45.7338 18.744C46.4591 18.3173 47.0351 17.72 47.4618 16.952C47.8884 16.1627 48.1018 15.224 48.1018 14.136ZM64.8613 23.288C63.1546 23.288 61.6186 22.9147 60.2533 22.168C58.8879 21.4 57.8106 20.3227 57.0213 18.936C56.2533 17.5493 55.8693 15.9493 55.8693 14.136C55.8693 12.3227 56.2639 10.7227 57.0533 9.336C57.8639 7.94933 58.9626 6.88267 60.3493 6.136C61.7359 5.368 63.2826 4.984 64.9893 4.984C66.6959 4.984 68.2426 5.368 69.6293 6.136C71.0159 6.88267 72.1039 7.94933 72.8933 9.336C73.7039 10.7227 74.1093 12.3227 74.1093 14.136C74.1093 15.9493 73.6933 17.5493 72.8612 18.936C72.0506 20.3227 70.9413 21.4 69.5333 22.168C68.1466 22.9147 66.5893 23.288 64.8613 23.288ZM64.8613 19.384C65.6719 19.384 66.4293 19.192 67.1333 18.808C67.8586 18.4027 68.4346 17.8053 68.8613 17.016C69.2879 16.2267 69.5013 15.2667 69.5013 14.136C69.5013 12.4507 69.0533 11.16 68.1573 10.264C67.2826 9.34667 66.2053 8.888 64.9253 8.888C63.6453 8.888 62.5679 9.34667 61.6933 10.264C60.8399 11.16 60.4133 12.4507 60.4133 14.136C60.4133 15.8213 60.8293 17.1227 61.6613 18.04C62.5146 18.936 63.5813 19.384 64.8613 19.384Z" fill="#393939"/>
</svg>
