<svg width="25" height="25" viewBox="0 0 25 25" fill="none" xmlns="http://www.w3.org/2000/svg">
<g opacity="0.3">
<path d="M17.5573 22.5H3.7373C3.47209 22.5 3.21773 22.3946 3.0302 22.2071C2.84266 22.0196 2.7373 21.7652 2.7373 21.5V7.68C2.7373 6.30618 3.28305 4.98863 4.25449 4.01719C5.22593 3.04575 6.54348 2.5 7.9173 2.5H17.5573C18.2376 2.5 18.9111 2.63398 19.5396 2.8943C20.1681 3.15462 20.7391 3.53618 21.2201 4.01719C21.7011 4.49819 22.0827 5.06923 22.343 5.6977C22.6033 6.32617 22.7373 6.99975 22.7373 7.68V17.32C22.7373 18.0002 22.6033 18.6738 22.343 19.3023C22.0827 19.9308 21.7011 20.5018 21.2201 20.9828C20.7391 21.4638 20.1681 21.8454 19.5396 22.1057C18.9111 22.366 18.2376 22.5 17.5573 22.5Z" fill="#181C32"/>
</g>
<path d="M11.9674 8.24012L12.7074 7.24012C12.8536 7.0375 13.0391 6.86642 13.2529 6.73708C13.4667 6.60774 13.7043 6.52281 13.9517 6.48734C14.199 6.45187 14.4509 6.4666 14.6925 6.53065C14.934 6.5947 15.1601 6.70675 15.3574 6.86012L17.0274 8.15012C17.4217 8.47038 17.6793 8.92868 17.748 9.43198C17.8167 9.93529 17.6914 10.4459 17.3974 10.8601L16.6574 11.8601C16.1125 11.9704 15.5501 11.9604 15.0095 11.8309C14.4689 11.7013 13.9631 11.4554 13.5274 11.1101C13.08 10.7684 12.7099 10.3362 12.441 9.84162C12.1722 9.34706 12.0108 8.80134 11.9674 8.24012ZM12.6974 12.2401C11.865 11.5929 11.2338 10.7224 10.8774 9.73012L8.07736 13.5001C7.8604 13.8077 7.74185 14.1738 7.73736 14.5501V17.0701C7.72895 17.2909 7.77217 17.5106 7.86358 17.7117C7.955 17.9129 8.09209 18.0899 8.26394 18.2288C8.4358 18.3676 8.63769 18.4644 8.85355 18.5115C9.0694 18.5586 9.29328 18.5547 9.50736 18.5001L11.8674 17.7801C12.2278 17.6735 12.5438 17.4523 12.7674 17.1501L15.5574 13.3701C14.5271 13.2698 13.5478 12.874 12.7374 12.2301L12.6974 12.2401Z" fill="#181C32"/>
</svg>
