<svg width="20" height="24" viewBox="0 0 20 24" fill="none" xmlns="http://www.w3.org/2000/svg">
<g opacity="0.3">
<path d="M18.1878 15.6068C17.1114 13.9728 16.5509 12.0529 16.5791 10.0964V9.8803C16.5759 8.76745 16.2969 7.67274 15.7672 6.69404C15.2375 5.71535 14.4735 4.88318 13.5435 4.27192C12.6135 3.66067 11.5466 3.28939 10.4381 3.19127C9.32955 3.09315 8.21398 3.27126 7.19111 3.70966C5.99185 4.20372 4.96913 5.04741 4.2561 6.13087C3.54307 7.21434 3.17276 8.48739 3.1934 9.78426V9.85629C3.20293 11.9524 2.53323 13.9952 1.28458 15.6788L0.49224 16.8073C0.170001 17.2456 -0.00258171 17.7759 2.91931e-05 18.3199C2.91931e-05 18.9949 0.268172 19.6423 0.745469 20.1196C1.22277 20.5969 1.87012 20.865 2.54512 20.865H16.8913C17.2255 20.865 17.5564 20.7992 17.8652 20.6713C18.174 20.5434 18.4546 20.3559 18.6909 20.1196C18.9273 19.8832 19.1147 19.6027 19.2426 19.2939C19.3705 18.9851 19.4364 18.6541 19.4364 18.3199V18.2479C19.4415 17.735 19.2908 17.2326 19.0042 16.8073L18.1878 15.6068Z" fill="black"/>
</g>
<path d="M7.39526 21.9937C7.47568 22.5508 7.75417 23.0603 8.17971 23.4289C8.60524 23.7974 9.14933 24.0002 9.71226 24.0002C10.2752 24.0002 10.8193 23.7974 11.2448 23.4289C11.6703 23.0603 11.9488 22.5508 12.0292 21.9937H7.39526Z" fill="black"/>
<path d="M10.6005 3.21738V0.900386C10.6005 0.661589 10.5057 0.432572 10.3368 0.263717C10.168 0.0948617 9.93895 0 9.70016 0C9.46136 0 9.23234 0.0948617 9.06349 0.263717C8.89463 0.432572 8.79977 0.661589 8.79977 0.900386V3.18136C8.79265 3.20892 8.79265 3.23784 8.79977 3.2654C9.39573 3.17497 10.0006 3.15884 10.6005 3.21738Z" fill="black"/>
</svg>
