<svg width="28" height="28" viewBox="0 0 28 28" fill="none" xmlns="http://www.w3.org/2000/svg">
<g opacity="0.3">
<path d="M20.748 28H1.4C1.0287 28 0.672601 27.8525 0.41005 27.59C0.1475 27.3274 0 26.9713 0 26.6V7.252C0 5.32865 0.764048 3.48408 2.12406 2.12406C3.48408 0.764048 5.32865 0 7.252 0H20.748C21.7003 0 22.6434 0.187579 23.5232 0.552026C24.4031 0.916473 25.2025 1.45065 25.8759 2.12406C26.5493 2.79747 27.0835 3.59693 27.448 4.47678C27.8124 5.35663 28 6.29965 28 7.252V20.748C28 21.7003 27.8124 22.6434 27.448 23.5232C27.0835 24.4031 26.5493 25.2025 25.8759 25.8759C25.2025 26.5493 24.4031 27.0835 23.5232 27.448C22.6434 27.8124 21.7003 28 20.748 28Z" fill="#181C32"/>
</g>
<path d="M14 19.866C13.7226 19.8623 13.4576 19.7506 13.2615 19.5544C13.0654 19.3583 12.9536 19.0933 12.95 18.816V9.18397C12.95 8.9055 13.0606 8.63842 13.2575 8.44151C13.4544 8.2446 13.7215 8.13397 14 8.13397C14.2784 8.13397 14.5455 8.2446 14.7424 8.44151C14.9393 8.63842 15.05 8.9055 15.05 9.18397V18.816C15.0463 19.0933 14.9345 19.3583 14.7384 19.5544C14.5423 19.7506 14.2773 19.8623 14 19.866Z" fill="#181C32"/>
<path d="M18.816 15.05H9.18403C8.90556 15.05 8.63848 14.9394 8.44157 14.7425C8.24466 14.5456 8.13403 14.2785 8.13403 14C8.13403 13.7215 8.24466 13.4545 8.44157 13.2576C8.63848 13.0606 8.90556 12.95 9.18403 12.95H18.816C19.0945 12.95 19.3616 13.0606 19.5585 13.2576C19.7554 13.4545 19.866 13.7215 19.866 14C19.866 14.2785 19.7554 14.5456 19.5585 14.7425C19.3616 14.9394 19.0945 15.05 18.816 15.05Z" fill="#181C32"/>
</svg>
