<svg width="201" height="36" viewBox="0 0 201 36" fill="none" xmlns="http://www.w3.org/2000/svg">
<path d="M41.8667 23.8333V6.33333H43.8111V7.86944C44.3426 7.33796 44.9583 6.92315 45.6583 6.625C46.3583 6.32685 47.1102 6.17778 47.9139 6.17778C48.9898 6.17778 49.962 6.45 50.8306 6.99444C51.712 7.52593 52.412 8.24537 52.9306 9.15278C53.462 10.0602 53.7278 11.0648 53.7278 12.1667C53.7278 13.2685 53.462 14.2731 52.9306 15.1806C52.412 16.088 51.712 16.8139 50.8306 17.3583C49.962 17.8898 48.9898 18.1556 47.9139 18.1556C47.1491 18.1556 46.4296 18.0194 45.7556 17.7472C45.0815 17.475 44.4852 17.0991 43.9667 16.6194V23.8333H41.8667ZM47.6417 16.25C48.3806 16.25 49.0481 16.0685 49.6444 15.7056C50.2537 15.3296 50.7333 14.837 51.0833 14.2278C51.4463 13.6056 51.6278 12.9185 51.6278 12.1667C51.6278 11.4148 51.4463 10.7343 51.0833 10.125C50.7333 9.50278 50.2537 9.01019 49.6444 8.64722C49.0481 8.2713 48.3806 8.08333 47.6417 8.08333C46.9028 8.08333 46.2287 8.2713 45.6194 8.64722C45.0231 9.01019 44.5435 9.50278 44.1806 10.125C43.8306 10.7343 43.6556 11.4148 43.6556 12.1667C43.6556 12.9185 43.8306 13.6056 44.1806 14.2278C44.5435 14.837 45.0231 15.3296 45.6194 15.7056C46.2287 16.0685 46.9028 16.25 47.6417 16.25ZM62.7934 18.2333C61.5749 18.2333 60.4795 17.9611 59.5073 17.4167C58.548 16.8722 57.7897 16.1333 57.2323 15.2C56.6878 14.2537 56.4156 13.2037 56.4156 12.05C56.4156 10.9481 56.6814 9.95 57.2128 9.05556C57.7443 8.14815 58.4573 7.4287 59.3517 6.89722C60.2591 6.36574 61.2573 6.1 62.3462 6.1C63.4221 6.1 64.4073 6.35926 65.3017 6.87778C66.1962 7.38333 66.9091 8.07037 67.4406 8.93889C67.9721 9.80741 68.2378 10.7926 68.2378 11.8944V12.75H60.6156C60.2786 12.75 59.9351 12.737 59.5851 12.7111C59.2351 12.6852 58.8916 12.6463 58.5545 12.5944C58.6971 13.6315 59.1638 14.5 59.9545 15.2C60.7582 15.9 61.711 16.25 62.8128 16.25C63.5517 16.25 64.2388 16.0815 64.874 15.7444C65.5091 15.4074 66.0212 14.9602 66.4101 14.4028L66.9934 16.7944C66.436 17.2481 65.7943 17.6046 65.0684 17.8639C64.3554 18.1102 63.5971 18.2333 62.7934 18.2333ZM58.4962 11.175C59.1962 11.0583 59.9027 11 60.6156 11H64.4851C64.7703 11 65.049 11.013 65.3212 11.0389C65.6064 11.0519 65.8916 11.0713 66.1767 11.0972C65.9953 10.1898 65.5416 9.44444 64.8156 8.86111C64.0897 8.26481 63.2666 7.96667 62.3462 7.96667C61.3999 7.96667 60.5703 8.28426 59.8573 8.91944C59.1443 9.54167 58.6906 10.2935 58.4962 11.175ZM71.6409 18V6.33333H73.5853V8.47222C74.0001 7.78519 74.5511 7.24074 75.2381 6.83889C75.9251 6.42407 76.7418 6.21667 77.6881 6.21667L78.2131 8.31667C77.9668 8.23889 77.6816 8.2 77.3576 8.2C76.2687 8.2 75.3937 8.55 74.7326 9.25C74.0714 9.93704 73.7409 10.9222 73.7409 12.2056V18H71.6409ZM84.0048 18.2333C83.4085 18.2333 82.7668 18.1231 82.0798 17.9028C81.4057 17.6694 80.8224 17.287 80.3298 16.7556L80.9131 14.4611C81.2761 15.0704 81.7427 15.5565 82.3131 15.9194C82.8835 16.2694 83.4927 16.4444 84.1409 16.4444C84.7631 16.4444 85.2298 16.2954 85.5409 15.9972C85.852 15.6861 86.0076 15.3102 86.0076 14.8694C86.0076 14.3639 85.839 13.9944 85.502 13.7611C85.1779 13.5278 84.8863 13.3657 84.627 13.275L83.052 12.6722C82.7668 12.5556 82.4233 12.387 82.0214 12.1667C81.6196 11.9333 81.2696 11.6028 80.9714 11.175C80.6733 10.7472 80.5242 10.1898 80.5242 9.50278C80.5242 8.88056 80.6733 8.31019 80.9714 7.79167C81.2696 7.27315 81.6909 6.86481 82.2353 6.56667C82.7798 6.25556 83.4214 6.1 84.1603 6.1C84.7437 6.1 85.3529 6.2037 85.9881 6.41111C86.6233 6.61852 87.1613 6.96852 87.602 7.46111L87.0187 9.75556C86.7076 9.18518 86.2863 8.73148 85.7548 8.39444C85.2233 8.05741 84.6724 7.88889 84.102 7.88889C83.5705 7.88889 83.1492 8.03796 82.8381 8.33611C82.54 8.63426 82.3909 8.97778 82.3909 9.36667C82.3909 9.67778 82.4946 9.95648 82.702 10.2028C82.9094 10.4491 83.2205 10.65 83.6353 10.8056L85.2103 11.4083C85.4955 11.512 85.8455 11.6806 86.2603 11.9139C86.6881 12.1472 87.064 12.4843 87.3881 12.925C87.7122 13.3657 87.8742 13.962 87.8742 14.7139C87.8742 15.7639 87.5048 16.613 86.7659 17.2611C86.04 17.9093 85.1196 18.2333 84.0048 18.2333ZM96.8444 18.2333C95.7167 18.2333 94.6861 17.9611 93.7528 17.4167C92.8194 16.8722 92.0741 16.1398 91.5167 15.2194C90.9722 14.2991 90.7 13.2815 90.7 12.1667C90.7 11.0389 90.9722 10.0213 91.5167 9.11389C92.0741 8.19352 92.8194 7.46111 93.7528 6.91667C94.6861 6.37222 95.7167 6.1 96.8444 6.1C97.9852 6.1 99.0157 6.37222 99.9361 6.91667C100.869 7.46111 101.608 8.19352 102.153 9.11389C102.71 10.0213 102.989 11.0389 102.989 12.1667C102.989 13.2815 102.71 14.2991 102.153 15.2194C101.608 16.1398 100.869 16.8722 99.9361 17.4167C99.0157 17.9611 97.9852 18.2333 96.8444 18.2333ZM96.8444 16.25C97.5963 16.25 98.2769 16.0685 98.8861 15.7056C99.4954 15.3296 99.9815 14.837 100.344 14.2278C100.707 13.6056 100.889 12.9185 100.889 12.1667C100.889 11.4148 100.707 10.7343 100.344 10.125C99.9815 9.50278 99.4954 9.01019 98.8861 8.64722C98.2769 8.2713 97.5963 8.08333 96.8444 8.08333C96.0926 8.08333 95.412 8.2713 94.8028 8.64722C94.1935 9.01019 93.7074 9.50278 93.3444 10.125C92.9815 10.7343 92.8 11.4148 92.8 12.1667C92.8 12.9185 92.9815 13.6056 93.3444 14.2278C93.7074 14.837 94.1935 15.3296 94.8028 15.7056C95.412 16.0685 96.0926 16.25 96.8444 16.25ZM106.499 18V6.33333H108.444V8.21944C108.872 7.53241 109.423 7.00741 110.097 6.64444C110.784 6.28148 111.523 6.1 112.313 6.1C113.143 6.1 113.908 6.30741 114.608 6.72222C115.321 7.12407 115.898 7.71389 116.338 8.49167C116.779 9.25648 116.999 10.1898 116.999 11.2917V18H114.899V11.5833C114.899 10.663 114.621 9.85278 114.063 9.15278C113.519 8.43981 112.748 8.08333 111.749 8.08333C110.933 8.08333 110.2 8.38148 109.552 8.97778C108.917 9.56111 108.599 10.4102 108.599 11.525V18H106.499ZM126.097 18.1556C125.034 18.1556 124.062 17.8898 123.18 17.3583C122.299 16.8139 121.592 16.088 121.061 15.1806C120.542 14.2731 120.283 13.2685 120.283 12.1667C120.283 11.0648 120.542 10.0602 121.061 9.15278C121.592 8.24537 122.299 7.52593 123.18 6.99444C124.062 6.45 125.034 6.17778 126.097 6.17778C126.9 6.17778 127.652 6.32685 128.352 6.625C129.065 6.92315 129.681 7.33796 130.199 7.86944V6.33333H132.144V18H130.199V16.4639C129.681 16.9824 129.065 17.3972 128.352 17.7083C127.652 18.0065 126.9 18.1556 126.097 18.1556ZM126.369 16.25C127.108 16.25 127.775 16.0685 128.372 15.7056C128.981 15.3296 129.461 14.837 129.811 14.2278C130.174 13.6056 130.355 12.9185 130.355 12.1667C130.355 11.4148 130.174 10.7343 129.811 10.125C129.461 9.50278 128.981 9.01019 128.372 8.64722C127.775 8.2713 127.108 8.08333 126.369 8.08333C125.63 8.08333 124.956 8.2713 124.347 8.64722C123.75 9.01019 123.271 9.50278 122.908 10.125C122.558 10.7343 122.383 11.4148 122.383 12.1667C122.383 12.9185 122.558 13.6056 122.908 14.2278C123.271 14.837 123.75 15.3296 124.347 15.7056C124.956 16.0685 125.63 16.25 126.369 16.25ZM136.465 23.8333V6.33333H138.41V7.86944C138.941 7.33796 139.557 6.92315 140.257 6.625C140.957 6.32685 141.709 6.17778 142.512 6.17778C143.588 6.17778 144.56 6.45 145.429 6.99444C146.31 7.52593 147.01 8.24537 147.529 9.15278C148.06 10.0602 148.326 11.0648 148.326 12.1667C148.326 13.2685 148.06 14.2731 147.529 15.1806C147.01 16.088 146.31 16.8139 145.429 17.3583C144.56 17.8898 143.588 18.1556 142.512 18.1556C141.748 18.1556 141.028 18.0194 140.354 17.7472C139.68 17.475 139.084 17.0991 138.565 16.6194V23.8333H136.465ZM142.24 16.25C142.979 16.25 143.647 16.0685 144.243 15.7056C144.852 15.3296 145.332 14.837 145.682 14.2278C146.045 13.6056 146.226 12.9185 146.226 12.1667C146.226 11.4148 146.045 10.7343 145.682 10.125C145.332 9.50278 144.852 9.01019 144.243 8.64722C143.647 8.2713 142.979 8.08333 142.24 8.08333C141.501 8.08333 140.827 8.2713 140.218 8.64722C139.622 9.01019 139.142 9.50278 138.779 10.125C138.429 10.7343 138.254 11.4148 138.254 12.1667C138.254 12.9185 138.429 13.6056 138.779 14.2278C139.142 14.837 139.622 15.3296 140.218 15.7056C140.827 16.0685 141.501 16.25 142.24 16.25ZM151.831 18V6.33333H153.775V8.47222C154.19 7.78519 154.741 7.24074 155.428 6.83889C156.115 6.42407 156.932 6.21667 157.878 6.21667L158.403 8.31667C158.157 8.23889 157.871 8.2 157.547 8.2C156.459 8.2 155.584 8.55 154.922 9.25C154.261 9.93704 153.931 10.9222 153.931 12.2056V18H151.831ZM166.126 18.2333C164.998 18.2333 163.967 17.9611 163.034 17.4167C162.101 16.8722 161.355 16.1398 160.798 15.2194C160.253 14.2991 159.981 13.2815 159.981 12.1667C159.981 11.0389 160.253 10.0213 160.798 9.11389C161.355 8.19352 162.101 7.46111 163.034 6.91667C163.967 6.37222 164.998 6.1 166.126 6.1C167.266 6.1 168.297 6.37222 169.217 6.91667C170.151 7.46111 170.89 8.19352 171.434 9.11389C171.991 10.0213 172.27 11.0389 172.27 12.1667C172.27 13.2815 171.991 14.2991 171.434 15.2194C170.89 16.1398 170.151 16.8722 169.217 17.4167C168.297 17.9611 167.266 18.2333 166.126 18.2333ZM166.126 16.25C166.878 16.25 167.558 16.0685 168.167 15.7056C168.777 15.3296 169.263 14.837 169.626 14.2278C169.989 13.6056 170.17 12.9185 170.17 12.1667C170.17 11.4148 169.989 10.7343 169.626 10.125C169.263 9.50278 168.777 9.01019 168.167 8.64722C167.558 8.2713 166.878 8.08333 166.126 8.08333C165.374 8.08333 164.693 8.2713 164.084 8.64722C163.475 9.01019 162.989 9.50278 162.626 10.125C162.263 10.7343 162.081 11.4148 162.081 12.1667C162.081 12.9185 162.263 13.6056 162.626 14.2278C162.989 14.837 163.475 15.3296 164.084 15.7056C164.693 16.0685 165.374 16.25 166.126 16.25ZM176.539 18.2333C176.111 18.2333 175.748 18.0907 175.45 17.8056C175.165 17.5074 175.022 17.1444 175.022 16.7167C175.022 16.2889 175.165 15.9324 175.45 15.6472C175.748 15.3491 176.111 15.2 176.539 15.2C176.98 15.2 177.343 15.3491 177.628 15.6472C177.913 15.9324 178.056 16.2889 178.056 16.7167C178.056 17.1444 177.913 17.5074 177.628 17.8056C177.343 18.0907 176.98 18.2333 176.539 18.2333ZM186.628 18.1556C185.565 18.1556 184.593 17.8898 183.711 17.3583C182.83 16.8139 182.123 16.088 181.592 15.1806C181.073 14.2731 180.814 13.2685 180.814 12.1667C180.814 11.0648 181.073 10.0602 181.592 9.15278C182.123 8.24537 182.83 7.52593 183.711 6.99444C184.593 6.45 185.565 6.17778 186.628 6.17778C187.432 6.17778 188.184 6.32685 188.884 6.625C189.596 6.92315 190.212 7.33796 190.731 7.86944V6.33333H192.675V18H190.731V16.4639C190.212 16.9824 189.596 17.3972 188.884 17.7083C188.184 18.0065 187.432 18.1556 186.628 18.1556ZM186.9 16.25C187.639 16.25 188.307 16.0685 188.903 15.7056C189.512 15.3296 189.992 14.837 190.342 14.2278C190.705 13.6056 190.886 12.9185 190.886 12.1667C190.886 11.4148 190.705 10.7343 190.342 10.125C189.992 9.50278 189.512 9.01019 188.903 8.64722C188.307 8.2713 187.639 8.08333 186.9 8.08333C186.161 8.08333 185.487 8.2713 184.878 8.64722C184.282 9.01019 183.802 9.50278 183.439 10.125C183.089 10.7343 182.914 11.4148 182.914 12.1667C182.914 12.9185 183.089 13.6056 183.439 14.2278C183.802 14.837 184.282 15.3296 184.878 15.7056C185.487 16.0685 186.161 16.25 186.9 16.25ZM196.996 18V6.33333H199.096V18H196.996ZM198.046 4.23333C197.657 4.23333 197.327 4.09722 197.055 3.825C196.782 3.55278 196.646 3.22222 196.646 2.83333C196.646 2.43148 196.782 2.10093 197.055 1.84167C197.327 1.56944 197.657 1.43333 198.046 1.43333C198.448 1.43333 198.779 1.56944 199.038 1.84167C199.31 2.10093 199.446 2.43148 199.446 2.83333C199.446 3.22222 199.31 3.55278 199.038 3.825C198.779 4.09722 198.448 4.23333 198.046 4.23333Z" fill="#222831"/>
<path d="M53.3417 35V32.9097L52.0583 30.625H52.8701L53.4875 31.7528C53.5296 31.8273 53.5701 31.9035 53.609 31.9812C53.6479 32.0558 53.6868 32.1449 53.7257 32.2486C53.7678 32.1449 53.8083 32.0558 53.8472 31.9812C53.8861 31.9035 53.9266 31.8273 53.9688 31.7528L54.591 30.625H55.3444L54.0611 32.9097V35H53.3417ZM59.7867 35.0875C59.4691 35.0875 59.171 35.0292 58.8923 34.9125C58.6136 34.7926 58.3689 34.6289 58.1583 34.4215C57.9509 34.2141 57.7872 33.9727 57.6673 33.6972C57.5474 33.4218 57.4874 33.1269 57.4874 32.8125C57.4874 32.4981 57.5474 32.2032 57.6673 31.9278C57.7872 31.6523 57.9509 31.4109 58.1583 31.2035C58.3689 30.9961 58.6136 30.834 58.8923 30.7174C59.171 30.5975 59.4691 30.5375 59.7867 30.5375C60.1076 30.5375 60.4057 30.5975 60.6812 30.7174C60.9599 30.834 61.2046 30.9961 61.4152 31.2035C61.6259 31.4109 61.7895 31.6523 61.9062 31.9278C62.0261 32.2032 62.086 32.4981 62.086 32.8125C62.086 33.1269 62.0261 33.4218 61.9062 33.6972C61.7895 33.9727 61.6259 34.2141 61.4152 34.4215C61.2046 34.6289 60.9599 34.7926 60.6812 34.9125C60.4057 35.0292 60.1076 35.0875 59.7867 35.0875ZM59.7867 34.4021C60.0784 34.4021 60.3409 34.3308 60.5742 34.1882C60.8108 34.0456 60.9972 33.8544 61.1333 33.6146C61.2726 33.3715 61.3423 33.1042 61.3423 32.8125C61.3423 32.5176 61.2726 32.2502 61.1333 32.0104C60.9972 31.7706 60.8108 31.5794 60.5742 31.4368C60.3409 31.2942 60.0784 31.2229 59.7867 31.2229C59.4951 31.2229 59.231 31.2942 58.9944 31.4368C58.761 31.5794 58.5747 31.7706 58.4354 32.0104C58.2992 32.2502 58.2312 32.5176 58.2312 32.8125C58.2312 33.1042 58.2992 33.3715 58.4354 33.6146C58.5747 33.8544 58.761 34.0456 58.9944 34.1882C59.231 34.3308 59.4951 34.4021 59.7867 34.4021ZM66.4091 35.0826C66.1174 35.0826 65.8582 35.0211 65.6313 34.8979C65.4045 34.7715 65.2262 34.5965 65.0966 34.3729C64.967 34.1461 64.9021 33.8803 64.9021 33.5757V30.625H65.6313V33.5417C65.6313 33.8042 65.7059 34.0148 65.8549 34.1736C66.004 34.3292 66.1936 34.4069 66.4237 34.4069C66.6473 34.4069 66.8336 34.3308 66.9827 34.1785C67.135 34.0229 67.2112 33.8187 67.2112 33.566V30.625H67.916V33.5562C67.916 33.8641 67.8512 34.1331 67.7216 34.3632C67.5952 34.5933 67.4186 34.7715 67.1917 34.8979C66.9681 35.0211 66.7072 35.0826 66.4091 35.0826ZM71.0085 35V30.625H72.2286C72.5235 30.625 72.7763 30.685 72.9869 30.8049C73.2008 30.9215 73.3645 31.0771 73.4779 31.2715C73.5913 31.466 73.648 31.6799 73.648 31.9132C73.648 32.1465 73.5897 32.3572 73.473 32.5451C73.3564 32.7331 73.1927 32.8789 72.9821 32.9826L74.2946 35H73.4925L72.3112 33.1625H71.7085V35H71.0085ZM71.7085 32.5646H72.2189C72.3906 32.5646 72.53 32.5322 72.6369 32.4674C72.7471 32.4025 72.8281 32.3199 72.88 32.2194C72.9351 32.119 72.9626 32.0169 72.9626 31.9132C72.9626 31.7252 72.8946 31.5713 72.7585 31.4514C72.6224 31.3282 72.4425 31.2667 72.2189 31.2667H71.7085V32.5646ZM80.0251 35L81.916 30.4743H81.9258L83.8167 35H83.0827L82.6646 33.9646H81.1528L80.7299 35H80.0251ZM81.391 33.3812H82.4216L82.1591 32.725C82.1105 32.6116 82.0651 32.4998 82.023 32.3896C81.9841 32.2794 81.9452 32.1498 81.9063 32.0007C81.8674 32.1498 81.8285 32.2794 81.7896 32.3896C81.7508 32.4965 81.707 32.6083 81.6584 32.725L81.391 33.3812ZM86.573 35V30.625H87.3021V35H86.573ZM94.0788 35V30.4792L96.1351 33.1722L98.1525 30.4792V35H97.4525V33.3618C97.4525 33.2257 97.4541 33.0734 97.4573 32.9049C97.4606 32.7363 97.4735 32.5451 97.4962 32.3312C97.3957 32.503 97.2985 32.6537 97.2045 32.7833C97.1106 32.913 97.0247 33.0312 96.9469 33.1382L96.1156 34.2903L95.2601 33.1382C95.1823 33.0345 95.0948 32.9146 94.9976 32.7785C94.9004 32.6424 94.8031 32.49 94.7059 32.3215C94.7286 32.5419 94.7416 32.7363 94.7448 32.9049C94.7481 33.0701 94.7497 33.2225 94.7497 33.3618V35H94.0788ZM100.866 35L102.757 30.4743H102.767L104.658 35H103.924L103.506 33.9646H101.994L101.571 35H100.866ZM102.232 33.3812H103.263L103 32.725C102.952 32.6116 102.907 32.4998 102.864 32.3896C102.825 32.2794 102.787 32.1498 102.748 32.0007C102.709 32.1498 102.67 32.2794 102.631 32.3896C102.592 32.4965 102.548 32.6083 102.5 32.725L102.232 33.3812ZM107.385 35V30.625H108.605C108.9 30.625 109.153 30.685 109.364 30.8049C109.578 30.9215 109.741 31.0771 109.855 31.2715C109.968 31.466 110.025 31.6799 110.025 31.9132C110.025 32.1465 109.966 32.3572 109.85 32.5451C109.733 32.7331 109.569 32.8789 109.359 32.9826L110.671 35H109.869L108.688 33.1625H108.085V35H107.385ZM108.085 32.5646H108.596C108.767 32.5646 108.907 32.5322 109.014 32.4674C109.124 32.4025 109.205 32.3199 109.257 32.2194C109.312 32.119 109.339 32.0169 109.339 31.9132C109.339 31.7252 109.271 31.5713 109.135 31.4514C108.999 31.3282 108.819 31.2667 108.596 31.2667H108.085V32.5646ZM115.762 35L114.037 32.3021L115.388 30.625H116.215L114.863 32.2924L116.613 35H115.762ZM113.312 35V30.625H114.027V35H113.312ZM119.254 35V30.625H121.5V31.2521H119.954V32.0542H121.16V32.6667H119.954V34.3583H121.5V35H119.254ZM124.096 31.2667V30.625H127.061V31.2667H125.943V35H125.214V31.2667H124.096ZM129.965 35V30.625H130.694V35H129.965ZM137.429 35.1458L134.585 32.1951V35H133.915V30.4792L136.758 33.425V30.625H137.429V35.1458ZM142.669 35.0875C142.345 35.0875 142.042 35.0308 141.76 34.9174C141.478 34.8007 141.231 34.6403 141.017 34.4361C140.806 34.2287 140.641 33.9873 140.521 33.7118C140.404 33.4363 140.346 33.1382 140.346 32.8174C140.346 32.4965 140.404 32.1984 140.521 31.9229C140.641 31.6475 140.806 31.406 141.017 31.1986C141.231 30.9912 141.477 30.8292 141.756 30.7125C142.037 30.5958 142.341 30.5375 142.665 30.5375C142.969 30.5375 143.254 30.5894 143.52 30.6931C143.786 30.7968 144.021 30.9426 144.225 31.1306L144.021 31.9667C143.885 31.7463 143.7 31.5664 143.467 31.4271C143.233 31.2845 142.966 31.2132 142.665 31.2132C142.366 31.2132 142.099 31.2845 141.862 31.4271C141.626 31.5697 141.438 31.7625 141.299 32.0056C141.159 32.2454 141.09 32.516 141.09 32.8174C141.09 33.1187 141.158 33.391 141.294 33.634C141.433 33.8738 141.621 34.065 141.858 34.2076C142.097 34.3502 142.365 34.4215 142.66 34.4215C142.815 34.4215 142.963 34.4037 143.102 34.3681C143.241 34.3324 143.368 34.2822 143.481 34.2174V33.2208H142.436V32.6083H144.147V34.6354C143.95 34.7812 143.723 34.8931 143.467 34.9708C143.214 35.0486 142.948 35.0875 142.669 35.0875ZM150.783 35V30.4792L152.839 33.1722L154.857 30.4792V35H154.157V33.3618C154.157 33.2257 154.158 33.0734 154.161 32.9049C154.165 32.7363 154.178 32.5451 154.2 32.3312C154.1 32.503 154.003 32.6537 153.909 32.7833C153.815 32.913 153.729 33.0312 153.651 33.1382L152.82 34.2903L151.964 33.1382C151.886 33.0345 151.799 32.9146 151.702 32.7785C151.604 32.6424 151.507 32.49 151.41 32.3215C151.433 32.5419 151.446 32.7363 151.449 32.9049C151.452 33.0701 151.454 33.2225 151.454 33.3618V35H150.783ZM157.571 35L159.462 30.4743H159.471L161.362 35H160.628L160.21 33.9646H158.698L158.275 35H157.571ZM158.937 33.3812H159.967L159.705 32.725C159.656 32.6116 159.611 32.4998 159.568 32.3896C159.53 32.2794 159.491 32.1498 159.452 32.0007C159.413 32.1498 159.374 32.2794 159.335 32.3896C159.296 32.4965 159.253 32.6083 159.204 32.725L158.937 33.3812ZM165.968 35.0875C165.65 35.0875 165.352 35.0292 165.074 34.9125C164.795 34.7926 164.55 34.6289 164.34 34.4215C164.129 34.2141 163.964 33.9727 163.844 33.6972C163.727 33.4218 163.669 33.1269 163.669 32.8125C163.669 32.4981 163.727 32.2032 163.844 31.9278C163.964 31.6523 164.129 31.4109 164.34 31.2035C164.55 30.9961 164.795 30.834 165.074 30.7174C165.352 30.5975 165.65 30.5375 165.968 30.5375C166.266 30.5375 166.546 30.5894 166.809 30.6931C167.075 30.7968 167.31 30.9426 167.514 31.1306L167.31 31.9764C167.177 31.756 166.994 31.5762 166.76 31.4368C166.53 31.2942 166.271 31.2229 165.983 31.2229C165.691 31.2229 165.427 31.2942 165.19 31.4368C164.957 31.5794 164.771 31.7706 164.631 32.0104C164.495 32.2502 164.427 32.5176 164.427 32.8125C164.427 33.1042 164.495 33.3715 164.631 33.6146C164.771 33.8544 164.957 34.0456 165.19 34.1882C165.427 34.3308 165.691 34.4021 165.983 34.4021C166.271 34.4021 166.53 34.3308 166.76 34.1882C166.994 34.0456 167.177 33.8657 167.31 33.6486L167.514 34.4944C167.31 34.6792 167.075 34.825 166.809 34.9319C166.546 35.0356 166.266 35.0875 165.968 35.0875ZM170.331 35V30.625H171.031V32.0396H172.441V30.625H173.141V35H172.441V32.6812H171.031V35H170.331ZM176.364 35V30.625H177.094V35H176.364ZM183.829 35.1458L180.985 32.1951V35H180.314V30.4792L183.158 33.425V30.625H183.829V35.1458ZM187.008 35V30.625H189.254V31.2521H187.708V32.0542H188.913V32.6667H187.708V34.3583H189.254V35H187.008Z" fill="#394147"/>
<path d="M12.4783 24.5C13.3116 24.5 16.4783 24 16.9783 26.5C17.4783 28 15.1449 31.8333 14.4783 33.5C18.3116 31.8333 25.3783 27 22.9783 21" stroke="#83CF81" stroke-linejoin="round"/>
<path d="M9.98438 22.7932C10.0336 21.9614 10.7198 18.8298 8.25371 18.183C6.78587 17.5952 2.82139 19.698 1.11825 20.2651C3.00846 16.5369 8.25081 9.76808 14.0985 12.5183" stroke="#83CF81" stroke-linejoin="round"/>
<path d="M6.97827 24.5L3.47827 28.5" stroke="#83CF81" stroke-linecap="round" stroke-linejoin="round"/>
<path d="M10.4783 27.5L6.47827 31" stroke="#83CF81" stroke-linecap="round" stroke-linejoin="round"/>
<path d="M6.97827 28L4.47827 30.5" stroke="#83CF81" stroke-linecap="round" stroke-linejoin="round"/>
<path d="M7.97827 27.0149L7.51387 26.8296C7.43623 27.0242 7.48815 27.2466 7.64395 27.3867C7.79974 27.5268 8.02636 27.5549 8.21165 27.4571L7.97827 27.0149ZM18.9783 16.5149L19.2892 16.1233L19.2207 16.0689L19.1378 16.041L18.9783 16.5149ZM8.44267 27.2002C9.42889 24.7283 11.0274 21.7799 12.9151 19.6484C14.8321 17.4837 16.8802 16.3361 18.8187 16.9888L19.1378 16.041C16.5763 15.1786 14.1244 16.7745 12.1665 18.9854C10.1792 21.2294 8.52766 24.2886 7.51387 26.8296L8.44267 27.2002ZM18.6673 16.9065C18.8781 17.0738 18.958 17.248 18.9706 17.4389C18.9846 17.6524 18.9163 17.9405 18.7174 18.3113C18.3173 19.0569 17.4853 19.9614 16.3405 20.9421C14.0662 22.8904 10.7262 24.9993 7.74489 26.5727L8.21165 27.4571C11.2304 25.8639 14.6404 23.7153 16.9911 21.7015C18.1588 20.7012 19.108 19.6985 19.5986 18.7841C19.845 18.3248 19.9993 17.8447 19.9684 17.3734C19.936 16.8795 19.7035 16.4523 19.2892 16.1233L18.6673 16.9065Z" fill="#83CF81"/>
<path d="M9.97827 20.5C11.9783 14.5 19.3783 2.4 32.9783 2C33.3783 12.4 22.9783 22.5 15.9783 25" stroke="#83CF81" stroke-linejoin="round"/>
<circle cx="23.4783" cy="12" r="2.5" stroke="#83CF81"/>
<path d="M24.4783 4L30.9783 10.5" stroke="#83CF81" stroke-linejoin="round"/>
<circle cx="4.97827" cy="32.5" r="0.5" fill="#83CF81"/>
<circle cx="2.97827" cy="31.5" r="0.5" fill="#83CF81"/>
<circle cx="1.97827" cy="29.5" r="0.5" fill="#83CF81"/>
</svg>
