<svg width="42" height="42" viewBox="0 0 42 42" fill="none" xmlns="http://www.w3.org/2000/svg">
<path opacity="0.3" d="M19.25 22.75H12.25C11.7859 22.75 11.3408 22.5656 11.0126 22.2374C10.6844 21.9092 10.5 21.4641 10.5 21C10.5 20.5359 10.6844 20.0908 11.0126 19.7626C11.3408 19.4344 11.7859 19.25 12.25 19.25H19.25V22.75ZM29.75 19.25H22.75V22.75H29.75C30.2141 22.75 30.6593 22.5656 30.9874 22.2374C31.3156 21.9092 31.5 21.4641 31.5 21C31.5 20.5359 31.3156 20.0908 30.9874 19.7626C30.6593 19.4344 30.2141 19.25 29.75 19.25Z" fill="#0F0037"/>
<path opacity="0.3" d="M28.3325 3.5H13.6675C8.05215 3.5 3.5 8.05215 3.5 13.6675V28.3325C3.5 33.9479 8.05215 38.5 13.6675 38.5H28.3325C33.9479 38.5 38.5 33.9479 38.5 28.3325V13.6675C38.5 8.05215 33.9479 3.5 28.3325 3.5Z" fill="#0F0037"/>
<path d="M29.75 19.25H22.75V12.25C22.75 11.7859 22.5656 11.3408 22.2374 11.0126C21.9092 10.6844 21.4641 10.5 21 10.5C20.5359 10.5 20.0908 10.6844 19.7626 11.0126C19.4344 11.3408 19.25 11.7859 19.25 12.25V19.25H12.25C11.7859 19.25 11.3408 19.4344 11.0126 19.7626C10.6844 20.0908 10.5 20.5359 10.5 21C10.5 21.4641 10.6844 21.9092 11.0126 22.2374C11.3408 22.5656 11.7859 22.75 12.25 22.75H19.25V29.75C19.25 30.2141 19.4344 30.6593 19.7626 30.9874C20.0908 31.3156 20.5359 31.5 21 31.5C21.4641 31.5 21.9092 31.3156 22.2374 30.9874C22.5656 30.6593 22.75 30.2141 22.75 29.75V22.75H29.75C30.2141 22.75 30.6593 22.5656 30.9874 22.2374C31.3156 21.9092 31.5 21.4641 31.5 21C31.5 20.5359 31.3156 20.0908 30.9874 19.7626C30.6593 19.4344 30.2141 19.25 29.75 19.25Z" fill="#0F0037"/>
</svg>
