<svg width="24" height="24" viewBox="0 0 24 24" fill="none" xmlns="http://www.w3.org/2000/svg">
<path d="M21.1101 6.31024C21.0161 6.1557 20.8879 6.02483 20.7353 5.92773C20.5827 5.83063 20.4098 5.7699 20.2301 5.75024C20.0502 5.72985 19.8681 5.74783 19.6957 5.80299C19.5234 5.85815 19.3646 5.94923 19.2301 6.07024L16.3001 8.80024C16.1168 8.97321 15.99 9.19755 15.9365 9.44381C15.883 9.69008 15.9051 9.94678 16.0001 10.1802C16.2065 10.6782 16.3151 11.2112 16.3201 11.7502C16.3165 12.4183 16.1554 13.0761 15.8501 13.6702C15.7265 13.892 15.6746 14.1466 15.7014 14.399C15.7283 14.6515 15.8326 14.8894 16.0001 15.0802L19.0001 18.1902C19.1152 18.3171 19.2557 18.4182 19.4125 18.4871C19.5693 18.556 19.7388 18.5912 19.9101 18.5902H20.0001C20.1807 18.5759 20.3559 18.5219 20.5132 18.432C20.6705 18.3421 20.806 18.2186 20.9101 18.0702C22.0923 16.3488 22.745 14.319 22.7877 12.2311C22.8303 10.1433 22.261 8.08852 21.1501 6.32024L21.1101 6.31024ZM19.8301 17.0702L17.1601 14.2102C17.4999 13.5209 17.6924 12.7682 17.7251 12.0003C17.7578 11.2323 17.6301 10.466 17.3501 9.75024L20.0001 7.25024C20.8636 8.68518 21.3264 10.3255 21.3401 12.0002C21.3416 13.8013 20.8167 15.5635 19.8301 17.0702ZM8.94005 7.50024C9.1177 7.68634 9.34843 7.81309 9.60078 7.86321C9.85312 7.91332 10.1148 7.88434 10.3501 7.78024C10.947 7.52421 11.5948 7.40907 12.2434 7.44375C12.892 7.47843 13.5239 7.66201 14.0901 7.98024C14.2793 8.0865 14.493 8.14164 14.7101 8.14024C15.0219 8.14166 15.3225 8.02357 15.5501 7.81024L18.3701 5.17024C18.5052 5.04298 18.6104 4.88721 18.6779 4.71423C18.7453 4.54126 18.7734 4.35542 18.7601 4.17024C18.7488 3.99112 18.6981 3.81669 18.6117 3.65939C18.5253 3.5021 18.4052 3.36581 18.2601 3.26024C16.5699 2.05016 14.5651 1.35606 12.4886 1.26199C10.412 1.16793 8.35271 1.67793 6.56006 2.73024C6.39929 2.8236 6.26177 2.95219 6.15785 3.10634C6.05393 3.26049 5.9863 3.43619 5.96006 3.62024C5.94288 3.80068 5.96335 3.98273 6.02015 4.15486C6.07695 4.32699 6.16886 4.48546 6.29006 4.62024L8.94005 7.50024ZM12.0001 2.66024C13.8737 2.65605 15.7045 3.22098 17.2501 4.28024L14.6801 6.69024C13.8567 6.24435 12.9364 6.00741 12.0001 6.00024C11.2762 6.0023 10.5596 6.14494 9.89006 6.42024L7.46006 3.84024C8.84837 3.0671 10.411 2.66096 12.0001 2.66024ZM15.2801 15.9002C15.0988 15.7062 14.8596 15.576 14.5983 15.5292C14.3369 15.4823 14.0674 15.5213 13.8301 15.6402C13.261 15.9215 12.6348 16.0678 12.0001 16.0678C11.3653 16.0678 10.7391 15.9215 10.1701 15.6402C9.94564 15.5278 9.69218 15.4866 9.44371 15.5224C9.19524 15.5581 8.96365 15.669 8.78006 15.8402L5.60006 18.8402C5.46429 18.9671 5.35875 19.1228 5.29125 19.2959C5.22374 19.4689 5.196 19.655 5.21006 19.8402C5.21918 20.0212 5.26884 20.1979 5.35539 20.3571C5.44193 20.5164 5.56313 20.6541 5.71006 20.7602C7.49702 22.041 9.63458 22.7414 11.833 22.7665C14.0314 22.7915 16.1844 22.14 18.0001 20.9002C18.1475 20.8014 18.2715 20.6714 18.3631 20.5193C18.4547 20.3672 18.5117 20.1968 18.5301 20.0202C18.5518 19.8396 18.5335 19.6563 18.4765 19.4835C18.4194 19.3106 18.3251 19.1525 18.2001 19.0202L15.2801 15.9002ZM12.0001 21.3402C10.1144 21.3421 8.27283 20.7701 6.72006 19.7002L9.65005 17.0002C10.3848 17.3413 11.185 17.5179 11.9951 17.5179C12.8051 17.5179 13.6053 17.3413 14.3401 17.0002L17.0001 19.8502C15.5095 20.8133 13.7747 21.3303 12.0001 21.3402ZM7.84006 15.0002C8.03437 14.8193 8.16547 14.5808 8.21408 14.3197C8.26268 14.0587 8.22622 13.789 8.11005 13.5502C7.83554 12.9827 7.69201 12.3607 7.69006 11.7302C7.68726 10.9955 7.8732 10.2725 8.23005 9.63024C8.36396 9.40204 8.42072 9.13675 8.3919 8.87374C8.36307 8.61073 8.25021 8.36402 8.07006 8.17024L5.40006 5.34024C5.27558 5.20088 5.12051 5.09224 4.94701 5.02284C4.77352 4.95344 4.58631 4.92517 4.40006 4.94024C4.22365 4.94925 4.0512 4.99584 3.89426 5.0769C3.73732 5.15795 3.59951 5.2716 3.49006 5.41024C2.02151 7.2914 1.23211 9.61381 1.25006 12.0002C1.24965 14.0013 1.81094 15.9624 2.87006 17.6602C2.96401 17.8148 3.09223 17.9457 3.24482 18.0428C3.3974 18.1399 3.57027 18.2006 3.75006 18.2202H3.91006C4.22828 18.2237 4.53585 18.1057 4.77006 17.8902L7.84006 15.0002ZM6.27006 11.7502C6.26968 12.5514 6.44371 13.3431 6.78006 14.0702L4.00006 16.7202C3.0631 15.1493 2.61073 13.3367 2.69968 11.5098C2.78863 9.68279 3.41493 7.92273 4.50006 6.45024L7.00006 9.06024C6.5339 9.88105 6.28278 10.8064 6.27006 11.7502Z" fill="white"/>
</svg>
