<svg width="21" height="22" viewBox="0 0 21 22" fill="none" xmlns="http://www.w3.org/2000/svg">
<path opacity="0.3" d="M19.5001 18.3987L16.3301 15.3987C15.7274 16.1747 15.005 16.8498 14.1901 17.3987L17.4501 20.4987C17.5871 20.6588 17.7566 20.788 17.9473 20.8777C18.138 20.9675 18.3456 21.0158 18.5563 21.0194C18.7671 21.023 18.9762 20.9819 19.1699 20.8987C19.3635 20.8155 19.5373 20.6922 19.6798 20.5369C19.8223 20.3816 19.9302 20.1978 19.9964 19.9977C20.0627 19.7976 20.0857 19.5858 20.0639 19.3761C20.0422 19.1665 19.9763 18.9638 19.8705 18.7815C19.7646 18.5992 19.6214 18.4415 19.4501 18.3187L19.5001 18.3987Z" fill="#A1A5B7"/>
<path d="M9.14002 0.97876C7.35999 0.97876 5.61993 1.5066 4.13989 2.49553C2.65984 3.48447 1.50629 4.89007 0.825103 6.53461C0.143914 8.17914 -0.0343158 9.98874 0.312951 11.7346C0.660218 13.4804 1.51739 15.084 2.77606 16.3427C4.03473 17.6014 5.63838 18.4586 7.38421 18.8058C9.13003 19.1531 10.9396 18.9749 12.5842 18.2937C14.2287 17.6125 15.6343 16.4589 16.6232 14.9789C17.6122 13.4988 18.14 11.7588 18.14 9.97876C18.14 7.59181 17.1918 5.30263 15.504 3.6148C13.8162 1.92697 11.527 0.97876 9.14002 0.97876ZM9.14002 16.3388C7.88453 16.3388 6.65722 15.9666 5.61319 15.2693C4.56915 14.572 3.75526 13.5808 3.27435 12.4211C2.79344 11.2614 2.6671 9.98512 2.91131 8.75361C3.15552 7.5221 3.7593 6.39063 4.64637 5.50217C5.53343 4.61371 6.66396 4.00814 7.89508 3.76199C9.1262 3.51585 10.4027 3.64018 11.5631 4.11926C12.7236 4.59834 13.716 5.41068 14.415 6.45362C15.1139 7.49655 15.488 8.72328 15.49 9.97876C15.4927 10.8139 15.3303 11.6413 15.0122 12.4134C14.6942 13.1856 14.2267 13.8873 13.6366 14.4783C13.0466 15.0693 12.3456 15.5379 11.5739 15.8571C10.8023 16.1764 9.97513 16.3401 9.14002 16.3388Z" fill="#A1A5B7"/>
</svg>
