<svg width="20" height="20" viewBox="0 0 20 20" fill="none" xmlns="http://www.w3.org/2000/svg">
<path opacity="0.3" d="M16.8166 7.69999H15.6583C15.4519 7.1816 15.1711 6.69596 14.825 6.25832L15.3916 5.27499C15.5944 4.91988 15.6486 4.49903 15.5425 4.10413C15.4363 3.70923 15.1784 3.37227 14.825 3.16666L13.4666 2.38332C13.2911 2.28182 13.0972 2.21596 12.8961 2.18951C12.6951 2.16306 12.4908 2.17654 12.2949 2.22918C12.0991 2.28182 11.9155 2.37258 11.7548 2.49627C11.5941 2.61996 11.4593 2.77414 11.3583 2.94999L10.7833 3.94999C10.5239 3.9109 10.2623 3.88863 9.99998 3.88332C9.73789 3.88587 9.47623 3.90536 9.21665 3.94166L8.65832 2.94999C8.4571 2.59426 8.12286 2.33299 7.72907 2.22361C7.33529 2.11422 6.91418 2.16567 6.55832 2.36666L5.19165 3.14166C4.83592 3.34288 4.57465 3.67712 4.46527 4.0709C4.35588 4.46469 4.40733 4.88579 4.60832 5.24166L5.17498 6.24999C4.83375 6.68492 4.55339 7.16433 4.34165 7.67499H3.21665C3.01359 7.67166 2.8119 7.70892 2.62344 7.78459C2.43497 7.86025 2.26351 7.9728 2.11913 8.11563C1.97475 8.25846 1.86035 8.42869 1.78265 8.61633C1.70495 8.80397 1.66551 9.00524 1.66665 9.20832V10.775C1.66555 10.9774 1.70434 11.1781 1.78081 11.3656C1.85727 11.5531 1.96991 11.7236 2.11229 11.8676C2.25468 12.0115 2.42402 12.126 2.61064 12.2045C2.79727 12.2829 2.99753 12.3239 3.19998 12.325H4.34165C4.55047 12.8371 4.83106 13.3169 5.17498 13.75L4.59998 14.7333C4.49868 14.9083 4.43296 15.1015 4.40662 15.3019C4.38028 15.5024 4.39384 15.706 4.4465 15.9012C4.49917 16.0964 4.58991 16.2792 4.7135 16.4392C4.83709 16.5991 4.99109 16.7331 5.16665 16.8333L6.52498 17.625C6.70056 17.7265 6.89443 17.7923 7.0955 17.8188C7.29657 17.8453 7.50088 17.8318 7.69673 17.7791C7.89258 17.7265 8.07612 17.6357 8.23684 17.512C8.39755 17.3883 8.53229 17.2342 8.63332 17.0583L9.20832 16.0583C9.47024 16.0987 9.73497 16.1182 9.99998 16.1167C10.2787 16.1145 10.557 16.095 10.8333 16.0583L11.4 17.0417C11.5002 17.2172 11.6342 17.3712 11.7941 17.4948C11.9541 17.6184 12.1369 17.7091 12.3321 17.7618C12.5273 17.8145 12.7309 17.828 12.9314 17.8017C13.1318 17.7753 13.325 17.7096 13.5 17.6083L14.8583 16.825C15.0346 16.7255 15.1894 16.592 15.3138 16.4324C15.4382 16.2727 15.5298 16.09 15.5833 15.8948C15.6367 15.6995 15.651 15.4957 15.6252 15.2949C15.5995 15.0941 15.5343 14.9004 15.4333 14.725L14.8583 13.725C15.1924 13.3003 15.4724 12.8356 15.6916 12.3417H16.8166C17.2142 12.3312 17.5927 12.1692 17.8746 11.8888C18.1566 11.6084 18.3207 11.2308 18.3333 10.8333V9.25832C18.3378 8.85086 18.1807 8.45821 17.8965 8.1662C17.6123 7.87419 17.2241 7.70657 16.8166 7.69999Z" fill="#A1A5B7"/>
<path d="M9.99166 12.7083C11.4874 12.7083 12.7 11.4957 12.7 9.99996C12.7 8.50419 11.4874 7.29163 9.99166 7.29163C8.49589 7.29163 7.28333 8.50419 7.28333 9.99996C7.28333 11.4957 8.49589 12.7083 9.99166 12.7083Z" fill="#A1A5B7"/>
</svg>
