<svg width="38" height="38" viewBox="0 0 38 38" fill="none" xmlns="http://www.w3.org/2000/svg">
<rect width="38" height="38" rx="5" fill="#1756FF"/>
<path d="M22.179 17.0994C22.0606 16.7159 21.8973 16.3726 21.6889 16.0696C21.4853 15.7618 21.2391 15.4991 20.9503 15.2812C20.6662 15.0634 20.3395 14.9001 19.9702 14.7912C19.6009 14.6776 19.1984 14.6207 18.7628 14.6207C17.9815 14.6207 17.2855 14.8172 16.6747 15.2102C16.0639 15.6032 15.5833 16.1809 15.233 16.9432C14.8873 17.7008 14.7145 18.6241 14.7145 19.7131C14.7145 20.8116 14.8873 21.742 15.233 22.5043C15.5786 23.2666 16.0592 23.8466 16.6747 24.2443C17.2902 24.6373 18.0052 24.8338 18.8196 24.8338C19.5582 24.8338 20.1974 24.6918 20.7372 24.4077C21.2817 24.1236 21.7008 23.7211 21.9943 23.2003C22.2879 22.6747 22.4347 22.0592 22.4347 21.3537L23.0312 21.446H19.0824V19.3864H24.9844V21.1335C24.9844 22.3788 24.7192 23.456 24.1889 24.3651C23.6586 25.2741 22.9295 25.9749 22.0014 26.4673C21.0734 26.955 20.008 27.1989 18.8054 27.1989C17.4654 27.1989 16.2888 26.8982 15.2756 26.2969C14.267 25.6908 13.4787 24.8314 12.9105 23.7188C12.3471 22.6013 12.0653 21.2756 12.0653 19.7415C12.0653 18.5672 12.2311 17.5185 12.5625 16.5952C12.8987 15.6719 13.3674 14.8883 13.9688 14.2443C14.5701 13.5956 15.2756 13.1032 16.0852 12.767C16.8949 12.4261 17.7756 12.2557 18.7273 12.2557C19.5322 12.2557 20.2827 12.3741 20.9787 12.6108C21.6747 12.8428 22.2926 13.1742 22.8324 13.6051C23.3769 14.036 23.8243 14.5473 24.1747 15.1392C24.5251 15.7311 24.7547 16.3845 24.8636 17.0994H22.179Z" fill="white"/>
</svg>
