<?xml version="1.0" standalone="no"?>
<!DOCTYPE svg PUBLIC "-//W3C//DTD SVG 20010904//EN"
 "http://www.w3.org/TR/2001/REC-SVG-20010904/DTD/svg10.dtd">
<svg version="1.0" xmlns="http://www.w3.org/2000/svg"
 width="49.000000pt" height="49.000000pt" viewBox="0 0 49.000000 49.000000"
 preserveAspectRatio="xMidYMid meet">

<g transform="translate(0.000000,49.000000) scale(0.100000,-0.100000)"
fill="#000000" stroke="none">
<path d="M189 427 c-21 -16 -39 -51 -38 -74 0 -15 2 -15 11 4 8 16 26 25 65
33 67 14 78 10 97 -35 18 -43 26 -44 26 -4 0 48 -47 89 -102 89 -24 0 -50 -6
-59 -13z"/>
<path d="M168 323 c7 -3 16 -2 19 1 4 3 -2 6 -13 5 -11 0 -14 -3 -6 -6z"/>
<path d="M178 303 c6 -2 18 -2 25 0 6 3 1 5 -13 5 -14 0 -19 -2 -12 -5z"/>
<path d="M313 163 c-7 -3 -13 -11 -13 -19 0 -8 -5 -14 -11 -14 -6 0 -8 -7 -5
-16 5 -14 4 -15 -9 -4 -8 7 -21 10 -30 7 -14 -6 -40 12 -47 34 -3 9 -22 4 -62
-15 -47 -23 -61 -35 -76 -69 -13 -28 -16 -45 -9 -52 6 -6 86 -11 184 -13 163
-3 175 -2 175 15 0 14 2 15 9 4 5 -8 16 -11 26 -7 14 5 15 9 5 21 -10 12 -9
15 6 15 16 0 16 2 -3 23 -11 12 -19 27 -16 34 6 17 -37 43 -73 43 -18 0 -34 4
-36 9 -1 4 -9 6 -15 4z m37 -43 c0 -5 -5 -10 -11 -10 -5 0 -7 5 -4 10 3 6 8
10 11 10 2 0 4 -4 4 -10z m73 -20 c-3 -11 -7 -20 -9 -20 -2 0 -4 9 -4 20 0 11
4 20 9 20 5 0 7 -9 4 -20z m-173 -4 c0 -2 -7 -9 -15 -16 -13 -11 -14 -10 -9 4
5 14 24 23 24 12z m140 0 c0 -3 -4 -8 -10 -11 -5 -3 -10 -1 -10 4 0 6 5 11 10
11 6 0 10 -2 10 -4z m-122 -56 c-7 -10 -14 -18 -15 -16 -6 6 9 36 18 36 5 0 4
-9 -3 -20z"/>
<path d="M445 100 c-3 -5 -1 -10 4 -10 6 0 11 5 11 10 0 6 -2 10 -4 10 -3 0
-8 -4 -11 -10z"/>
</g>
</svg>
