<svg width="20" height="18" viewBox="0 0 20 18" fill="none" xmlns="http://www.w3.org/2000/svg">
<path opacity="0.3" d="M10 0.439941C5.27 0.439941 0 5.05994 0 8.99994C0 12.7599 5.27 17.5599 10 17.5599C15 17.5599 20 12.9699 20 8.99994C20 5.17994 14.73 0.439941 10 0.439941ZM10 13.3499C9.13965 13.3499 8.29862 13.0948 7.58327 12.6168C6.86792 12.1389 6.31037 11.4595 5.98112 10.6646C5.65188 9.86975 5.56574 8.99512 5.73358 8.1513C5.90143 7.30748 6.31573 6.53239 6.92409 5.92403C7.53244 5.31567 8.30754 4.90137 9.15136 4.73353C9.99517 4.56568 10.8698 4.65182 11.6647 4.98107C12.4595 5.31031 13.1389 5.86786 13.6169 6.58321C14.0949 7.29856 14.35 8.13959 14.35 8.99994C14.35 10.1536 13.8917 11.2601 13.0759 12.0759C12.2601 12.8916 11.1537 13.3499 10 13.3499Z" fill="black"/>
</svg>
