<svg width="16" height="9" viewBox="0 0 16 9" fill="none" xmlns="http://www.w3.org/2000/svg">
<path d="M7.99994 8.19989C7.86833 8.20065 7.73787 8.17543 7.61603 8.12566C7.4942 8.0759 7.38338 8.00257 7.28994 7.90989L1.28994 1.90989C1.1967 1.81665 1.12274 1.70596 1.07228 1.58414C1.02182 1.46232 0.99585 1.33175 0.99585 1.19989C0.99585 0.93359 1.10164 0.678196 1.28994 0.489892C1.47825 0.301588 1.73364 0.195801 1.99994 0.195801C2.26624 0.195801 2.52164 0.301588 2.70994 0.489892L7.99994 5.77989L13.2899 0.489892C13.3832 0.396653 13.4939 0.322692 13.6157 0.272232C13.7375 0.221772 13.8681 0.195801 13.9999 0.195801C14.1318 0.195801 14.2624 0.221772 14.3842 0.272232C14.506 0.322692 14.6167 0.396653 14.7099 0.489892C14.8032 0.583131 14.8771 0.693821 14.9276 0.815643C14.9781 0.937465 15.004 1.06803 15.004 1.19989C15.004 1.33175 14.9781 1.46232 14.9276 1.58414C14.8771 1.70596 14.8032 1.81665 14.7099 1.90989L8.70994 7.90989C8.6165 8.00257 8.50569 8.0759 8.38385 8.12566C8.26201 8.17543 8.13155 8.20065 7.99994 8.19989Z" fill="black"/>
</svg>
