<svg width="28" height="32" viewBox="0 0 28 32" fill="none" xmlns="http://www.w3.org/2000/svg">
<path d="M26.7152 9.22234L18.4027 0.909844C18.2923 0.799603 18.1613 0.712187 18.0171 0.652588C17.873 0.59299 17.7185 0.562378 17.5625 0.5625H3.3125C2.68261 0.5625 2.07852 0.812723 1.63312 1.25812C1.18772 1.70352 0.9375 2.30761 0.9375 2.9375V29.0625C0.9375 29.6924 1.18772 30.2965 1.63312 30.7419C2.07852 31.1873 2.68261 31.4375 3.3125 31.4375H24.6875C25.3174 31.4375 25.9215 31.1873 26.3669 30.7419C26.8123 30.2965 27.0625 29.6924 27.0625 29.0625V10.0625C27.0626 9.90651 27.032 9.75202 26.9724 9.60787C26.9128 9.46371 26.8254 9.33271 26.7152 9.22234ZM11.2777 22.2848C11.388 22.3952 11.4755 22.5262 11.5352 22.6703C11.5949 22.8145 11.6257 22.969 11.6257 23.125C11.6257 23.281 11.5949 23.4355 11.5352 23.5797C11.4755 23.7238 11.388 23.8548 11.2777 23.9652C11.1673 24.0755 11.0363 24.163 10.8922 24.2227C10.748 24.2824 10.5935 24.3132 10.4375 24.3132C10.2815 24.3132 10.127 24.2824 9.98281 24.2227C9.83866 24.163 9.70767 24.0755 9.59734 23.9652L6.03484 20.4027C5.92443 20.2924 5.83685 20.1614 5.77709 20.0172C5.71733 19.8731 5.68657 19.7186 5.68657 19.5625C5.68657 19.4064 5.71733 19.2519 5.77709 19.1078C5.83685 18.9636 5.92443 18.8326 6.03484 18.7223L9.59734 15.1598C9.82017 14.937 10.1224 14.8118 10.4375 14.8118C10.7526 14.8118 11.0548 14.937 11.2777 15.1598C11.5005 15.3827 11.6257 15.6849 11.6257 16C11.6257 16.3151 11.5005 16.6173 11.2777 16.8402L8.55383 19.5625L11.2777 22.2848ZM21.9652 20.4027L18.4027 23.9652C18.1798 24.188 17.8776 24.3132 17.5625 24.3132C17.2474 24.3132 16.9452 24.188 16.7223 23.9652C16.4995 23.7423 16.3743 23.4401 16.3743 23.125C16.3743 22.8099 16.4995 22.5077 16.7223 22.2848L19.4462 19.5625L16.7223 16.8402C16.4995 16.6173 16.3743 16.3151 16.3743 16C16.3743 15.6849 16.4995 15.3827 16.7223 15.1598C16.9452 14.937 17.2474 14.8118 17.5625 14.8118C17.8776 14.8118 18.1798 14.937 18.4027 15.1598L21.9652 18.7223C22.0756 18.8326 22.1632 18.9636 22.2229 19.1078C22.2827 19.2519 22.3134 19.4064 22.3134 19.5625C22.3134 19.7186 22.2827 19.8731 22.2229 20.0172C22.1632 20.1614 22.0756 20.2924 21.9652 20.4027ZM17.5625 10.0625V3.53125L24.0938 10.0625H17.5625Z" fill="#343330"/>
</svg>
