<svg width="32" height="32" viewBox="0 0 32 32" fill="none" xmlns="http://www.w3.org/2000/svg">
<path d="M14.9709 4.09343L14.4168 2.76343C14.1112 2.00011 13.5849 1.3453 12.9051 0.882731C12.2254 0.420166 11.4231 0.170882 10.6009 0.166765H7.43426C6.48063 0.164683 5.53595 0.350717 4.65431 0.714215C3.77267 1.07771 2.97138 1.61154 2.29632 2.28512C1.62126 2.95871 1.08569 3.75883 0.720274 4.63968C0.354854 5.52052 0.166761 6.4648 0.166763 7.41843V23.4734C0.164677 24.5719 0.379491 25.6599 0.798881 26.6751C1.21827 27.6904 1.83398 28.6128 2.6107 29.3895C3.38741 30.1662 4.30984 30.7819 5.32506 31.2013C6.34029 31.6207 7.42833 31.8355 8.52676 31.8334H23.4734C24.5719 31.8355 25.6599 31.6207 26.6751 31.2013C27.6904 30.7819 28.6128 30.1662 29.3895 29.3895C30.1662 28.6128 30.7819 27.6904 31.2013 26.6751C31.6207 25.6599 31.8355 24.5719 31.8334 23.4734V15.0343C31.8334 13.9364 31.6172 12.8493 31.1971 11.835C30.7769 10.8208 30.1611 9.89915 29.3848 9.12285C28.6085 8.34655 27.6869 7.73076 26.6727 7.31063C25.6584 6.8905 24.5713 6.67427 23.4734 6.67427H18.7234C17.9124 6.66521 17.1224 6.41494 16.4541 5.95532C15.7859 5.4957 15.2695 4.84754 14.9709 4.09343Z" fill="#343330"/>
</svg>
