<svg width="80" height="80" viewBox="0 0 80 80" fill="none" xmlns="http://www.w3.org/2000/svg">
<rect width="80" height="80" rx="40" fill="#F2F7FF"/>
<path d="M24.9998 28.3333V27.5C24.7788 27.5 24.5669 27.5878 24.4106 27.7441C24.2543 27.9004 24.1665 28.1123 24.1665 28.3333H24.9998ZM54.9998 28.3333H55.8332C55.8332 28.1123 55.7454 27.9004 55.5891 27.7441C55.4328 27.5878 55.2208 27.5 54.9998 27.5V28.3333ZM24.9998 29.1667H54.9998V27.5H24.9998V29.1667ZM54.1665 28.3333V48.3333H55.8332V28.3333H54.1665ZM51.6665 50.8333H28.3332V52.5H51.6665V50.8333ZM25.8332 48.3333V28.3333H24.1665V48.3333H25.8332ZM28.3332 50.8333C27.6701 50.8333 27.0342 50.5699 26.5654 50.1011C26.0966 49.6323 25.8332 48.9964 25.8332 48.3333H24.1665C24.1665 49.4384 24.6055 50.4982 25.3869 51.2796C26.1683 52.061 27.2281 52.5 28.3332 52.5V50.8333ZM54.1665 48.3333C54.1665 48.9964 53.9031 49.6323 53.4343 50.1011C52.9654 50.5699 52.3295 50.8333 51.6665 50.8333V52.5C52.7716 52.5 53.8314 52.061 54.6128 51.2796C55.3942 50.4982 55.8332 49.4384 55.8332 48.3333H54.1665Z" fill="#032E61"/>
<path d="M25 28.3333L40 43.3333L55 28.3333" stroke="#032E61" stroke-width="1.66667" stroke-linecap="round" stroke-linejoin="round"/>
</svg>
