<svg width="80" height="80" viewBox="0 0 80 80" fill="none" xmlns="http://www.w3.org/2000/svg">
<rect width="80" height="80" rx="40" fill="#F2F7FF"/>
<path d="M39.604 57C38.6745 57 37.8814 56.6727 37.2246 56.0182C36.5679 55.3651 36.2395 54.5797 36.2395 53.662H42.9811C42.9811 54.5852 42.6506 55.3727 41.9897 56.0244C41.3274 56.6748 40.5321 57 39.604 57ZM51.6513 40.5041V34.3033H45.3897V32.2364H51.6513V26.0357H53.7384V32.2364H60V34.3033H53.7384V40.5041H51.6513ZM25 51.593V49.5261H28.3729V33.15C28.3729 30.4493 29.2356 28.0744 30.961 26.0254C32.6864 23.9764 34.8738 22.6998 37.5231 22.1954V21.0669C37.5231 20.4923 37.7256 20.0045 38.1305 19.6035C38.5354 19.2012 39.0273 19 39.6061 19C40.185 19 40.6782 19.2012 41.0859 19.6035C41.4936 20.0059 41.6975 20.4937 41.6975 21.0669V22.1954C42.3459 22.3332 42.9714 22.5062 43.5739 22.7142C44.1778 22.9223 44.7552 23.1999 45.3062 23.5472C45.0251 23.7911 44.7489 24.0329 44.4776 24.2727C44.2063 24.5138 43.969 24.7729 43.7659 25.0498C43.1342 24.7288 42.4718 24.4883 41.7789 24.3285C41.0859 24.1673 40.3631 24.0866 39.6103 24.0866C37.0737 24.0866 34.9141 24.9692 33.1317 26.7343C31.3492 28.4995 30.4587 30.638 30.4601 33.15V49.5261H48.7626V44.7722C49.0938 44.9128 49.4263 45.0306 49.7603 45.1256C50.0942 45.2207 50.4567 45.2979 50.8477 45.3571V49.5261H54.2206V51.593H25Z" fill="#032E61"/>
</svg>
