<svg width="80" height="80" viewBox="0 0 80 80" fill="none" xmlns="http://www.w3.org/2000/svg">
<rect width="80" height="80" rx="40" fill="#F2F7FF"/>
<g clip-path="url(#clip0_826_11633)">
<path d="M38.3086 22.0794C36.3961 22.3607 34.793 23.0849 33.3445 24.3224C31.0594 26.2771 29.8219 29.2865 30.0539 32.324C30.2227 34.581 31.1367 36.5919 32.7609 38.2724C33.0844 38.6169 33.3516 38.8912 33.3516 38.8982C33.3516 38.9052 33.1195 39.0107 32.8453 39.1372C30.9469 40.0091 28.9148 41.6193 27.4805 43.3841C25.5961 45.6974 24.3516 48.7841 24.0773 51.7935C24.0352 52.2365 24 53.7201 24 55.0841V57.5732L24.2039 57.7771C24.4711 58.0443 24.7242 58.0443 24.9914 57.7771L25.1953 57.5732V55.1544C25.1953 51.7373 25.3219 50.6333 25.9125 48.7771C27.1641 44.8677 29.9906 41.7388 33.8227 40.0091L34.4977 39.7068L35.0672 40.0162C37.8656 41.5208 41.1352 41.556 43.9758 40.1005L44.7141 39.7208L45.2344 39.9458C45.9797 40.2622 46.4367 40.5013 47.2102 40.9724C47.5828 41.1974 47.9555 41.3872 48.0328 41.3872C48.4547 41.3872 48.75 41.0146 48.6305 40.6349C48.5461 40.3818 47.8641 39.9107 46.7461 39.3412C46.2821 39.1021 45.8883 38.8912 45.8672 38.8771C45.8461 38.856 46.0078 38.6802 46.2258 38.4833C47.0485 37.724 47.7867 36.6904 48.3211 35.5443C49.2774 33.4771 49.4391 31.1146 48.7781 28.8154C48.5883 28.1404 47.9977 26.8818 47.5617 26.2349C46.718 24.9623 45.2766 23.6966 43.8633 22.9794C42.2953 22.1919 40.0313 21.8263 38.3086 22.0794ZM40.7344 23.2747C44.8828 23.8372 47.9766 27.381 47.9766 31.5787C47.9766 36.8662 43.111 40.8599 37.957 39.8052C36.2977 39.4677 34.8703 38.6872 33.668 37.4849C33.0914 36.9083 32.4445 36.0365 32.1281 35.4247C31.3125 33.8357 31.0242 31.6982 31.3828 29.9263C32.0297 26.7482 34.4766 24.1888 37.6055 23.4294C38.6742 23.1693 39.6024 23.1271 40.7344 23.2747Z" fill="#032E61"/>
<path d="M50.0156 41.3732C49.8399 41.556 49.8117 41.6333 49.7766 42.2029C49.6922 43.3068 49.7414 43.2154 49.0735 43.5037L48.4828 43.7568L47.843 43.2013C46.9008 42.3998 46.936 42.3927 45.6703 43.6583C44.4117 44.924 44.4188 44.8818 45.2203 45.824L45.7758 46.4638L45.5227 47.0544C45.2344 47.7224 45.3258 47.6732 44.2219 47.7576C43.6524 47.7927 43.575 47.8208 43.3922 47.9966L43.1953 48.1935V50.9638L43.3922 51.1607C43.568 51.3294 43.6594 51.3646 44.1516 51.3998C45.361 51.4982 45.2414 51.4349 45.5227 52.1099L45.7758 52.6935L45.2203 53.3404C44.4188 54.2826 44.4117 54.2404 45.6774 55.506C46.943 56.7646 46.9008 56.7576 47.85 55.949L48.5039 55.3935L48.8203 55.5552C48.9961 55.6396 49.2563 55.7521 49.3969 55.7943C49.6922 55.8927 49.6992 55.9068 49.7766 56.9544C49.8117 57.524 49.8399 57.6013 50.0156 57.7841L50.2125 57.981H51.5555C52.3852 57.981 52.9547 57.9529 53.0602 57.9037C53.2922 57.7982 53.3695 57.6013 53.4258 56.9896C53.5172 55.8716 53.5102 55.8857 53.7984 55.7943C53.9391 55.7521 54.1992 55.6396 54.375 55.5552L54.6914 55.3935L55.3453 55.949C55.9289 56.4482 56.0273 56.5044 56.2875 56.5044C56.5688 56.5044 56.618 56.4693 57.5531 55.5341C58.4883 54.599 58.5234 54.5498 58.5234 54.2685C58.5234 54.0083 58.4672 53.9099 57.968 53.3263L57.4125 52.6724L57.5742 52.356C57.6586 52.1802 57.7711 51.9201 57.8133 51.7794C57.9047 51.4912 57.8906 51.4982 59.0086 51.4068C59.6203 51.3505 59.8172 51.2732 59.9227 51.0412C59.9719 50.9357 60 50.3662 60 49.5365V48.1935L59.8031 47.9966C59.6203 47.8208 59.543 47.7927 58.9734 47.7576C57.9258 47.6802 57.9117 47.6732 57.8133 47.3779C57.7711 47.2373 57.6586 46.9771 57.5742 46.8013L57.4125 46.4849L57.968 45.831C58.7766 44.8748 58.7836 44.9169 57.518 43.6513C56.2594 42.3927 56.2945 42.3998 55.3594 43.2013L54.7125 43.7568L54.1289 43.5037C53.4539 43.2224 53.5172 43.3419 53.4188 42.1326C53.3836 41.6404 53.3484 41.549 53.1797 41.3732L52.9828 41.1763H50.2125L50.0156 41.3732ZM52.3078 43.1802C52.3922 44.1435 52.4344 44.2138 53.1375 44.4177C53.4117 44.5021 53.8758 44.6919 54.1781 44.8466C54.5719 45.0435 54.7617 45.1068 54.8953 45.0716C54.9938 45.0505 55.3313 44.8044 55.6477 44.5373L56.2172 44.038L57.1383 44.9591L56.6391 45.5427C56.3648 45.8662 56.1188 46.2037 56.0977 46.2951C56.0695 46.4146 56.1399 46.6255 56.3367 46.9982C56.4844 47.3005 56.6813 47.7646 56.7656 48.0458C56.9766 48.7419 57.0328 48.7841 57.9961 48.8685L58.8047 48.9388V50.2185L57.9961 50.2888C57.0328 50.3732 56.9766 50.4154 56.7656 51.1115C56.6813 51.3927 56.4844 51.8568 56.3367 52.1591C56.1328 52.5529 56.0695 52.7427 56.1047 52.8763C56.1258 52.9748 56.3719 53.3123 56.6391 53.6287L57.1383 54.1982L56.6742 54.6552L56.2172 55.1193L55.6477 54.6201C55.3313 54.3529 54.9938 54.1068 54.8953 54.0857C54.7617 54.0505 54.5719 54.1138 54.1781 54.3177C53.8758 54.4654 53.4117 54.6623 53.1305 54.7466C52.4344 54.9576 52.3922 55.0138 52.3078 55.9771L52.2375 56.7857H50.9578L50.8875 55.9771C50.8031 55.0138 50.761 54.9576 50.0649 54.7466C49.7836 54.6623 49.3196 54.4654 49.0172 54.3177C48.6446 54.1208 48.4336 54.0505 48.3141 54.0787C48.2227 54.0998 47.8852 54.3458 47.5617 54.6201L46.9781 55.1193L46.057 54.1982L46.5563 53.6287C46.8235 53.3123 47.0695 52.9748 47.0977 52.8693C47.1328 52.7287 47.0695 52.5529 46.8656 52.1521C46.711 51.8568 46.5211 51.3927 46.4367 51.1185C46.2328 50.4154 46.1625 50.3732 45.1992 50.2888L44.3906 50.2185V48.9318L45.1641 48.8755C46.0992 48.8193 46.2328 48.7349 46.4016 48.1513C46.4649 47.9333 46.6547 47.4623 46.8235 47.1037C47.0555 46.6326 47.1258 46.4076 47.0906 46.281C47.0695 46.1826 46.8235 45.8451 46.5563 45.5287L46.057 44.9591L46.5211 44.5021L46.9781 44.038L47.5477 44.5373C47.8641 44.8044 48.2016 45.0505 48.3 45.0716C48.4266 45.1068 48.6516 45.0365 49.1227 44.8044C49.4813 44.6357 49.9453 44.4458 50.1633 44.3826C50.3742 44.3263 50.6063 44.2138 50.6766 44.1365C50.8031 43.9958 50.9227 43.3208 50.9297 42.7021V42.3716H52.2375L52.3078 43.1802Z" fill="#032E61"/>
<path d="M51.1758 45.9998C49.7344 46.2177 48.5461 47.2443 48.1383 48.6294C47.9836 49.1427 47.9906 50.0287 48.1453 50.556C48.4899 51.7091 49.3899 52.6302 50.5781 53.024C50.8383 53.1154 51.1688 53.1576 51.5977 53.1576C53.5946 53.1576 55.1766 51.5755 55.1766 49.5787C55.1766 47.6802 53.7281 46.1404 51.8086 45.9998C51.5766 45.9857 51.2953 45.9857 51.1758 45.9998ZM52.4414 47.3357C53.0461 47.5607 53.6789 48.2357 53.8828 48.8685C54.0024 49.2412 53.9883 50.0005 53.8547 50.3732C53.6227 51.0201 53.0391 51.6037 52.3922 51.8357C52.0195 51.9693 51.2602 51.9833 50.8875 51.8638C50.4235 51.7162 49.9031 51.3154 49.643 50.9287C49.3195 50.4435 49.2352 50.1341 49.2352 49.5365C49.2352 48.1162 50.5078 47.0333 51.9492 47.2302C52.1461 47.2583 52.3641 47.3076 52.4414 47.3357Z" fill="#032E61"/>
</g>
<defs>
<clipPath id="clip0_826_11633">
<rect width="36" height="36" fill="white" transform="translate(24 22)"/>
</clipPath>
</defs>
</svg>
