<svg width="80" height="80" viewBox="0 0 80 80" fill="none" xmlns="http://www.w3.org/2000/svg">
<rect width="80" height="80" rx="40" fill="#F2F7FF"/>
<mask id="path-2-inside-1_826_12068" fill="white">
<path d="M24.8971 22.1406C24.215 22.3234 23.6807 22.6328 23.1533 23.1531C22.626 23.6875 22.3166 24.2219 22.1408 24.932C22.0002 25.4734 22.0002 25.7266 22.0142 40.668L22.0346 55.3334C22.0351 55.6771 22.1122 56.0164 22.2603 56.3266C22.5486 56.9453 23.0549 57.4516 23.6736 57.7398C23.9838 57.888 24.3231 57.9648 24.6668 57.9648H40.0072H55.2652C55.6581 57.9648 56.0456 57.8734 56.3971 57.6977C57.0369 57.3883 57.4236 56.9805 57.7471 56.3125C57.8906 56.0116 57.965 55.6825 57.965 55.3491V40V24.6509C57.965 24.3175 57.8906 23.9884 57.7471 23.6875C57.4236 23.0195 57.0369 22.6117 56.3971 22.3023C56.0456 22.1266 55.6582 22.035 55.2652 22.0346L40.64 22.0211C25.8041 22.007 25.3963 22.007 24.8971 22.1406ZM39.2971 25.9023C39.2971 28.5883 39.3182 28.7641 39.6627 28.9891C39.7752 29.0664 39.9861 29.0875 40.3869 29.0805C41.2025 29.0664 41.6103 29.2211 42.1517 29.7625C42.4682 30.0859 42.6088 30.2898 42.7072 30.5781C43.108 31.7594 42.5736 32.9898 41.4557 33.5031C41.1041 33.6578 40.9564 33.6859 40.415 33.6789C39.8174 33.6789 39.7752 33.6859 39.5572 33.8758L39.3322 34.0797L39.3111 36.6883L39.29 39.2969H37.2158C35.6197 39.2969 35.1416 39.2758 35.1205 39.2055C35.1064 39.1633 35.0642 38.9312 35.015 38.6992C34.8041 37.525 33.8689 36.4352 32.6947 35.9852C30.965 35.3312 28.9471 36.0906 28.1033 37.7289C27.8783 38.1508 27.7939 38.418 27.6603 39.1L27.6252 39.2969H25.5158H23.4064L23.4205 32.2797L23.4405 25.6408C23.4412 25.3961 23.4943 25.1544 23.5963 24.932C23.9197 24.2359 24.4189 23.7789 25.115 23.5398C25.4596 23.4203 25.9236 23.4133 32.3924 23.4062H39.2971V25.9023ZM55.6377 23.4906C56.0033 23.6031 56.3971 23.9969 56.5096 24.3625C56.5728 24.5875 56.5939 26.3945 56.5939 31.9773V39.2969H54.1611H51.7283L51.5244 39.5008C51.3275 39.6977 51.3205 39.7258 51.3275 40.3727C51.3346 40.9562 51.3135 41.0969 51.1517 41.4555C50.4346 43.0164 48.4728 43.3258 47.3127 42.0602C46.8627 41.568 46.715 41.1391 46.7361 40.3375C46.7432 39.782 46.7291 39.7047 46.5814 39.5289L46.4127 39.332L43.5721 39.2969L40.7385 39.2617L40.7174 37.2016C40.7033 35.5914 40.7174 35.1414 40.7877 35.1203C40.8369 35.1062 41.0689 35.0641 41.301 35.0148C42.2713 34.8391 43.3189 34.0727 43.783 33.1937C44.5775 31.6961 44.3244 29.9242 43.1502 28.743C42.6791 28.2719 41.8072 27.8008 41.2869 27.7305C40.64 27.6391 40.7033 27.8781 40.7033 25.5086V23.4062H48.0228C53.6057 23.4062 55.4127 23.4273 55.6377 23.4906ZM32.3502 37.3773C32.8283 37.5883 33.2572 38.0242 33.5033 38.5445C33.6439 38.8469 33.6721 39.0227 33.6721 39.557C33.6721 40.1758 33.6791 40.218 33.876 40.4359L34.0799 40.668L36.6885 40.6891L39.2971 40.7102V42.9953C39.2971 44.7602 39.276 45.2805 39.2127 45.3016C39.1635 45.3156 38.9314 45.3578 38.6994 45.407C37.2299 45.6812 36.0064 46.975 35.7814 48.5148C35.5142 50.3289 36.6603 52.0867 38.4463 52.6141C38.6572 52.6773 38.9385 52.7266 39.065 52.7266H39.2971V54.6602V56.5937H31.9775C26.3947 56.5937 24.5877 56.5727 24.3627 56.5094C23.9971 56.3969 23.6033 56.0031 23.4908 55.6375C23.4275 55.4125 23.4064 53.6055 23.4064 48.0227V40.7031H25.9025C28.5885 40.7031 28.7642 40.682 28.9892 40.3375C29.0666 40.225 29.0877 40.0141 29.0807 39.6133C29.0666 38.8891 29.2213 38.432 29.6361 37.968C30.0228 37.5391 30.2971 37.3633 30.7963 37.2227C31.2885 37.0891 31.8228 37.1383 32.3502 37.3773ZM45.3017 40.7875C45.3158 40.8367 45.358 41.0687 45.4072 41.3008C45.5197 41.9336 45.9135 42.6719 46.3916 43.143C47.8541 44.6055 50.2236 44.6125 51.6721 43.15C52.2627 42.5523 52.7267 41.582 52.7267 40.9352V40.7031H54.6603H56.5939V48.0227C56.5939 53.6055 56.5728 55.4125 56.5096 55.6375C56.3971 56.0031 56.0033 56.3969 55.6377 56.5094C55.4127 56.5727 53.6057 56.5937 48.0228 56.5937H40.7033V54.1609V51.7281L40.4994 51.5312C40.3025 51.3344 40.2744 51.3273 39.6346 51.3344C39.058 51.3414 38.9103 51.3133 38.5728 51.1586C37.708 50.7648 37.1666 49.9703 37.1666 49.0703C37.1596 48.3602 37.3424 47.9172 37.8486 47.4109C38.3971 46.8625 38.7908 46.7148 39.6767 46.7359C40.2744 46.743 40.3025 46.7359 40.4994 46.5391L40.7033 46.3422V43.5227V40.7031H42.9885C44.7603 40.7031 45.2807 40.7242 45.3017 40.7875Z"/>
</mask>
<path d="M24.8971 22.1406C24.215 22.3234 23.6807 22.6328 23.1533 23.1531C22.626 23.6875 22.3166 24.2219 22.1408 24.932C22.0002 25.4734 22.0002 25.7266 22.0142 40.668L22.0346 55.3334C22.0351 55.6771 22.1122 56.0164 22.2603 56.3266C22.5486 56.9453 23.0549 57.4516 23.6736 57.7398C23.9838 57.888 24.3231 57.9648 24.6668 57.9648H40.0072H55.2652C55.6581 57.9648 56.0456 57.8734 56.3971 57.6977C57.0369 57.3883 57.4236 56.9805 57.7471 56.3125C57.8906 56.0116 57.965 55.6825 57.965 55.3491V40V24.6509C57.965 24.3175 57.8906 23.9884 57.7471 23.6875C57.4236 23.0195 57.0369 22.6117 56.3971 22.3023C56.0456 22.1266 55.6582 22.035 55.2652 22.0346L40.64 22.0211C25.8041 22.007 25.3963 22.007 24.8971 22.1406ZM39.2971 25.9023C39.2971 28.5883 39.3182 28.7641 39.6627 28.9891C39.7752 29.0664 39.9861 29.0875 40.3869 29.0805C41.2025 29.0664 41.6103 29.2211 42.1517 29.7625C42.4682 30.0859 42.6088 30.2898 42.7072 30.5781C43.108 31.7594 42.5736 32.9898 41.4557 33.5031C41.1041 33.6578 40.9564 33.6859 40.415 33.6789C39.8174 33.6789 39.7752 33.6859 39.5572 33.8758L39.3322 34.0797L39.3111 36.6883L39.29 39.2969H37.2158C35.6197 39.2969 35.1416 39.2758 35.1205 39.2055C35.1064 39.1633 35.0642 38.9312 35.015 38.6992C34.8041 37.525 33.8689 36.4352 32.6947 35.9852C30.965 35.3312 28.9471 36.0906 28.1033 37.7289C27.8783 38.1508 27.7939 38.418 27.6603 39.1L27.6252 39.2969H25.5158H23.4064L23.4205 32.2797L23.4405 25.6408C23.4412 25.3961 23.4943 25.1544 23.5963 24.932C23.9197 24.2359 24.4189 23.7789 25.115 23.5398C25.4596 23.4203 25.9236 23.4133 32.3924 23.4062H39.2971V25.9023ZM55.6377 23.4906C56.0033 23.6031 56.3971 23.9969 56.5096 24.3625C56.5728 24.5875 56.5939 26.3945 56.5939 31.9773V39.2969H54.1611H51.7283L51.5244 39.5008C51.3275 39.6977 51.3205 39.7258 51.3275 40.3727C51.3346 40.9562 51.3135 41.0969 51.1517 41.4555C50.4346 43.0164 48.4728 43.3258 47.3127 42.0602C46.8627 41.568 46.715 41.1391 46.7361 40.3375C46.7432 39.782 46.7291 39.7047 46.5814 39.5289L46.4127 39.332L43.5721 39.2969L40.7385 39.2617L40.7174 37.2016C40.7033 35.5914 40.7174 35.1414 40.7877 35.1203C40.8369 35.1062 41.0689 35.0641 41.301 35.0148C42.2713 34.8391 43.3189 34.0727 43.783 33.1937C44.5775 31.6961 44.3244 29.9242 43.1502 28.743C42.6791 28.2719 41.8072 27.8008 41.2869 27.7305C40.64 27.6391 40.7033 27.8781 40.7033 25.5086V23.4062H48.0228C53.6057 23.4062 55.4127 23.4273 55.6377 23.4906ZM32.3502 37.3773C32.8283 37.5883 33.2572 38.0242 33.5033 38.5445C33.6439 38.8469 33.6721 39.0227 33.6721 39.557C33.6721 40.1758 33.6791 40.218 33.876 40.4359L34.0799 40.668L36.6885 40.6891L39.2971 40.7102V42.9953C39.2971 44.7602 39.276 45.2805 39.2127 45.3016C39.1635 45.3156 38.9314 45.3578 38.6994 45.407C37.2299 45.6812 36.0064 46.975 35.7814 48.5148C35.5142 50.3289 36.6603 52.0867 38.4463 52.6141C38.6572 52.6773 38.9385 52.7266 39.065 52.7266H39.2971V54.6602V56.5937H31.9775C26.3947 56.5937 24.5877 56.5727 24.3627 56.5094C23.9971 56.3969 23.6033 56.0031 23.4908 55.6375C23.4275 55.4125 23.4064 53.6055 23.4064 48.0227V40.7031H25.9025C28.5885 40.7031 28.7642 40.682 28.9892 40.3375C29.0666 40.225 29.0877 40.0141 29.0807 39.6133C29.0666 38.8891 29.2213 38.432 29.6361 37.968C30.0228 37.5391 30.2971 37.3633 30.7963 37.2227C31.2885 37.0891 31.8228 37.1383 32.3502 37.3773ZM45.3017 40.7875C45.3158 40.8367 45.358 41.0687 45.4072 41.3008C45.5197 41.9336 45.9135 42.6719 46.3916 43.143C47.8541 44.6055 50.2236 44.6125 51.6721 43.15C52.2627 42.5523 52.7267 41.582 52.7267 40.9352V40.7031H54.6603H56.5939V48.0227C56.5939 53.6055 56.5728 55.4125 56.5096 55.6375C56.3971 56.0031 56.0033 56.3969 55.6377 56.5094C55.4127 56.5727 53.6057 56.5937 48.0228 56.5937H40.7033V54.1609V51.7281L40.4994 51.5312C40.3025 51.3344 40.2744 51.3273 39.6346 51.3344C39.058 51.3414 38.9103 51.3133 38.5728 51.1586C37.708 50.7648 37.1666 49.9703 37.1666 49.0703C37.1596 48.3602 37.3424 47.9172 37.8486 47.4109C38.3971 46.8625 38.7908 46.7148 39.6767 46.7359C40.2744 46.743 40.3025 46.7359 40.4994 46.5391L40.7033 46.3422V43.5227V40.7031H42.9885C44.7603 40.7031 45.2807 40.7242 45.3017 40.7875Z" fill="#032E61" stroke="#F2F7FF" stroke-width="0.2" mask="url(#path-2-inside-1_826_12068)"/>
</svg>
