<svg width="38" height="38" viewBox="0 0 38 38" fill="none" xmlns="http://www.w3.org/2000/svg">
<path d="M31.7152 12.2223L23.4027 3.90984C23.2923 3.7996 23.1613 3.71219 23.0171 3.65259C22.873 3.59299 22.7185 3.56238 22.5625 3.5625H8.3125C7.68261 3.5625 7.07852 3.81272 6.63312 4.25812C6.18772 4.70352 5.9375 5.30761 5.9375 5.9375V32.0625C5.9375 32.6924 6.18772 33.2965 6.63312 33.7419C7.07852 34.1873 7.68261 34.4375 8.3125 34.4375H29.6875C30.3174 34.4375 30.9215 34.1873 31.3669 33.7419C31.8123 33.2965 32.0625 32.6924 32.0625 32.0625V13.0625C32.0626 12.9065 32.032 12.752 31.9724 12.6079C31.9128 12.4637 31.8254 12.3327 31.7152 12.2223ZM16.2777 25.2848C16.388 25.3952 16.4755 25.5262 16.5352 25.6703C16.5949 25.8145 16.6257 25.969 16.6257 26.125C16.6257 26.281 16.5949 26.4355 16.5352 26.5797C16.4755 26.7238 16.388 26.8548 16.2777 26.9652C16.1673 27.0755 16.0363 27.163 15.8922 27.2227C15.748 27.2824 15.5935 27.3132 15.4375 27.3132C15.2815 27.3132 15.127 27.2824 14.9828 27.2227C14.8387 27.163 14.7077 27.0755 14.5973 26.9652L11.0348 23.4027C10.9244 23.2924 10.8368 23.1614 10.7771 23.0172C10.7173 22.8731 10.6866 22.7186 10.6866 22.5625C10.6866 22.4064 10.7173 22.2519 10.7771 22.1078C10.8368 21.9636 10.9244 21.8326 11.0348 21.7223L14.5973 18.1598C14.8202 17.937 15.1224 17.8118 15.4375 17.8118C15.7526 17.8118 16.0548 17.937 16.2777 18.1598C16.5005 18.3827 16.6257 18.6849 16.6257 19C16.6257 19.3151 16.5005 19.6173 16.2777 19.8402L13.5538 22.5625L16.2777 25.2848ZM26.9652 23.4027L23.4027 26.9652C23.1798 27.188 22.8776 27.3132 22.5625 27.3132C22.2474 27.3132 21.9452 27.188 21.7223 26.9652C21.4995 26.7423 21.3743 26.4401 21.3743 26.125C21.3743 25.8099 21.4995 25.5077 21.7223 25.2848L24.4462 22.5625L21.7223 19.8402C21.4995 19.6173 21.3743 19.3151 21.3743 19C21.3743 18.6849 21.4995 18.3827 21.7223 18.1598C21.9452 17.937 22.2474 17.8118 22.5625 17.8118C22.8776 17.8118 23.1798 17.937 23.4027 18.1598L26.9652 21.7223C27.0756 21.8326 27.1632 21.9636 27.2229 22.1078C27.2827 22.2519 27.3134 22.4064 27.3134 22.5625C27.3134 22.7186 27.2827 22.8731 27.2229 23.0172C27.1632 23.1614 27.0756 23.2924 26.9652 23.4027ZM22.5625 13.0625V6.53125L29.0938 13.0625H22.5625Z" fill="#343330"/>
</svg>
