<svg width="32" height="32" viewBox="0 0 32 32" fill="none" xmlns="http://www.w3.org/2000/svg">
<path d="M14.9709 4.09319L14.4168 2.76319C14.1112 1.99987 13.5849 1.34505 12.9051 0.882487C12.2254 0.419921 11.4231 0.170638 10.6009 0.166521H7.43426C6.48063 0.164439 5.53595 0.350472 4.65431 0.713971C3.77267 1.07747 2.97138 1.61129 2.29632 2.28488C1.62126 2.95847 1.08569 3.75859 0.720274 4.63943C0.354854 5.52028 0.166761 6.46455 0.166763 7.41819V23.4732C0.164677 24.5716 0.379491 25.6597 0.798881 26.6749C1.21827 27.6901 1.83398 28.6125 2.6107 29.3893C3.38741 30.166 4.30984 30.7817 5.32506 31.2011C6.34029 31.6205 7.42833 31.8353 8.52676 31.8332H23.4734C24.5719 31.8353 25.6599 31.6205 26.6751 31.2011C27.6904 30.7817 28.6128 30.166 29.3895 29.3893C30.1662 28.6125 30.7819 27.6901 31.2013 26.6749C31.6207 25.6597 31.8355 24.5716 31.8334 23.4732V15.034C31.8334 13.9362 31.6172 12.8491 31.1971 11.8348C30.7769 10.8205 30.1611 9.89891 29.3848 9.12261C28.6085 8.34631 27.6869 7.73052 26.6727 7.31039C25.6584 6.89026 24.5713 6.67402 23.4734 6.67402H18.7234C17.9124 6.66497 17.1224 6.41469 16.4541 5.95507C15.7859 5.49545 15.2695 4.8473 14.9709 4.09319Z" fill="#343330"/>
</svg>
