<svg width="24" height="25" viewBox="0 0 24 25" fill="none" xmlns="http://www.w3.org/2000/svg">
<path d="M8 12.5896H15" stroke="#858585" stroke-width="1.5" stroke-miterlimit="10" stroke-linecap="round" stroke-linejoin="round"/>
<path d="M8 16.5896H12.38" stroke="#858585" stroke-width="1.5" stroke-miterlimit="10" stroke-linecap="round" stroke-linejoin="round"/>
<path d="M10 6.38965H14C16 6.38965 16 5.38965 16 4.38965C16 2.38965 15 2.38965 14 2.38965H10C9 2.38965 8 2.38965 8 4.38965C8 6.38965 9 6.38965 10 6.38965Z" stroke="#858585" stroke-width="1.5" stroke-miterlimit="10" stroke-linecap="round" stroke-linejoin="round"/>
<path d="M16 4.40967C19.33 4.58967 21 5.81967 21 10.3897V16.3897C21 20.3897 20 22.3897 15 22.3897H9C4 22.3897 3 20.3897 3 16.3897V10.3897C3 5.82967 4.67 4.58967 8 4.40967" stroke="#858585" stroke-width="1.5" stroke-miterlimit="10" stroke-linecap="round" stroke-linejoin="round"/>
</svg>
