<svg width="24" height="25" viewBox="0 0 24 25" fill="none" xmlns="http://www.w3.org/2000/svg">
<path d="M22 11.2896V4.48965C22 2.98965 21.36 2.38965 19.77 2.38965H15.73C14.14 2.38965 13.5 2.98965 13.5 4.48965V11.2896C13.5 12.7896 14.14 13.3896 15.73 13.3896H19.77C21.36 13.3896 22 12.7896 22 11.2896Z" stroke="#858585" stroke-width="1.5" stroke-linecap="round" stroke-linejoin="round"/>
<path d="M22 20.2896V18.4896C22 16.9896 21.36 16.3896 19.77 16.3896H15.73C14.14 16.3896 13.5 16.9896 13.5 18.4896V20.2896C13.5 21.7896 14.14 22.3896 15.73 22.3896H19.77C21.36 22.3896 22 21.7896 22 20.2896Z" stroke="#858585" stroke-width="1.5" stroke-linecap="round" stroke-linejoin="round"/>
<path d="M10.5 13.4896V20.2896C10.5 21.7896 9.86 22.3896 8.27 22.3896H4.23C2.64 22.3896 2 21.7896 2 20.2896V13.4896C2 11.9896 2.64 11.3896 4.23 11.3896H8.27C9.86 11.3896 10.5 11.9896 10.5 13.4896Z" stroke="#858585" stroke-width="1.5" stroke-linecap="round" stroke-linejoin="round"/>
<path d="M10.5 4.48965V6.28965C10.5 7.78965 9.86 8.38965 8.27 8.38965H4.23C2.64 8.38965 2 7.78965 2 6.28965V4.48965C2 2.98965 2.64 2.38965 4.23 2.38965H8.27C9.86 2.38965 10.5 2.98965 10.5 4.48965Z" stroke="#858585" stroke-width="1.5" stroke-linecap="round" stroke-linejoin="round"/>
</svg>
