<svg width="24" height="24" viewBox="0 0 24 24" fill="none" xmlns="http://www.w3.org/2000/svg">
<path d="M4 6L12 11L20 6H4ZM4 20C3.45 20 2.97933 19.8043 2.588 19.413C2.19667 19.0217 2.00067 18.5507 2 18V6C2 5.45 2.196 4.97933 2.588 4.588C2.98 4.19667 3.45067 4.00067 4 4H20C20.55 4 21.021 4.196 21.413 4.588C21.805 4.98 22.0007 5.45067 22 6V11C22 11.2833 21.904 11.521 21.712 11.713C21.52 11.905 21.2827 12.0007 21 12C20.7173 11.9993 20.48 11.9033 20.288 11.712C20.096 11.5207 20 11.2833 20 11V8L12.525 12.675C12.475 12.7083 12.3 12.7583 12 12.825C11.9167 12.825 11.8293 12.8127 11.738 12.788C11.6467 12.7633 11.559 12.7257 11.475 12.675L4 8V18H9.5C9.78333 18 10.021 18.096 10.213 18.288C10.405 18.48 10.5007 18.7173 10.5 19C10.4993 19.2827 10.4033 19.5203 10.212 19.713C10.0207 19.9057 9.78333 20.0013 9.5 20H4Z" fill="#858585"/>
<path d="M12.543 18.9729C12.2785 18.4979 12.1465 18.2599 12.1465 18.0004C12.1465 17.7409 12.2785 17.5034 12.543 17.0284L13.217 15.8154L13.93 14.6249C14.2095 14.1584 14.349 13.9249 14.5735 13.7949C14.7985 13.6654 15.07 13.6614 15.6135 13.6524L17.002 13.6304L18.3895 13.6524C18.9335 13.6614 19.205 13.6654 19.4295 13.7954C19.654 13.9254 19.7945 14.1584 20.0735 14.6249L20.787 15.8154L21.462 17.0284C21.726 17.5034 21.858 17.7409 21.858 18.0004C21.858 18.2599 21.726 18.4974 21.4615 18.9724L20.787 20.1854L20.074 21.3759C19.7945 21.8424 19.655 22.0759 19.4305 22.2059C19.2055 22.3354 18.934 22.3394 18.3905 22.3484L17.002 22.3704L15.6145 22.3484C15.0705 22.3394 14.799 22.3354 14.5745 22.2054C14.35 22.0754 14.2095 21.8424 13.9305 21.3759L13.217 20.1854L12.543 18.9729Z" stroke="#858585"/>
<path d="M17 19.5C17.8284 19.5 18.5 18.8284 18.5 18C18.5 17.1716 17.8284 16.5 17 16.5C16.1716 16.5 15.5 17.1716 15.5 18C15.5 18.8284 16.1716 19.5 17 19.5Z" stroke="#858585"/>
</svg>
