<svg width="24" height="25" viewBox="0 0 24 25" fill="none" xmlns="http://www.w3.org/2000/svg">
<path d="M9.16006 11.2596C9.06006 11.2496 8.94006 11.2496 8.83006 11.2596C6.45006 11.1796 4.56006 9.22965 4.56006 6.82965C4.56006 4.37965 6.54006 2.38965 9.00006 2.38965C11.4501 2.38965 13.4401 4.37965 13.4401 6.82965C13.4301 9.22965 11.5401 11.1796 9.16006 11.2596Z" stroke="#858585" stroke-width="1.5" stroke-linecap="round" stroke-linejoin="round"/>
<path d="M16.4098 4.38965C18.3498 4.38965 19.9098 5.95965 19.9098 7.88965C19.9098 9.77965 18.4098 11.3196 16.5398 11.3896C16.4598 11.3796 16.3698 11.3796 16.2798 11.3896" stroke="#858585" stroke-width="1.5" stroke-linecap="round" stroke-linejoin="round"/>
<path d="M4.16021 14.9496C1.74021 16.5696 1.74021 19.2096 4.16021 20.8196C6.91021 22.6596 11.4202 22.6596 14.1702 20.8196C16.5902 19.1996 16.5902 16.5596 14.1702 14.9496C11.4302 13.1196 6.92021 13.1196 4.16021 14.9496Z" stroke="#858585" stroke-width="1.5" stroke-linecap="round" stroke-linejoin="round"/>
<path d="M18.3398 20.3896C19.0598 20.2396 19.7398 19.9496 20.2998 19.5196C21.8598 18.3496 21.8598 16.4196 20.2998 15.2496C19.7498 14.8296 19.0798 14.5496 18.3698 14.3896" stroke="#858585" stroke-width="1.5" stroke-linecap="round" stroke-linejoin="round"/>
</svg>
