<svg width="24" height="25" viewBox="0 0 24 25" fill="none" xmlns="http://www.w3.org/2000/svg">
<path d="M12 15.3896C13.6569 15.3896 15 14.0465 15 12.3896C15 10.7328 13.6569 9.38965 12 9.38965C10.3431 9.38965 9 10.7328 9 12.3896C9 14.0465 10.3431 15.3896 12 15.3896Z" stroke="#858585" stroke-width="1.5" stroke-miterlimit="10" stroke-linecap="round" stroke-linejoin="round"/>
<path d="M2 13.2696V11.5096C2 10.4696 2.85 9.60959 3.9 9.60959C5.71 9.60959 6.45 8.32958 5.54 6.75958C5.02 5.85958 5.33 4.68958 6.24 4.16958L7.97 3.17958C8.76 2.70958 9.78 2.98958 10.25 3.77959L10.36 3.96958C11.26 5.53958 12.74 5.53958 13.65 3.96958L13.76 3.77959C14.23 2.98958 15.25 2.70958 16.04 3.17958L17.77 4.16958C18.68 4.68958 18.99 5.85958 18.47 6.75958C17.56 8.32958 18.3 9.60959 20.11 9.60959C21.15 9.60959 22.01 10.4596 22.01 11.5096V13.2696C22.01 14.3096 21.16 15.1696 20.11 15.1696C18.3 15.1696 17.56 16.4496 18.47 18.0196C18.99 18.9296 18.68 20.0896 17.77 20.6096L16.04 21.5996C15.25 22.0696 14.23 21.7896 13.76 20.9996L13.65 20.8096C12.75 19.2396 11.27 19.2396 10.36 20.8096L10.25 20.9996C9.78 21.7896 8.76 22.0696 7.97 21.5996L6.24 20.6096C5.33 20.0896 5.02 18.9196 5.54 18.0196C6.45 16.4496 5.71 15.1696 3.9 15.1696C2.85 15.1696 2 14.3096 2 13.2696Z" stroke="#858585" stroke-width="1.5" stroke-miterlimit="10" stroke-linecap="round" stroke-linejoin="round"/>
</svg>
